<svg width="1026" height="616" viewBox="0 0 1026 616" fill="none" xmlns="http://www.w3.org/2000/svg">
<line x1="143" y1="276" x2="908" y2="276" stroke="url(#paint0_linear)" stroke-width="6" stroke-linecap="round" stroke-linejoin="round"/>
<line x1="140" y1="276" x2="140" y2="226" stroke="url(#paint1_linear)" stroke-width="6" stroke-linecap="round" stroke-linejoin="round"/>
<line x1="539" y1="276" x2="539" y2="226" stroke="url(#paint2_linear)" stroke-width="6" stroke-linecap="round" stroke-linejoin="round"/>
<line x1="911" y1="276" x2="911" y2="226" stroke="url(#paint3_linear)" stroke-width="6" stroke-linecap="round" stroke-linejoin="round"/>
<path fill-rule="evenodd" clip-rule="evenodd" d="M539 332C538.649 332 538.313 331.94 538 331.829C537.687 331.94 537.351 332 537 332L143 332V371.757L156.971 357.787C158.142 356.615 160.042 356.615 161.213 357.787C162.385 358.958 162.385 360.858 161.213 362.029L142.121 381.121C140.95 382.293 139.05 382.293 137.879 381.121L118.787 362.029C117.615 360.858 117.615 358.958 118.787 357.787C119.958 356.615 121.858 356.615 123.03 357.787L137 371.757V329C137 327.343 138.343 326 140 326C140.547 326 141.059 326.146 141.5 326.401C141.941 326.146 142.454 326 143 326L536 326V279C536 277.343 537.343 276 539 276C540.657 276 542 277.343 542 279V329C542 330.657 540.657 332 539 332Z" fill="url(#paint4_linear)"/>
<path d="M245.04 265.18C246.84 265.18 247.56 264.1 247.56 264.1H247.65L247.83 265H250.17V252.4H247.47V256.54H247.38C247.38 256.54 246.66 255.64 245.04 255.64C242.61 255.64 240.63 257.62 240.63 260.41C240.63 263.2 242.61 265.18 245.04 265.18ZM245.4 262.66C244.23 262.66 243.33 261.76 243.33 260.41C243.33 259.06 244.23 258.16 245.4 258.16C246.57 258.16 247.47 259.06 247.47 260.41C247.47 261.76 246.57 262.66 245.4 262.66ZM252.418 265H255.118V255.82H252.418V265ZM252.418 254.488H255.118V252.148H252.418V254.488ZM260.779 265.18C263.479 265.18 264.829 263.83 264.829 262.3C264.829 260.68 263.839 259.69 261.769 259.42L260.419 259.24C259.609 259.132 259.339 258.88 259.339 258.52C259.339 258.07 259.789 257.71 260.689 257.71C261.949 257.71 262.129 258.52 262.129 258.52H264.739C264.739 258.52 264.559 255.64 260.689 255.64C258.079 255.64 256.729 256.99 256.729 258.52C256.729 260.05 257.629 260.932 259.789 261.22L261.139 261.4C261.949 261.508 262.219 261.76 262.219 262.3C262.219 262.75 261.769 263.2 260.779 263.2C259.249 263.2 259.249 262.12 259.249 262.12H256.639C256.639 262.12 256.639 265.18 260.779 265.18ZM269.604 265H271.764V262.48H270.324C269.874 262.48 269.694 262.3 269.694 261.85V258.34H271.764V255.82H269.694V252.94H266.994V255.82H265.554V258.34H266.994V262.48C266.994 264.1 267.894 265 269.604 265ZM273.74 265H276.44V259.96C276.44 258.88 276.98 258.34 278.06 258.34H279.68V255.82H277.97C276.8 255.82 276.35 256.54 276.35 256.54H276.26L276.08 255.82H273.74V265ZM281.035 265H283.735V255.82H281.035V265ZM281.035 254.488H283.735V252.148H281.035V254.488ZM291.107 265.18C293.537 265.18 295.517 263.2 295.517 260.41C295.517 257.62 293.537 255.64 291.107 255.64C289.487 255.64 288.767 256.54 288.767 256.54H288.677V252.4H285.977V265H288.317L288.497 264.1H288.587C288.587 264.1 289.307 265.18 291.107 265.18ZM290.747 262.66C289.577 262.66 288.677 261.76 288.677 260.41C288.677 259.06 289.577 258.16 290.747 258.16C291.917 258.16 292.817 259.06 292.817 260.41C292.817 261.76 291.917 262.66 290.747 262.66ZM300.915 265.18C302.625 265.18 303.435 264.19 303.435 264.19H303.525L303.705 265H306.045V255.82H303.345V260.86C303.345 261.85 302.625 262.57 301.635 262.57C300.645 262.57 299.925 261.85 299.925 260.86V255.82H297.225V261.4C297.225 263.65 298.755 265.18 300.915 265.18ZM311.721 265H313.881V262.48H312.441C311.991 262.48 311.811 262.3 311.811 261.85V258.34H313.881V255.82H311.811V252.94H309.111V255.82H307.671V258.34H309.111V262.48C309.111 264.1 310.011 265 311.721 265ZM319.826 265.18C323.246 265.18 324.236 262.21 324.236 262.21H321.536C321.536 262.21 320.996 263.02 319.826 263.02C318.656 263.02 317.846 262.21 317.756 261.13H324.416C324.416 261.13 324.506 260.86 324.506 260.23C324.506 257.62 322.526 255.64 319.826 255.64C317.036 255.64 315.056 257.62 315.056 260.41C315.056 263.2 317.036 265.18 319.826 265.18ZM317.756 259.51C318.026 258.34 318.746 257.71 319.826 257.71C320.906 257.71 321.626 258.34 321.896 259.51H317.756ZM330.171 265.18C331.971 265.18 332.691 264.1 332.691 264.1H332.781L332.961 265H335.301V252.4L332.601 252.4V256.54H332.511C332.511 256.54 331.791 255.64 330.171 255.64C327.741 255.64 325.761 257.62 325.761 260.41C325.761 263.2 327.741 265.18 330.171 265.18ZM330.531 262.66C329.361 262.66 328.461 261.76 328.461 260.41C328.461 259.06 329.361 258.16 330.531 258.16C331.701 258.16 332.601 259.06 332.601 260.41C332.601 261.76 331.701 262.66 330.531 262.66ZM345.37 265.18C347.08 265.18 347.89 264.19 347.89 264.19H347.98L348.16 265H350.5V259.132C350.5 257.08 349.06 255.64 346.36 255.64C343.84 255.64 342.49 256.99 342.31 258.61H344.92C344.92 258.61 345.19 257.8 346.36 257.8C347.26 257.8 347.8 258.34 347.8 259.15V259.33H345.73C343.21 259.33 341.95 260.59 341.95 262.3C341.95 263.92 343.21 265.18 345.37 265.18ZM345.91 263.11C345.1 263.11 344.65 262.66 344.65 262.12C344.65 261.58 345.1 261.13 346.09 261.13H347.8V261.31C347.8 262.39 347.08 263.11 345.91 263.11ZM352.578 268.6H355.278V264.28H355.368C355.368 264.28 356.088 265.18 357.708 265.18C360.138 265.18 362.118 263.2 362.118 260.41C362.118 257.62 360.138 255.64 357.708 255.64C355.908 255.64 355.188 256.72 355.188 256.72H355.098L354.918 255.82H352.578V268.6ZM357.348 262.66C356.178 262.66 355.278 261.76 355.278 260.41C355.278 259.06 356.178 258.16 357.348 258.16C358.518 258.16 359.418 259.06 359.418 260.41C359.418 261.76 358.518 262.66 357.348 262.66ZM363.828 268.6H366.528V264.28H366.618C366.618 264.28 367.338 265.18 368.958 265.18C371.388 265.18 373.368 263.2 373.368 260.41C373.368 257.62 371.388 255.64 368.958 255.64C367.158 255.64 366.438 256.72 366.438 256.72H366.348L366.168 255.82H363.828V268.6ZM368.598 262.66C367.428 262.66 366.528 261.76 366.528 260.41C366.528 259.06 367.428 258.16 368.598 258.16C369.768 258.16 370.668 259.06 370.668 260.41C370.668 261.76 369.768 262.66 368.598 262.66ZM375.168 265H377.868V252.4H375.168V265ZM380.123 265H382.823V255.82H380.123V265ZM380.123 254.488H382.823V252.148H380.123V254.488ZM389.295 265.18C393.345 265.18 393.885 261.4 393.885 261.4H391.095C391.095 261.4 390.735 262.66 389.295 262.66C388.125 262.66 387.225 261.76 387.225 260.41C387.225 259.06 388.125 258.16 389.295 258.16C390.735 258.16 391.095 259.42 391.095 259.42H393.885C393.885 259.42 393.345 255.64 389.295 255.64C386.505 255.64 384.525 257.62 384.525 260.41C384.525 263.2 386.505 265.18 389.295 265.18ZM398.474 265.18C400.184 265.18 400.994 264.19 400.994 264.19H401.084L401.264 265H403.604V259.132C403.604 257.08 402.164 255.64 399.464 255.64C396.944 255.64 395.594 256.99 395.414 258.61H398.024C398.024 258.61 398.294 257.8 399.464 257.8C400.364 257.8 400.904 258.34 400.904 259.15V259.33H398.834C396.314 259.33 395.054 260.59 395.054 262.3C395.054 263.92 396.314 265.18 398.474 265.18ZM399.014 263.11C398.204 263.11 397.754 262.66 397.754 262.12C397.754 261.58 398.204 261.13 399.194 261.13H400.904V261.31C400.904 262.39 400.184 263.11 399.014 263.11ZM408.84 265H411V262.48H409.56C409.11 262.48 408.93 262.3 408.93 261.85V258.34H411V255.82H408.93V252.94H406.23V255.82H404.79V258.34H406.23V262.48C406.23 264.1 407.13 265 408.84 265ZM412.976 265H415.676V255.82H412.976V265ZM412.976 254.488H415.676V252.148H412.976V254.488ZM422.148 265.18C424.938 265.18 426.918 263.2 426.918 260.41C426.918 257.62 424.938 255.64 422.148 255.64C419.358 255.64 417.378 257.62 417.378 260.41C417.378 263.2 419.358 265.18 422.148 265.18ZM422.148 262.66C420.978 262.66 420.078 261.76 420.078 260.41C420.078 259.06 420.978 258.16 422.148 258.16C423.318 258.16 424.218 259.06 424.218 260.41C424.218 261.76 423.318 262.66 422.148 262.66ZM428.621 265H431.321V259.96C431.321 258.97 432.041 258.25 433.031 258.25C434.021 258.25 434.741 258.97 434.741 259.96V265H437.441V259.42C437.441 257.17 435.911 255.64 433.751 255.64C432.041 255.64 431.231 256.63 431.231 256.63H431.141L430.961 255.82H428.621V265Z" fill="url(#paint5_linear)"/>
<path d="M177.969 359H181.119L181.929 356.48H186.789L187.599 359H190.749L186.429 346.4H182.289L177.969 359ZM182.739 353.96L184.179 349.46H184.539L185.979 353.96H182.739ZM194.081 359H198.221L202.361 346.4H199.211L196.331 355.4H195.971L193.091 346.4H189.941L194.081 359ZM203.629 359H212.269V356.39H206.509V353.96H211.909V351.44H206.509V349.01H212.269V346.4H203.629V359ZM218.922 359.18C222.252 359.18 223.962 357.47 223.962 355.31C223.962 353.15 222.882 352.07 220.362 351.62L218.382 351.26C217.212 351.044 216.852 350.72 216.852 350.09C216.852 349.37 217.482 348.74 218.742 348.74C220.146 348.74 220.992 349.568 220.992 350.54H223.872C223.872 348.02 222.072 346.22 218.742 346.22C215.682 346.22 213.972 347.93 213.972 350.09C213.972 352.07 215.052 353.186 217.302 353.6L219.282 353.96C220.632 354.212 221.082 354.68 221.082 355.31C221.082 356.03 220.452 356.66 218.922 356.66C217.392 356.66 216.582 355.85 216.582 354.86H213.702C213.702 357.29 215.592 359.18 218.922 359.18ZM225.936 359H228.816V354.14H233.676V359H236.556V346.4H233.676V351.17H228.816V346.4H225.936V359ZM237.734 359H240.884L241.694 356.48H246.554L247.364 359H250.514L246.194 346.4H242.054L237.734 359ZM242.504 353.96L243.944 349.46H244.304L245.744 353.96H242.504ZM255.189 359H258.339L259.149 356.48H264.009L264.819 359H267.969L263.649 346.4H259.509L255.189 359ZM259.959 353.96L261.399 349.46H261.759L263.199 353.96H259.959ZM269.143 359H272.023V355.22H274.993C277.423 355.22 279.133 353.51 279.133 350.81C279.133 348.11 277.423 346.4 274.993 346.4H269.143V359ZM272.023 352.43V349.19H274.813C275.623 349.19 276.253 349.82 276.253 350.81C276.253 351.8 275.623 352.43 274.813 352.43H272.023ZM281.026 359H283.906V355.22H286.876C289.306 355.22 291.016 353.51 291.016 350.81C291.016 348.11 289.306 346.4 286.876 346.4H281.026V359ZM283.906 352.43V349.19H286.696C287.506 349.19 288.136 349.82 288.136 350.81C288.136 351.8 287.506 352.43 286.696 352.43H283.906ZM292.908 359H295.788V355.22H298.758C301.188 355.22 302.898 353.51 302.898 350.81C302.898 348.11 301.188 346.4 298.758 346.4H292.908V359ZM295.788 352.43V349.19H298.578C299.388 349.19 300.018 349.82 300.018 350.81C300.018 351.8 299.388 352.43 298.578 352.43H295.788ZM304.791 359H313.341V356.21H307.671V346.4H304.791V359ZM314.864 359H317.744V346.4H314.864V359ZM325.84 359.18C330.79 359.18 331.6 354.23 331.6 354.23H328.72C328.72 354.23 328.27 356.39 325.84 356.39C324.04 356.39 322.6 354.95 322.6 352.7C322.6 350.45 324.04 349.01 325.84 349.01C328.18 349.01 328.72 351.08 328.72 351.08H331.6C331.6 351.08 330.7 346.22 325.84 346.22C322.42 346.22 319.72 348.92 319.72 352.7C319.72 356.48 322.42 359.18 325.84 359.18ZM331.707 359H334.857L335.667 356.48H340.527L341.337 359H344.487L340.167 346.4H336.027L331.707 359ZM336.477 353.96L337.917 349.46H338.277L339.717 353.96H336.477ZM347.198 359H350.078V349.19H353.588V346.4H343.688V349.19H347.198V359ZM355.205 359H358.085V346.4H355.205V359ZM366.182 359.18C369.602 359.18 372.302 356.48 372.302 352.7C372.302 348.92 369.602 346.22 366.182 346.22C362.762 346.22 360.062 348.92 360.062 352.7C360.062 356.48 362.762 359.18 366.182 359.18ZM366.182 356.39C364.382 356.39 362.942 354.95 362.942 352.7C362.942 350.45 364.382 349.01 366.182 349.01C367.982 349.01 369.422 350.45 369.422 352.7C369.422 354.95 367.982 356.39 366.182 356.39ZM374.278 359H377.158V351.44H377.518L381.478 359H384.988V346.4H382.108V353.96H381.748L377.788 346.4H374.278V359ZM397.945 359.18C401.365 359.18 404.065 356.48 404.065 352.7C404.065 348.92 401.365 346.22 397.945 346.22C394.525 346.22 391.825 348.92 391.825 352.7C391.825 356.48 394.525 359.18 397.945 359.18ZM397.945 356.39C396.145 356.39 394.705 354.95 394.705 352.7C394.705 350.45 396.145 349.01 397.945 349.01C399.745 349.01 401.185 350.45 401.185 352.7C401.185 354.95 399.745 356.39 397.945 356.39ZM408.57 359H412.71L416.85 346.4H413.7L410.82 355.4H410.46L407.58 346.4H404.43L408.57 359ZM418.117 359H426.757V356.39H420.997V353.96H426.397V351.44H420.997V349.01H426.757V346.4H418.117V359ZM428.91 359H431.79V354.95H432.15L435.75 359H439.35L435.48 354.77C435.48 354.77 438.99 354.59 438.99 350.72C438.99 348.11 437.28 346.4 434.85 346.4H428.91V359ZM431.79 352.34V349.1H434.67C435.48 349.1 436.11 349.73 436.11 350.72C436.11 351.71 435.48 352.34 434.67 352.34H431.79ZM441.145 359H449.695V356.21H444.025V346.4H441.145V359ZM449.867 359H453.017L453.827 356.48H458.687L459.497 359H462.647L458.327 346.4H454.187L449.867 359ZM454.637 353.96L456.077 349.46H456.437L457.877 353.96H454.637ZM465.808 359H468.688V354.95L473.278 346.4H470.038L467.428 351.44H467.068L464.458 346.4H461.218L465.808 354.95V359ZM481.634 362.6H484.424C484.424 362.6 481.814 359.36 481.814 354.23C481.814 349.1 484.424 345.86 484.424 345.86H481.634C481.634 345.86 479.114 349.1 479.114 354.23C479.114 359.36 481.634 362.6 481.634 362.6ZM490.539 359.18C493.869 359.18 495.579 357.47 495.579 355.31C495.579 353.15 494.499 352.07 491.979 351.62L489.999 351.26C488.829 351.044 488.469 350.72 488.469 350.09C488.469 349.37 489.099 348.74 490.359 348.74C491.763 348.74 492.609 349.568 492.609 350.54H495.489C495.489 348.02 493.689 346.22 490.359 346.22C487.299 346.22 485.589 347.93 485.589 350.09C485.589 352.07 486.669 353.186 488.919 353.6L490.899 353.96C492.249 354.212 492.699 354.68 492.699 355.31C492.699 356.03 492.069 356.66 490.539 356.66C489.009 356.66 488.199 355.85 488.199 354.86H485.319C485.319 357.29 487.209 359.18 490.539 359.18ZM497.553 359H500.433V351.44H500.793L504.753 359H508.263V346.4H505.383V353.96H505.023L501.063 346.4H497.553V359ZM509.439 359H512.589L513.399 356.48H518.259L519.069 359H522.219L517.899 346.4H513.759L509.439 359ZM514.209 353.96L515.649 349.46H516.009L517.449 353.96H514.209ZM523.393 359H526.273V355.22H529.243C531.673 355.22 533.383 353.51 533.383 350.81C533.383 348.11 531.673 346.4 529.243 346.4H523.393V359ZM526.273 352.43V349.19H529.063C529.873 349.19 530.503 349.82 530.503 350.81C530.503 351.8 529.873 352.43 529.063 352.43H526.273ZM534.376 362.6H537.166C537.166 362.6 539.686 359.36 539.686 354.23C539.686 349.1 537.166 345.86 537.166 345.86H534.376C534.376 345.86 536.986 349.1 536.986 354.23C536.986 359.36 534.376 362.6 534.376 362.6Z" fill="url(#paint6_linear)"/>
<g filter="url(#filter0_d)">
<rect x="8" y="394" width="1006" height="210" rx="6" fill="white"/>
</g>
<rect x="52" y="424" width="140" height="118" rx="6" fill="url(#paint7_linear)"/>
<path d="M102.245 477H110.795V474.21H105.125V464.4H102.245V477ZM116.106 477.18C118.896 477.18 120.876 475.2 120.876 472.41C120.876 469.62 118.896 467.64 116.106 467.64C113.316 467.64 111.336 469.62 111.336 472.41C111.336 475.2 113.316 477.18 116.106 477.18ZM116.106 474.66C114.936 474.66 114.036 473.76 114.036 472.41C114.036 471.06 114.936 470.16 116.106 470.16C117.276 470.16 118.176 471.06 118.176 472.41C118.176 473.76 117.276 474.66 116.106 474.66ZM125.549 477.18C127.259 477.18 128.069 476.19 128.069 476.19H128.159L128.339 477H130.679V471.132C130.679 469.08 129.239 467.64 126.539 467.64C124.019 467.64 122.669 468.99 122.489 470.61H125.099C125.099 470.61 125.369 469.8 126.539 469.8C127.439 469.8 127.979 470.34 127.979 471.15V471.33H125.909C123.389 471.33 122.129 472.59 122.129 474.3C122.129 475.92 123.389 477.18 125.549 477.18ZM126.089 475.11C125.279 475.11 124.829 474.66 124.829 474.12C124.829 473.58 125.279 473.13 126.269 473.13H127.979V473.31C127.979 474.39 127.259 475.11 126.089 475.11ZM136.717 477.18C138.517 477.18 139.237 476.1 139.237 476.1H139.327L139.507 477H141.847V464.4H139.147V468.54H139.057C139.057 468.54 138.337 467.64 136.717 467.64C134.287 467.64 132.307 469.62 132.307 472.41C132.307 475.2 134.287 477.18 136.717 477.18ZM137.077 474.66C135.907 474.66 135.007 473.76 135.007 472.41C135.007 471.06 135.907 470.16 137.077 470.16C138.247 470.16 139.147 471.06 139.147 472.41C139.147 473.76 138.247 474.66 137.077 474.66ZM80.4485 499H86.7485C88.9985 499 90.4385 497.56 90.4385 495.49C90.4385 493.582 88.9085 492.7 88.9085 492.7V492.61C88.9085 492.61 90.2585 491.746 90.2585 489.91C90.2585 487.84 88.8185 486.4 86.5685 486.4H80.4485V499ZM83.3285 496.48V493.96H86.2985C87.0185 493.96 87.5585 494.5 87.5585 495.22C87.5585 495.94 87.0185 496.48 86.2985 496.48H83.3285ZM83.3285 491.44V488.92H86.1185C86.8385 488.92 87.3785 489.46 87.3785 490.18C87.3785 490.9 86.8385 491.44 86.1185 491.44H83.3285ZM95.385 499.18C97.095 499.18 97.905 498.19 97.905 498.19H97.995L98.175 499H100.515V493.132C100.515 491.08 99.075 489.64 96.375 489.64C93.855 489.64 92.505 490.99 92.325 492.61H94.935C94.935 492.61 95.205 491.8 96.375 491.8C97.275 491.8 97.815 492.34 97.815 493.15V493.33H95.745C93.225 493.33 91.965 494.59 91.965 496.3C91.965 497.92 93.225 499.18 95.385 499.18ZM95.925 497.11C95.115 497.11 94.665 496.66 94.665 496.12C94.665 495.58 95.115 495.13 96.105 495.13H97.815V495.31C97.815 496.39 97.095 497.11 95.925 497.11ZM102.683 499H105.383V486.4H102.683V499ZM110.608 499.18C112.318 499.18 113.128 498.19 113.128 498.19H113.218L113.398 499H115.738V493.132C115.738 491.08 114.298 489.64 111.598 489.64C109.078 489.64 107.728 490.99 107.548 492.61H110.158C110.158 492.61 110.428 491.8 111.598 491.8C112.498 491.8 113.038 492.34 113.038 493.15V493.33H110.968C108.448 493.33 107.188 494.59 107.188 496.3C107.188 497.92 108.448 499.18 110.608 499.18ZM111.148 497.11C110.338 497.11 109.888 496.66 109.888 496.12C109.888 495.58 110.338 495.13 111.328 495.13H113.038V495.31C113.038 496.39 112.318 497.11 111.148 497.11ZM117.815 499H120.515V493.96C120.515 492.97 121.235 492.25 122.225 492.25C123.215 492.25 123.935 492.97 123.935 493.96V499H126.635V493.42C126.635 491.17 125.105 489.64 122.945 489.64C121.235 489.64 120.425 490.63 120.425 490.63H120.335L120.155 489.82H117.815V499ZM133.034 499.18C137.084 499.18 137.624 495.4 137.624 495.4H134.834C134.834 495.4 134.474 496.66 133.034 496.66C131.864 496.66 130.964 495.76 130.964 494.41C130.964 493.06 131.864 492.16 133.034 492.16C134.474 492.16 134.834 493.42 134.834 493.42H137.624C137.624 493.42 137.084 489.64 133.034 489.64C130.244 489.64 128.264 491.62 128.264 494.41C128.264 497.2 130.244 499.18 133.034 499.18ZM139.243 499H141.943V489.82H139.243V499ZM139.243 488.488H141.943V486.148H139.243V488.488ZM144.095 499H146.795V493.96C146.795 492.97 147.515 492.25 148.505 492.25C149.495 492.25 150.215 492.97 150.215 493.96V499H152.915V493.42C152.915 491.17 151.385 489.64 149.225 489.64C147.515 489.64 146.705 490.63 146.705 490.63H146.615L146.435 489.82H144.095V499ZM159.223 502.69C162.193 502.69 163.723 501.16 163.723 498.64V489.82H161.383L161.203 490.72H161.113C161.113 490.72 160.393 489.64 158.773 489.64C156.343 489.64 154.543 491.44 154.543 494.05C154.543 496.66 156.343 498.46 158.773 498.46C160.213 498.46 160.933 497.56 160.933 497.56H161.023V498.64C161.023 499.72 160.393 500.35 159.223 500.35C157.783 500.35 157.513 499.36 157.513 499.36H154.723C154.723 499.36 154.993 502.69 159.223 502.69ZM159.133 495.94C158.053 495.94 157.243 495.13 157.243 494.05C157.243 492.97 158.053 492.16 159.133 492.16C160.213 492.16 161.023 492.97 161.023 494.05C161.023 495.13 160.213 495.94 159.133 495.94Z" fill="white"/>
<path d="M122 561.75C115.79 561.75 110.75 566.79 110.75 573C110.75 579.21 115.79 584.25 122 584.25C128.21 584.25 133.25 579.21 133.25 573C133.25 566.79 128.21 561.75 122 561.75ZM118.951 577.826L115.297 574.125C115.193 574.021 115.11 573.897 115.054 573.761C114.998 573.625 114.969 573.479 114.969 573.332C114.969 573.185 114.998 573.039 115.054 572.903C115.11 572.767 115.193 572.643 115.297 572.539C115.401 572.435 115.525 572.352 115.661 572.296C115.797 572.239 115.943 572.21 116.09 572.21C116.238 572.21 116.384 572.239 116.52 572.296C116.656 572.352 116.779 572.435 116.884 572.539L119.75 575.441L125.991 569.375C126.202 569.165 126.487 569.047 126.785 569.047C127.082 569.047 127.367 569.165 127.578 569.375C127.788 569.585 127.906 569.871 127.906 570.168C127.906 570.466 127.788 570.751 127.578 570.961L120.537 577.826C120.433 577.931 120.31 578.013 120.174 578.07C120.038 578.126 119.892 578.155 119.744 578.155C119.597 578.155 119.451 578.126 119.315 578.07C119.179 578.013 119.055 577.931 118.951 577.826Z" fill="url(#paint8_linear)"/>
<path d="M278 561.75C271.79 561.75 266.75 566.79 266.75 573C266.75 579.21 271.79 584.25 278 584.25C284.21 584.25 289.25 579.21 289.25 573C289.25 566.79 284.21 561.75 278 561.75ZM274.951 577.826L271.297 574.125C271.193 574.021 271.11 573.897 271.054 573.761C270.998 573.625 270.969 573.479 270.969 573.332C270.969 573.185 270.998 573.039 271.054 572.903C271.11 572.767 271.193 572.643 271.297 572.539C271.401 572.435 271.525 572.352 271.661 572.296C271.797 572.239 271.943 572.21 272.09 572.21C272.238 572.21 272.384 572.239 272.52 572.296C272.656 572.352 272.779 572.435 272.884 572.539L275.75 575.441L281.991 569.375C282.202 569.165 282.487 569.047 282.785 569.047C283.082 569.047 283.367 569.165 283.578 569.375C283.788 569.585 283.906 569.871 283.906 570.168C283.906 570.466 283.788 570.751 283.578 570.961L276.537 577.826C276.433 577.931 276.31 578.013 276.174 578.07C276.038 578.126 275.892 578.155 275.744 578.155C275.597 578.155 275.451 578.126 275.315 578.07C275.179 578.013 275.055 577.931 274.951 577.826Z" fill="url(#paint9_linear)"/>
<path d="M433 561.75C426.79 561.75 421.75 566.79 421.75 573C421.75 579.21 426.79 584.25 433 584.25C439.21 584.25 444.25 579.21 444.25 573C444.25 566.79 439.21 561.75 433 561.75ZM429.951 577.826L426.297 574.125C426.193 574.021 426.11 573.897 426.054 573.761C425.998 573.625 425.969 573.479 425.969 573.332C425.969 573.185 425.998 573.039 426.054 572.903C426.11 572.767 426.193 572.643 426.297 572.539C426.401 572.435 426.525 572.352 426.661 572.296C426.797 572.239 426.943 572.21 427.09 572.21C427.238 572.21 427.384 572.239 427.52 572.296C427.656 572.352 427.779 572.435 427.884 572.539L430.75 575.441L436.991 569.375C437.202 569.165 437.487 569.047 437.785 569.047C438.082 569.047 438.367 569.165 438.578 569.375C438.788 569.585 438.906 569.871 438.906 570.168C438.906 570.466 438.788 570.751 438.578 570.961L431.537 577.826C431.433 577.931 431.31 578.013 431.174 578.07C431.038 578.126 430.892 578.155 430.744 578.155C430.597 578.155 430.451 578.126 430.315 578.07C430.179 578.013 430.055 577.931 429.951 577.826Z" fill="url(#paint10_linear)"/>
<path d="M589 561.75C582.79 561.75 577.75 566.79 577.75 573C577.75 579.21 582.79 584.25 589 584.25C595.21 584.25 600.25 579.21 600.25 573C600.25 566.79 595.21 561.75 589 561.75ZM585.951 577.826L582.297 574.125C582.193 574.021 582.11 573.897 582.054 573.761C581.998 573.625 581.969 573.479 581.969 573.332C581.969 573.185 581.998 573.039 582.054 572.903C582.11 572.767 582.193 572.643 582.297 572.539C582.401 572.435 582.525 572.352 582.661 572.296C582.797 572.239 582.943 572.21 583.09 572.21C583.238 572.21 583.384 572.239 583.52 572.296C583.656 572.352 583.779 572.435 583.884 572.539L586.75 575.441L592.991 569.375C593.202 569.165 593.487 569.047 593.785 569.047C594.082 569.047 594.367 569.165 594.578 569.375C594.788 569.585 594.906 569.871 594.906 570.168C594.906 570.466 594.788 570.751 594.578 570.961L587.537 577.826C587.433 577.931 587.31 578.013 587.174 578.07C587.038 578.126 586.892 578.155 586.744 578.155C586.597 578.155 586.451 578.126 586.315 578.07C586.179 578.013 586.055 577.931 585.951 577.826Z" fill="url(#paint11_linear)"/>
<path d="M745 561.75C738.79 561.75 733.75 566.79 733.75 573C733.75 579.21 738.79 584.25 745 584.25C751.21 584.25 756.25 579.21 756.25 573C756.25 566.79 751.21 561.75 745 561.75ZM741.951 577.826L738.297 574.125C738.193 574.021 738.11 573.897 738.054 573.761C737.998 573.625 737.969 573.479 737.969 573.332C737.969 573.185 737.998 573.039 738.054 572.903C738.11 572.767 738.193 572.643 738.297 572.539C738.401 572.435 738.525 572.352 738.661 572.296C738.797 572.239 738.943 572.21 739.09 572.21C739.238 572.21 739.384 572.239 739.52 572.296C739.656 572.352 739.779 572.435 739.884 572.539L742.75 575.441L748.991 569.375C749.202 569.165 749.487 569.047 749.785 569.047C750.082 569.047 750.367 569.165 750.578 569.375C750.788 569.585 750.906 569.871 750.906 570.168C750.906 570.466 750.788 570.751 750.578 570.961L743.537 577.826C743.433 577.931 743.31 578.013 743.174 578.07C743.038 578.126 742.892 578.155 742.744 578.155C742.597 578.155 742.451 578.126 742.315 578.07C742.179 578.013 742.055 577.931 741.951 577.826Z" fill="url(#paint12_linear)"/>
<path d="M900 561.75C893.79 561.75 888.75 566.79 888.75 573C888.75 579.21 893.79 584.25 900 584.25C906.21 584.25 911.25 579.21 911.25 573C911.25 566.79 906.21 561.75 900 561.75ZM896.951 577.826L893.297 574.125C893.193 574.021 893.11 573.897 893.054 573.761C892.998 573.625 892.969 573.479 892.969 573.332C892.969 573.185 892.998 573.039 893.054 572.903C893.11 572.767 893.193 572.643 893.297 572.539C893.401 572.435 893.525 572.352 893.661 572.296C893.797 572.239 893.943 572.21 894.09 572.21C894.238 572.21 894.384 572.239 894.52 572.296C894.656 572.352 894.779 572.435 894.884 572.539L897.75 575.441L903.991 569.375C904.202 569.165 904.487 569.047 904.785 569.047C905.082 569.047 905.367 569.165 905.578 569.375C905.788 569.585 905.906 569.871 905.906 570.168C905.906 570.466 905.788 570.751 905.578 570.961L898.537 577.826C898.433 577.931 898.31 578.013 898.174 578.07C898.038 578.126 897.892 578.155 897.744 578.155C897.597 578.155 897.451 578.126 897.315 578.07C897.179 578.013 897.055 577.931 896.951 577.826Z" fill="url(#paint13_linear)"/>
<rect x="208" y="424" width="139" height="118" rx="6" fill="url(#paint14_linear)"/>
<path d="M233.854 488.18C238.804 488.18 239.614 483.23 239.614 483.23H236.734C236.734 483.23 236.284 485.39 233.854 485.39C232.054 485.39 230.614 483.95 230.614 481.7C230.614 479.45 232.054 478.01 233.854 478.01C236.194 478.01 236.734 480.08 236.734 480.08H239.614C239.614 480.08 238.714 475.22 233.854 475.22C230.434 475.22 227.734 477.92 227.734 481.7C227.734 485.48 230.434 488.18 233.854 488.18ZM245.562 488.18C248.352 488.18 250.332 486.2 250.332 483.41C250.332 480.62 248.352 478.64 245.562 478.64C242.772 478.64 240.792 480.62 240.792 483.41C240.792 486.2 242.772 488.18 245.562 488.18ZM245.562 485.66C244.392 485.66 243.492 484.76 243.492 483.41C243.492 482.06 244.392 481.16 245.562 481.16C246.732 481.16 247.632 482.06 247.632 483.41C247.632 484.76 246.732 485.66 245.562 485.66ZM252.035 488H254.735V482.78C254.735 481.79 255.275 481.25 256.085 481.25C256.895 481.25 257.435 481.79 257.435 482.78V488H260.135V482.78C260.135 481.79 260.693 481.25 261.485 481.25C262.295 481.25 262.835 481.79 262.835 482.78V488H265.535V482.42C265.535 480.17 264.005 478.64 262.025 478.64C260.225 478.64 259.415 479.9 259.415 479.9H259.325C259.325 479.9 258.605 478.64 256.805 478.64C255.455 478.64 254.645 479.63 254.645 479.63H254.555L254.375 478.82H252.035V488ZM267.609 491.6H270.309V487.28H270.399C270.399 487.28 271.119 488.18 272.739 488.18C275.169 488.18 277.149 486.2 277.149 483.41C277.149 480.62 275.169 478.64 272.739 478.64C270.939 478.64 270.219 479.72 270.219 479.72H270.129L269.949 478.82H267.609V491.6ZM272.379 485.66C271.209 485.66 270.309 484.76 270.309 483.41C270.309 482.06 271.209 481.16 272.379 481.16C273.549 481.16 274.449 482.06 274.449 483.41C274.449 484.76 273.549 485.66 272.379 485.66ZM278.949 488H281.649V475.4H278.949V488ZM283.904 488H286.604V478.82H283.904V488ZM283.904 477.488H286.604V475.148H283.904V477.488ZM291.726 488.18C293.436 488.18 294.246 487.19 294.246 487.19H294.336L294.516 488H296.856V482.132C296.856 480.08 295.416 478.64 292.716 478.64C290.196 478.64 288.846 479.99 288.666 481.61H291.276C291.276 481.61 291.546 480.8 292.716 480.8C293.616 480.8 294.156 481.34 294.156 482.15V482.33H292.086C289.566 482.33 288.306 483.59 288.306 485.3C288.306 486.92 289.566 488.18 291.726 488.18ZM292.266 486.11C291.456 486.11 291.006 485.66 291.006 485.12C291.006 484.58 291.456 484.13 292.446 484.13H294.156V484.31C294.156 485.39 293.436 486.11 292.266 486.11ZM298.934 488H301.634V482.96C301.634 481.97 302.354 481.25 303.344 481.25C304.334 481.25 305.054 481.97 305.054 482.96V488H307.754V482.42C307.754 480.17 306.224 478.64 304.064 478.64C302.354 478.64 301.544 479.63 301.544 479.63H301.454L301.274 478.82H298.934V488ZM314.152 488.18C318.202 488.18 318.742 484.4 318.742 484.4H315.952C315.952 484.4 315.592 485.66 314.152 485.66C312.982 485.66 312.082 484.76 312.082 483.41C312.082 482.06 312.982 481.16 314.152 481.16C315.592 481.16 315.952 482.42 315.952 482.42H318.742C318.742 482.42 318.202 478.64 314.152 478.64C311.362 478.64 309.382 480.62 309.382 483.41C309.382 486.2 311.362 488.18 314.152 488.18ZM324.681 488.18C328.101 488.18 329.091 485.21 329.091 485.21H326.391C326.391 485.21 325.851 486.02 324.681 486.02C323.511 486.02 322.701 485.21 322.611 484.13H329.271C329.271 484.13 329.361 483.86 329.361 483.23C329.361 480.62 327.381 478.64 324.681 478.64C321.891 478.64 319.911 480.62 319.911 483.41C319.911 486.2 321.891 488.18 324.681 488.18ZM322.611 482.51C322.881 481.34 323.601 480.71 324.681 480.71C325.761 480.71 326.481 481.34 326.751 482.51H322.611Z" fill="white"/>
<rect x="363" y="424" width="140" height="118" rx="6" fill="url(#paint15_linear)"/>
<path d="M402.048 488.18C405.378 488.18 407.088 486.47 407.088 484.31C407.088 482.15 406.008 481.07 403.488 480.62L401.508 480.26C400.338 480.044 399.978 479.72 399.978 479.09C399.978 478.37 400.608 477.74 401.868 477.74C403.272 477.74 404.118 478.568 404.118 479.54H406.998C406.998 477.02 405.198 475.22 401.868 475.22C398.808 475.22 397.098 476.93 397.098 479.09C397.098 481.07 398.178 482.186 400.428 482.6L402.408 482.96C403.758 483.212 404.208 483.68 404.208 484.31C404.208 485.03 403.578 485.66 402.048 485.66C400.518 485.66 399.708 484.85 399.708 483.86H396.828C396.828 486.29 398.718 488.18 402.048 488.18ZM413.202 488.18C416.622 488.18 417.612 485.21 417.612 485.21H414.912C414.912 485.21 414.372 486.02 413.202 486.02C412.032 486.02 411.222 485.21 411.132 484.13H417.792C417.792 484.13 417.882 483.86 417.882 483.23C417.882 480.62 415.902 478.64 413.202 478.64C410.412 478.64 408.432 480.62 408.432 483.41C408.432 486.2 410.412 488.18 413.202 488.18ZM411.132 482.51C411.402 481.34 412.122 480.71 413.202 480.71C414.282 480.71 415.002 481.34 415.272 482.51H411.132ZM423.907 488.18C427.957 488.18 428.497 484.4 428.497 484.4H425.707C425.707 484.4 425.347 485.66 423.907 485.66C422.737 485.66 421.837 484.76 421.837 483.41C421.837 482.06 422.737 481.16 423.907 481.16C425.347 481.16 425.707 482.42 425.707 482.42H428.497C428.497 482.42 427.957 478.64 423.907 478.64C421.117 478.64 419.137 480.62 419.137 483.41C419.137 486.2 421.117 488.18 423.907 488.18ZM433.806 488.18C435.516 488.18 436.326 487.19 436.326 487.19H436.416L436.596 488H438.936V478.82H436.236V483.86C436.236 484.85 435.516 485.57 434.526 485.57C433.536 485.57 432.816 484.85 432.816 483.86V478.82H430.116V484.4C430.116 486.65 431.646 488.18 433.806 488.18ZM441.102 488H443.802V482.96C443.802 481.88 444.342 481.34 445.422 481.34H447.042V478.82H445.332C444.162 478.82 443.712 479.54 443.712 479.54H443.622L443.442 478.82H441.102V488ZM448.397 488H451.097V478.82H448.397V488ZM448.397 477.488H451.097V475.148H448.397V477.488ZM456.759 488H458.919V485.48H457.479C457.029 485.48 456.849 485.3 456.849 484.85V481.34H458.919V478.82H456.849V475.94H454.149V478.82H452.709V481.34H454.149V485.48C454.149 487.1 455.049 488 456.759 488ZM460.895 491.6H462.785C464.855 491.6 465.485 490.97 466.025 489.44L469.805 478.82H466.925L465.125 484.58H464.765L462.605 478.82H459.725L463.415 488.45L463.325 488.72C463.271 488.9 463.145 489.08 462.695 489.08H460.895V491.6Z" fill="white"/>
<rect x="519" y="424" width="140" height="118" rx="6" fill="url(#paint16_linear)"/>
<path d="M539.138 477H542.288L543.098 474.48H547.958L548.768 477H551.918L547.598 464.4H543.458L539.138 477ZM543.908 471.96L545.348 467.46H545.708L547.148 471.96H543.908ZM552.911 480.6H555.611V476.28H555.701C555.701 476.28 556.421 477.18 558.041 477.18C560.471 477.18 562.451 475.2 562.451 472.41C562.451 469.62 560.471 467.64 558.041 467.64C556.241 467.64 555.521 468.72 555.521 468.72H555.431L555.251 467.82H552.911V480.6ZM557.681 474.66C556.511 474.66 555.611 473.76 555.611 472.41C555.611 471.06 556.511 470.16 557.681 470.16C558.851 470.16 559.751 471.06 559.751 472.41C559.751 473.76 558.851 474.66 557.681 474.66ZM564.161 480.6H566.861V476.28H566.951C566.951 476.28 567.671 477.18 569.291 477.18C571.721 477.18 573.701 475.2 573.701 472.41C573.701 469.62 571.721 467.64 569.291 467.64C567.491 467.64 566.771 468.72 566.771 468.72H566.681L566.501 467.82H564.161V480.6ZM568.931 474.66C567.761 474.66 566.861 473.76 566.861 472.41C566.861 471.06 567.761 470.16 568.931 470.16C570.101 470.16 571.001 471.06 571.001 472.41C571.001 473.76 570.101 474.66 568.931 474.66ZM575.501 477H578.201V464.4H575.501V477ZM580.456 477H583.156V467.82H580.456V477ZM580.456 466.488H583.156V464.148H580.456V466.488ZM589.628 477.18C593.678 477.18 594.218 473.4 594.218 473.4H591.428C591.428 473.4 591.068 474.66 589.628 474.66C588.458 474.66 587.558 473.76 587.558 472.41C587.558 471.06 588.458 470.16 589.628 470.16C591.068 470.16 591.428 471.42 591.428 471.42H594.218C594.218 471.42 593.678 467.64 589.628 467.64C586.838 467.64 584.858 469.62 584.858 472.41C584.858 475.2 586.838 477.18 589.628 477.18ZM598.807 477.18C600.517 477.18 601.327 476.19 601.327 476.19H601.417L601.597 477H603.937V471.132C603.937 469.08 602.497 467.64 599.797 467.64C597.277 467.64 595.927 468.99 595.747 470.61H598.357C598.357 470.61 598.627 469.8 599.797 469.8C600.697 469.8 601.237 470.34 601.237 471.15V471.33H599.167C596.647 471.33 595.387 472.59 595.387 474.3C595.387 475.92 596.647 477.18 598.807 477.18ZM599.347 475.11C598.537 475.11 598.087 474.66 598.087 474.12C598.087 473.58 598.537 473.13 599.527 473.13H601.237V473.31C601.237 474.39 600.517 475.11 599.347 475.11ZM609.173 477H611.333V474.48H609.893C609.443 474.48 609.263 474.3 609.263 473.85V470.34H611.333V467.82H609.263V464.94H606.563V467.82H605.123V470.34H606.563V474.48C606.563 476.1 607.463 477 609.173 477ZM613.309 477H616.009V467.82H613.309V477ZM613.309 466.488H616.009V464.148H613.309V466.488ZM622.481 477.18C625.271 477.18 627.251 475.2 627.251 472.41C627.251 469.62 625.271 467.64 622.481 467.64C619.691 467.64 617.711 469.62 617.711 472.41C617.711 475.2 619.691 477.18 622.481 477.18ZM622.481 474.66C621.311 474.66 620.411 473.76 620.411 472.41C620.411 471.06 621.311 470.16 622.481 470.16C623.651 470.16 624.551 471.06 624.551 472.41C624.551 473.76 623.651 474.66 622.481 474.66ZM628.954 477H631.654V471.96C631.654 470.97 632.374 470.25 633.364 470.25C634.354 470.25 635.074 470.97 635.074 471.96V477H637.774V471.42C637.774 469.17 636.244 467.64 634.084 467.64C632.374 467.64 631.564 468.63 631.564 468.63H631.474L631.294 467.82H628.954V477ZM565.466 499.18C568.796 499.18 570.506 497.47 570.506 495.31C570.506 493.15 569.426 492.07 566.906 491.62L564.926 491.26C563.756 491.044 563.396 490.72 563.396 490.09C563.396 489.37 564.026 488.74 565.286 488.74C566.69 488.74 567.536 489.568 567.536 490.54H570.416C570.416 488.02 568.616 486.22 565.286 486.22C562.226 486.22 560.516 487.93 560.516 490.09C560.516 492.07 561.596 493.186 563.846 493.6L565.826 493.96C567.176 494.212 567.626 494.68 567.626 495.31C567.626 496.03 566.996 496.66 565.466 496.66C563.936 496.66 563.126 495.85 563.126 494.86H560.246C560.246 497.29 562.136 499.18 565.466 499.18ZM572.39 499H575.09V486.4H572.39V499ZM577.345 499H580.045V489.82H577.345V499ZM577.345 488.488H580.045V486.148H577.345V488.488ZM586.516 499.18C590.566 499.18 591.106 495.4 591.106 495.4H588.316C588.316 495.4 587.956 496.66 586.516 496.66C585.346 496.66 584.446 495.76 584.446 494.41C584.446 493.06 585.346 492.16 586.516 492.16C587.956 492.16 588.316 493.42 588.316 493.42H591.106C591.106 493.42 590.566 489.64 586.516 489.64C583.726 489.64 581.746 491.62 581.746 494.41C581.746 497.2 583.726 499.18 586.516 499.18ZM592.726 499H595.426V489.82H592.726V499ZM592.726 488.488H595.426V486.148H592.726V488.488ZM597.577 499H600.277V493.96C600.277 492.97 600.997 492.25 601.987 492.25C602.977 492.25 603.697 492.97 603.697 493.96V499H606.397V493.42C606.397 491.17 604.867 489.64 602.707 489.64C600.997 489.64 600.187 490.63 600.187 490.63H600.097L599.917 489.82H597.577V499ZM612.706 502.69C615.676 502.69 617.206 501.16 617.206 498.64V489.82H614.866L614.686 490.72H614.596C614.596 490.72 613.876 489.64 612.256 489.64C609.826 489.64 608.026 491.44 608.026 494.05C608.026 496.66 609.826 498.46 612.256 498.46C613.696 498.46 614.416 497.56 614.416 497.56H614.506V498.64C614.506 499.72 613.876 500.35 612.706 500.35C611.266 500.35 610.996 499.36 610.996 499.36H608.206C608.206 499.36 608.476 502.69 612.706 502.69ZM612.616 495.94C611.536 495.94 610.726 495.13 610.726 494.05C610.726 492.97 611.536 492.16 612.616 492.16C613.696 492.16 614.506 492.97 614.506 494.05C614.506 495.13 613.696 495.94 612.616 495.94Z" fill="white"/>
<rect x="675" y="424" width="139" height="118" rx="6" fill="url(#paint17_linear)"/>
<path d="M686.33 488H689.48L690.29 485.48H695.15L695.96 488H699.11L694.79 475.4H690.65L686.33 488ZM691.1 482.96L692.54 478.46H692.9L694.34 482.96H691.1ZM700.283 488H703.163V475.4H700.283V488ZM710.531 488H713.411V480.26H713.771L716.291 488H718.991L721.511 480.26H721.871V488H724.751V475.4H720.341L717.821 483.23H717.461L714.941 475.4H710.531V488ZM731.406 488.18C734.196 488.18 736.176 486.2 736.176 483.41C736.176 480.62 734.196 478.64 731.406 478.64C728.616 478.64 726.636 480.62 726.636 483.41C726.636 486.2 728.616 488.18 731.406 488.18ZM731.406 485.66C730.236 485.66 729.336 484.76 729.336 483.41C729.336 482.06 730.236 481.16 731.406 481.16C732.576 481.16 733.476 482.06 733.476 483.41C733.476 484.76 732.576 485.66 731.406 485.66ZM737.879 488H740.579V482.96C740.579 481.97 741.299 481.25 742.289 481.25C743.279 481.25 743.999 481.97 743.999 482.96V488H746.699V482.42C746.699 480.17 745.169 478.64 743.009 478.64C741.299 478.64 740.489 479.63 740.489 479.63H740.399L740.219 478.82H737.879V488ZM748.777 488H751.477V478.82H748.777V488ZM748.777 477.488H751.477V475.148H748.777V477.488ZM757.139 488H759.299V485.48H757.859C757.409 485.48 757.229 485.3 757.229 484.85V481.34H759.299V478.82H757.229V475.94H754.529V478.82H753.089V481.34H754.529V485.48C754.529 487.1 755.429 488 757.139 488ZM765.244 488.18C768.034 488.18 770.014 486.2 770.014 483.41C770.014 480.62 768.034 478.64 765.244 478.64C762.454 478.64 760.474 480.62 760.474 483.41C760.474 486.2 762.454 488.18 765.244 488.18ZM765.244 485.66C764.074 485.66 763.174 484.76 763.174 483.41C763.174 482.06 764.074 481.16 765.244 481.16C766.414 481.16 767.314 482.06 767.314 483.41C767.314 484.76 766.414 485.66 765.244 485.66ZM771.717 488H774.417V482.96C774.417 481.88 774.957 481.34 776.037 481.34H777.657V478.82H775.947C774.777 478.82 774.327 479.54 774.327 479.54H774.237L774.057 478.82H771.717V488ZM779.012 488H781.712V478.82H779.012V488ZM779.012 477.488H781.712V475.148H779.012V477.488ZM783.863 488H786.563V482.96C786.563 481.97 787.283 481.25 788.273 481.25C789.263 481.25 789.983 481.97 789.983 482.96V488H792.683V482.42C792.683 480.17 791.153 478.64 788.993 478.64C787.283 478.64 786.473 479.63 786.473 479.63H786.383L786.203 478.82H783.863V488ZM798.992 491.69C801.962 491.69 803.492 490.16 803.492 487.64V478.82H801.152L800.972 479.72H800.882C800.882 479.72 800.162 478.64 798.542 478.64C796.112 478.64 794.312 480.44 794.312 483.05C794.312 485.66 796.112 487.46 798.542 487.46C799.982 487.46 800.702 486.56 800.702 486.56H800.792V487.64C800.792 488.72 800.162 489.35 798.992 489.35C797.552 489.35 797.282 488.36 797.282 488.36H794.492C794.492 488.36 794.762 491.69 798.992 491.69ZM798.902 484.94C797.822 484.94 797.012 484.13 797.012 483.05C797.012 481.97 797.822 481.16 798.902 481.16C799.982 481.16 800.792 481.97 800.792 483.05C800.792 484.13 799.982 484.94 798.902 484.94Z" fill="white"/>
<rect x="830" y="424" width="140" height="118" rx="6" fill="url(#paint18_linear)"/>
<path d="M862.213 477H865.363L866.173 474.48H871.033L871.843 477H874.993L870.673 464.4H866.533L862.213 477ZM866.983 471.96L868.423 467.46H868.783L870.223 471.96H866.983ZM876.166 477H879.046V464.4H876.166V477ZM886.414 477H892.714C894.964 477 896.404 475.56 896.404 473.49C896.404 471.582 894.874 470.7 894.874 470.7V470.61C894.874 470.61 896.224 469.746 896.224 467.91C896.224 465.84 894.784 464.4 892.534 464.4H886.414V477ZM889.294 474.48V471.96H892.264C892.984 471.96 893.524 472.5 893.524 473.22C893.524 473.94 892.984 474.48 892.264 474.48H889.294ZM889.294 469.44V466.92H892.084C892.804 466.92 893.344 467.46 893.344 468.18C893.344 468.9 892.804 469.44 892.084 469.44H889.294ZM901.351 477.18C903.061 477.18 903.871 476.19 903.871 476.19H903.961L904.141 477H906.481V471.132C906.481 469.08 905.041 467.64 902.341 467.64C899.821 467.64 898.471 468.99 898.291 470.61H900.901C900.901 470.61 901.171 469.8 902.341 469.8C903.241 469.8 903.781 470.34 903.781 471.15V471.33H901.711C899.191 471.33 897.931 472.59 897.931 474.3C897.931 475.92 899.191 477.18 901.351 477.18ZM901.891 475.11C901.081 475.11 900.631 474.66 900.631 474.12C900.631 473.58 901.081 473.13 902.071 473.13H903.781V473.31C903.781 474.39 903.061 475.11 901.891 475.11ZM912.069 477.18C914.769 477.18 916.119 475.83 916.119 474.3C916.119 472.68 915.129 471.69 913.059 471.42L911.709 471.24C910.899 471.132 910.629 470.88 910.629 470.52C910.629 470.07 911.079 469.71 911.979 469.71C913.239 469.71 913.419 470.52 913.419 470.52H916.029C916.029 470.52 915.849 467.64 911.979 467.64C909.369 467.64 908.019 468.99 908.019 470.52C908.019 472.05 908.919 472.932 911.079 473.22L912.429 473.4C913.239 473.508 913.509 473.76 913.509 474.3C913.509 474.75 913.059 475.2 912.069 475.2C910.539 475.2 910.539 474.12 910.539 474.12H907.929C907.929 474.12 907.929 477.18 912.069 477.18ZM922.054 477.18C925.474 477.18 926.464 474.21 926.464 474.21H923.764C923.764 474.21 923.224 475.02 922.054 475.02C920.884 475.02 920.074 474.21 919.984 473.13H926.644C926.644 473.13 926.734 472.86 926.734 472.23C926.734 469.62 924.754 467.64 922.054 467.64C919.264 467.64 917.284 469.62 917.284 472.41C917.284 475.2 919.264 477.18 922.054 477.18ZM919.984 471.51C920.254 470.34 920.974 469.71 922.054 469.71C923.134 469.71 923.854 470.34 924.124 471.51H919.984ZM932.399 477.18C934.199 477.18 934.919 476.1 934.919 476.1H935.009L935.189 477H937.529V464.4H934.829V468.54H934.739C934.739 468.54 934.019 467.64 932.399 467.64C929.969 467.64 927.989 469.62 927.989 472.41C927.989 475.2 929.969 477.18 932.399 477.18ZM932.759 474.66C931.589 474.66 930.689 473.76 930.689 472.41C930.689 471.06 931.589 470.16 932.759 470.16C933.929 470.16 934.829 471.06 934.829 472.41C934.829 473.76 933.929 474.66 932.759 474.66ZM867.781 499H870.661V494.95H871.021L874.621 499H878.221L874.351 494.77C874.351 494.77 877.861 494.59 877.861 490.72C877.861 488.11 876.151 486.4 873.721 486.4H867.781V499ZM870.661 492.34V489.1H873.541C874.351 489.1 874.981 489.73 874.981 490.72C874.981 491.71 874.351 492.34 873.541 492.34H870.661ZM883.804 499.18C886.594 499.18 888.574 497.2 888.574 494.41C888.574 491.62 886.594 489.64 883.804 489.64C881.014 489.64 879.034 491.62 879.034 494.41C879.034 497.2 881.014 499.18 883.804 499.18ZM883.804 496.66C882.634 496.66 881.734 495.76 881.734 494.41C881.734 493.06 882.634 492.16 883.804 492.16C884.974 492.16 885.874 493.06 885.874 494.41C885.874 495.76 884.974 496.66 883.804 496.66ZM893.967 499.18C895.677 499.18 896.487 498.19 896.487 498.19H896.577L896.757 499H899.097V489.82H896.397V494.86C896.397 495.85 895.677 496.57 894.687 496.57C893.697 496.57 892.977 495.85 892.977 494.86V489.82H890.277V495.4C890.277 497.65 891.807 499.18 893.967 499.18ZM904.774 499H906.934V496.48H905.494C905.044 496.48 904.864 496.3 904.864 495.85V492.34H906.934V489.82H904.864V486.94H902.164V489.82H900.724V492.34H902.164V496.48C902.164 498.1 903.064 499 904.774 499ZM908.91 499H911.61V489.82H908.91V499ZM908.91 488.488H911.61V486.148H908.91V488.488ZM913.762 499H916.462V493.96C916.462 492.97 917.182 492.25 918.172 492.25C919.162 492.25 919.882 492.97 919.882 493.96V499H922.582V493.42C922.582 491.17 921.052 489.64 918.892 489.64C917.182 489.64 916.372 490.63 916.372 490.63H916.282L916.102 489.82H913.762V499ZM928.89 502.69C931.86 502.69 933.39 501.16 933.39 498.64V489.82H931.05L930.87 490.72H930.78C930.78 490.72 930.06 489.64 928.44 489.64C926.01 489.64 924.21 491.44 924.21 494.05C924.21 496.66 926.01 498.46 928.44 498.46C929.88 498.46 930.6 497.56 930.6 497.56H930.69V498.64C930.69 499.72 930.06 500.35 928.89 500.35C927.45 500.35 927.18 499.36 927.18 499.36H924.39C924.39 499.36 924.66 502.69 928.89 502.69ZM928.8 495.94C927.72 495.94 926.91 495.13 926.91 494.05C926.91 492.97 927.72 492.16 928.8 492.16C929.88 492.16 930.69 492.97 930.69 494.05C930.69 495.13 929.88 495.94 928.8 495.94Z" fill="white"/>
<path d="M630.04 264.18C631.84 264.18 632.56 263.1 632.56 263.1H632.65L632.83 264H635.17V251.4H632.47V255.54H632.38C632.38 255.54 631.66 254.64 630.04 254.64C627.61 254.64 625.63 256.62 625.63 259.41C625.63 262.2 627.61 264.18 630.04 264.18ZM630.4 261.66C629.23 261.66 628.33 260.76 628.33 259.41C628.33 258.06 629.23 257.16 630.4 257.16C631.57 257.16 632.47 258.06 632.47 259.41C632.47 260.76 631.57 261.66 630.4 261.66ZM637.418 264H640.118V254.82H637.418V264ZM637.418 253.488H640.118V251.148H637.418V253.488ZM645.779 264.18C648.479 264.18 649.829 262.83 649.829 261.3C649.829 259.68 648.839 258.69 646.769 258.42L645.419 258.24C644.609 258.132 644.339 257.88 644.339 257.52C644.339 257.07 644.789 256.71 645.689 256.71C646.949 256.71 647.129 257.52 647.129 257.52H649.739C649.739 257.52 649.559 254.64 645.689 254.64C643.079 254.64 641.729 255.99 641.729 257.52C641.729 259.05 642.629 259.932 644.789 260.22L646.139 260.4C646.949 260.508 647.219 260.76 647.219 261.3C647.219 261.75 646.769 262.2 645.779 262.2C644.249 262.2 644.249 261.12 644.249 261.12H641.639C641.639 261.12 641.639 264.18 645.779 264.18ZM654.604 264H656.764V261.48H655.324C654.874 261.48 654.694 261.3 654.694 260.85V257.34H656.764V254.82H654.694V251.94H651.994V254.82H650.554V257.34H651.994V261.48C651.994 263.1 652.894 264 654.604 264ZM658.74 264H661.44V258.96C661.44 257.88 661.98 257.34 663.06 257.34H664.68V254.82H662.97C661.8 254.82 661.35 255.54 661.35 255.54H661.26L661.08 254.82H658.74V264ZM666.035 264H668.735V254.82H666.035V264ZM666.035 253.488H668.735V251.148H666.035V253.488ZM676.107 264.18C678.537 264.18 680.517 262.2 680.517 259.41C680.517 256.62 678.537 254.64 676.107 254.64C674.487 254.64 673.767 255.54 673.767 255.54H673.677V251.4H670.977V264H673.317L673.497 263.1H673.587C673.587 263.1 674.307 264.18 676.107 264.18ZM675.747 261.66C674.577 261.66 673.677 260.76 673.677 259.41C673.677 258.06 674.577 257.16 675.747 257.16C676.917 257.16 677.817 258.06 677.817 259.41C677.817 260.76 676.917 261.66 675.747 261.66ZM685.915 264.18C687.625 264.18 688.435 263.19 688.435 263.19H688.525L688.705 264H691.045V254.82H688.345V259.86C688.345 260.85 687.625 261.57 686.635 261.57C685.645 261.57 684.925 260.85 684.925 259.86V254.82H682.225V260.4C682.225 262.65 683.755 264.18 685.915 264.18ZM696.721 264H698.881V261.48H697.441C696.991 261.48 696.811 261.3 696.811 260.85V257.34H698.881V254.82H696.811V251.94H694.111V254.82H692.671V257.34H694.111V261.48C694.111 263.1 695.011 264 696.721 264ZM704.826 264.18C708.246 264.18 709.236 261.21 709.236 261.21H706.536C706.536 261.21 705.996 262.02 704.826 262.02C703.656 262.02 702.846 261.21 702.756 260.13H709.416C709.416 260.13 709.506 259.86 709.506 259.23C709.506 256.62 707.526 254.64 704.826 254.64C702.036 254.64 700.056 256.62 700.056 259.41C700.056 262.2 702.036 264.18 704.826 264.18ZM702.756 258.51C703.026 257.34 703.746 256.71 704.826 256.71C705.906 256.71 706.626 257.34 706.896 258.51H702.756ZM715.171 264.18C716.971 264.18 717.691 263.1 717.691 263.1H717.781L717.961 264H720.301V251.4L717.601 251.4V255.54H717.511C717.511 255.54 716.791 254.64 715.171 254.64C712.741 254.64 710.761 256.62 710.761 259.41C710.761 262.2 712.741 264.18 715.171 264.18ZM715.531 261.66C714.361 261.66 713.461 260.76 713.461 259.41C713.461 258.06 714.361 257.16 715.531 257.16C716.701 257.16 717.601 258.06 717.601 259.41C717.601 260.76 716.701 261.66 715.531 261.66ZM730.37 264.18C732.08 264.18 732.89 263.19 732.89 263.19H732.98L733.16 264H735.5V258.132C735.5 256.08 734.06 254.64 731.36 254.64C728.84 254.64 727.49 255.99 727.31 257.61H729.92C729.92 257.61 730.19 256.8 731.36 256.8C732.26 256.8 732.8 257.34 732.8 258.15V258.33H730.73C728.21 258.33 726.95 259.59 726.95 261.3C726.95 262.92 728.21 264.18 730.37 264.18ZM730.91 262.11C730.1 262.11 729.65 261.66 729.65 261.12C729.65 260.58 730.1 260.13 731.09 260.13H732.8V260.31C732.8 261.39 732.08 262.11 730.91 262.11ZM737.578 267.6H740.278V263.28H740.368C740.368 263.28 741.088 264.18 742.708 264.18C745.138 264.18 747.118 262.2 747.118 259.41C747.118 256.62 745.138 254.64 742.708 254.64C740.908 254.64 740.188 255.72 740.188 255.72H740.098L739.918 254.82H737.578V267.6ZM742.348 261.66C741.178 261.66 740.278 260.76 740.278 259.41C740.278 258.06 741.178 257.16 742.348 257.16C743.518 257.16 744.418 258.06 744.418 259.41C744.418 260.76 743.518 261.66 742.348 261.66ZM748.828 267.6H751.528V263.28H751.618C751.618 263.28 752.338 264.18 753.958 264.18C756.388 264.18 758.368 262.2 758.368 259.41C758.368 256.62 756.388 254.64 753.958 254.64C752.158 254.64 751.438 255.72 751.438 255.72H751.348L751.168 254.82H748.828V267.6ZM753.598 261.66C752.428 261.66 751.528 260.76 751.528 259.41C751.528 258.06 752.428 257.16 753.598 257.16C754.768 257.16 755.668 258.06 755.668 259.41C755.668 260.76 754.768 261.66 753.598 261.66ZM760.168 264H762.868V251.4H760.168V264ZM765.123 264H767.823V254.82H765.123V264ZM765.123 253.488H767.823V251.148H765.123V253.488ZM774.295 264.18C778.345 264.18 778.885 260.4 778.885 260.4H776.095C776.095 260.4 775.735 261.66 774.295 261.66C773.125 261.66 772.225 260.76 772.225 259.41C772.225 258.06 773.125 257.16 774.295 257.16C775.735 257.16 776.095 258.42 776.095 258.42H778.885C778.885 258.42 778.345 254.64 774.295 254.64C771.505 254.64 769.525 256.62 769.525 259.41C769.525 262.2 771.505 264.18 774.295 264.18ZM783.474 264.18C785.184 264.18 785.994 263.19 785.994 263.19H786.084L786.264 264H788.604V258.132C788.604 256.08 787.164 254.64 784.464 254.64C781.944 254.64 780.594 255.99 780.414 257.61H783.024C783.024 257.61 783.294 256.8 784.464 256.8C785.364 256.8 785.904 257.34 785.904 258.15V258.33H783.834C781.314 258.33 780.054 259.59 780.054 261.3C780.054 262.92 781.314 264.18 783.474 264.18ZM784.014 262.11C783.204 262.11 782.754 261.66 782.754 261.12C782.754 260.58 783.204 260.13 784.194 260.13H785.904V260.31C785.904 261.39 785.184 262.11 784.014 262.11ZM793.84 264H796V261.48H794.56C794.11 261.48 793.93 261.3 793.93 260.85V257.34H796V254.82H793.93V251.94H791.23V254.82H789.79V257.34H791.23V261.48C791.23 263.1 792.13 264 793.84 264ZM797.976 264H800.676V254.82H797.976V264ZM797.976 253.488H800.676V251.148H797.976V253.488ZM807.148 264.18C809.938 264.18 811.918 262.2 811.918 259.41C811.918 256.62 809.938 254.64 807.148 254.64C804.358 254.64 802.378 256.62 802.378 259.41C802.378 262.2 804.358 264.18 807.148 264.18ZM807.148 261.66C805.978 261.66 805.078 260.76 805.078 259.41C805.078 258.06 805.978 257.16 807.148 257.16C808.318 257.16 809.218 258.06 809.218 259.41C809.218 260.76 808.318 261.66 807.148 261.66ZM813.621 264H816.321V258.96C816.321 257.97 817.041 257.25 818.031 257.25C819.021 257.25 819.741 257.97 819.741 258.96V264H822.441V258.42C822.441 256.17 820.911 254.64 818.751 254.64C817.041 254.64 816.231 255.63 816.231 255.63H816.141L815.961 254.82H813.621V264Z" fill="url(#paint19_linear)"/>
<path d="M444 43V42.9982C443.997 41.0318 442.919 38.7911 441.779 37.3733C440.83 36.1934 439.564 34.8522 437.893 34.2292C436.726 27.6461 431.009 23 424 23C418.498 23 413.59 26.3497 411.276 31.1801C407.028 32.6241 404 36.6288 404 41C404 46.7962 409.342 51 415 51H435C439.572 51 444 47.8068 444 43Z" fill="white" stroke="url(#paint20_linear)" stroke-width="2"/>
<path d="M444 98V97.9982C443.997 96.0318 442.919 93.7911 441.779 92.3733C440.83 91.1934 439.564 89.8522 437.893 89.2292C436.726 82.6461 431.009 78 424 78C418.498 78 413.59 81.3497 411.276 86.1801C407.028 87.6241 404 91.6288 404 96C404 101.796 409.342 106 415 106H435C439.572 106 444 102.807 444 98Z" fill="white" stroke="url(#paint21_linear)" stroke-width="2"/>
<path d="M437 146C436.17 139.608 430.764 135 424 135C418.764 135 414.077 138.285 412 143C407.919 144.192 405 147.951 405 152C405 157.12 409.762 161 415 161H435C439.191 161 443 158.097 443 154C442.997 152.335 442.052 150.309 441 149C439.948 147.691 438.654 146.396 437 146Z" fill="url(#paint22_linear)"/>
<path d="M514 35C513.17 28.6077 507.764 24 501 24C495.764 24 491.077 27.2847 489 32C484.919 33.1923 482 36.9514 482 41C482 46.1201 486.762 50 492 50H512C516.191 50 520 47.0969 520 43C519.997 41.3353 519.052 39.3088 518 38C516.948 36.6912 515.654 35.396 514 35Z" fill="url(#paint23_linear)"/>
<path d="M521 98V97.9982C520.997 96.0318 519.919 93.7911 518.779 92.3733C517.83 91.1934 516.564 89.8522 514.893 89.2292C513.726 82.6461 508.009 78 501 78C495.498 78 490.59 81.3497 488.276 86.1801C484.028 87.6241 481 91.6288 481 96C481 101.796 486.342 106 492 106H512C516.572 106 521 102.807 521 98Z" fill="white" stroke="url(#paint24_linear)" stroke-width="2"/>
<path d="M521 154V153.998C520.997 152.032 519.919 149.791 518.779 148.373C517.83 147.193 516.564 145.852 514.893 145.229C513.726 138.646 508.009 134 501 134C495.498 134 490.59 137.35 488.276 142.18C484.028 143.624 481 147.629 481 152C481 157.796 486.342 162 492 162H512C516.572 162 521 158.807 521 154Z" fill="white" stroke="url(#paint25_linear)" stroke-width="2"/>
<path d="M598 43V42.9982C597.997 41.0318 596.919 38.7911 595.779 37.3733C594.83 36.1934 593.564 34.8522 591.893 34.2292C590.726 27.6461 585.009 23 578 23C572.498 23 567.59 26.3497 565.276 31.1801C561.028 32.6241 558 36.6288 558 41C558 46.7962 563.342 51 569 51H589C593.572 51 598 47.8068 598 43Z" fill="white" stroke="url(#paint26_linear)" stroke-width="2"/>
<path d="M591 90C590.17 83.6077 584.764 79 578 79C572.764 79 568.077 82.2847 566 87C561.919 88.1923 559 91.9514 559 96C559 101.12 563.762 105 569 105H589C593.191 105 597 102.097 597 98C596.997 96.3353 596.052 94.3088 595 93C593.948 91.6912 592.654 90.396 591 90Z" fill="url(#paint27_linear)"/>
<path d="M591 146C590.17 139.608 584.764 135 578 135C572.764 135 568.077 138.285 566 143C561.919 144.192 559 147.951 559 152C559 157.12 563.762 161 569 161H589C593.191 161 597 158.097 597 154C596.997 152.335 596.052 150.309 595 149C593.948 147.691 592.654 146.396 591 146Z" fill="url(#paint28_linear)"/>
<path d="M675 43V42.9982C674.997 41.0318 673.919 38.7911 672.779 37.3733C671.83 36.1934 670.564 34.8522 668.893 34.2292C667.726 27.6461 662.009 23 655 23C649.498 23 644.59 26.3497 642.276 31.1801C638.028 32.6241 635 36.6288 635 41C635 46.7962 640.342 51 646 51H666C670.572 51 675 47.8068 675 43Z" fill="white" stroke="url(#paint29_linear)" stroke-width="2"/>
<path d="M675 98V97.9982C674.997 96.0318 673.919 93.7911 672.779 92.3733C671.83 91.1934 670.564 89.8522 668.893 89.2292C667.726 82.6461 662.009 78 655 78C649.498 78 644.59 81.3497 642.276 86.1801C638.028 87.6241 635 91.6288 635 96C635 101.796 640.342 106 646 106H666C670.572 106 675 102.807 675 98Z" fill="white" stroke="url(#paint30_linear)" stroke-width="2"/>
<path d="M675 154V153.998C674.997 152.032 673.919 149.791 672.779 148.373C671.83 147.193 670.564 145.852 668.893 145.229C667.726 138.646 662.009 134 655 134C649.498 134 644.59 137.35 642.276 142.18C638.028 143.624 635 147.629 635 152C635 157.796 640.342 162 646 162H666C670.572 162 675 158.807 675 154Z" fill="white" stroke="url(#paint31_linear)" stroke-width="2"/>
<path d="M452.101 211H465.541V206.94H456.581V203.16H464.981V199.24H456.581V195.46H465.541V191.4H452.101V211ZM468.89 211H476.17C481.49 211 485.69 206.8 485.69 201.2C485.69 195.6 481.49 191.4 476.17 191.4H468.89V211ZM473.37 206.66V195.74H476.17C478.97 195.74 481.21 197.98 481.21 201.2C481.21 204.42 478.97 206.66 476.17 206.66H473.37ZM497.449 211.28C501.089 211.28 502.769 209.04 502.769 209.04H502.909L503.189 211H506.549V200.64H497.729V203.72H502.069C502.069 203.72 501.369 206.94 497.449 206.94C494.649 206.94 492.409 204.7 492.409 201.2C492.409 197.728 494.649 195.46 497.449 195.46C500.669 195.46 501.789 198.12 501.789 198.12H506.409C506.409 198.12 504.729 191.12 497.449 191.12C492.129 191.12 487.929 195.32 487.929 201.2C487.929 207.08 492.129 211.28 497.449 211.28ZM510.042 211H523.482V206.94H514.522V203.16H522.922V199.24H514.522V195.46H523.482V191.4H510.042V211ZM534.378 211H538.858V199.24H539.418L545.578 211H551.038V191.4H546.558V203.16H545.998L539.838 191.4H534.378V211ZM563.648 211.28C568.968 211.28 573.168 207.08 573.168 201.2C573.168 195.32 568.968 191.12 563.648 191.12C558.328 191.12 554.128 195.32 554.128 201.2C554.128 207.08 558.328 211.28 563.648 211.28ZM563.648 206.94C560.848 206.94 558.608 204.7 558.608 201.2C558.608 197.7 560.848 195.46 563.648 195.46C566.448 195.46 568.688 197.7 568.688 201.2C568.688 204.7 566.448 206.94 563.648 206.94ZM576.241 211H583.521C588.841 211 593.041 206.8 593.041 201.2C593.041 195.6 588.841 191.4 583.521 191.4H576.241V211ZM580.721 206.66V195.74H583.521C586.321 195.74 588.561 197.98 588.561 201.2C588.561 204.42 586.321 206.66 583.521 206.66H580.721ZM596.12 211H609.56V206.94H600.6V203.16H609V199.24H600.6V195.46H609.56V191.4H596.12V211ZM619.909 211.28C625.089 211.28 627.749 208.62 627.749 205.26C627.749 201.9 626.069 200.22 622.149 199.52L619.069 198.96C617.249 198.624 616.689 198.12 616.689 197.14C616.689 196.02 617.669 195.04 619.629 195.04C621.813 195.04 623.129 196.328 623.129 197.84H627.609C627.609 193.92 624.809 191.12 619.629 191.12C614.869 191.12 612.209 193.78 612.209 197.14C612.209 200.22 613.889 201.956 617.389 202.6L620.469 203.16C622.569 203.552 623.269 204.28 623.269 205.26C623.269 206.38 622.289 207.36 619.909 207.36C617.529 207.36 616.269 206.1 616.269 204.56H611.789C611.789 208.34 614.729 211.28 619.909 211.28Z" fill="#4F4F4F"/>
<path d="M110.988 211.28C118.688 211.28 119.948 203.58 119.948 203.58H115.468C115.468 203.58 114.768 206.94 110.988 206.94C108.188 206.94 105.948 204.7 105.948 201.2C105.948 197.7 108.188 195.46 110.988 195.46C114.628 195.46 115.468 198.68 115.468 198.68H119.948C119.948 198.68 118.548 191.12 110.988 191.12C105.668 191.12 101.468 195.32 101.468 201.2C101.468 207.08 105.668 211.28 110.988 211.28ZM122.761 211H136.061V206.66H127.241V191.4H122.761V211ZM145.988 211.28C151.308 211.28 155.508 207.08 155.508 201.2C155.508 195.32 151.308 191.12 145.988 191.12C140.668 191.12 136.468 195.32 136.468 201.2C136.468 207.08 140.668 211.28 145.988 211.28ZM145.988 206.94C143.188 206.94 140.948 204.7 140.948 201.2C140.948 197.7 143.188 195.46 145.988 195.46C148.788 195.46 151.028 197.7 151.028 201.2C151.028 204.7 148.788 206.94 145.988 206.94ZM166.701 211.28C171.741 211.28 174.961 208.06 174.961 202.88V191.4H170.481V202.88C170.481 205.26 168.801 206.94 166.701 206.94C164.601 206.94 162.921 205.26 162.921 202.88V191.4H158.441V202.88C158.441 208.06 161.661 211.28 166.701 211.28ZM178.733 211H186.013C191.333 211 195.533 206.8 195.533 201.2C195.533 195.6 191.333 191.4 186.013 191.4H178.733V211ZM183.213 206.66V195.74H186.013C188.813 195.74 191.053 197.98 191.053 201.2C191.053 204.42 188.813 206.66 186.013 206.66H183.213Z" fill="#4F4F4F"/>
<g filter="url(#filter1_d)">
<path d="M215.805 81.8132C211.034 44.3734 178.863 15.331 140 15.331C109.913 15.331 83.7789 32.8543 71.8469 60.4719C48.3979 67.4551 30.833 89.5143 30.833 113.227C30.833 143.216 55.3191 167.613 85.4164 167.613H205.5C229.582 167.613 249.166 148.1 249.166 124.104C249.15 114.354 245.855 104.89 239.807 97.2245C233.76 89.5587 225.31 84.1328 215.805 81.8132Z" fill="white"/>
</g>
<path d="M811.048 211H824.488V206.94H815.528V203.16H823.928V199.24H815.528V195.46H824.488V191.4H811.048V211ZM827.837 211H835.117C840.437 211 844.637 206.8 844.637 201.2C844.637 195.6 840.437 191.4 835.117 191.4H827.837V211ZM832.317 206.66V195.74H835.117C837.917 195.74 840.157 197.98 840.157 201.2C840.157 204.42 837.917 206.66 835.117 206.66H832.317ZM856.396 211.28C860.036 211.28 861.716 209.04 861.716 209.04H861.856L862.136 211H865.496V200.64H856.676V203.72H861.016C861.016 203.72 860.316 206.94 856.396 206.94C853.596 206.94 851.356 204.7 851.356 201.2C851.356 197.728 853.596 195.46 856.396 195.46C859.616 195.46 860.736 198.12 860.736 198.12H865.356C865.356 198.12 863.676 191.12 856.396 191.12C851.076 191.12 846.876 195.32 846.876 201.2C846.876 207.08 851.076 211.28 856.396 211.28ZM868.989 211H882.429V206.94H873.469V203.16H881.869V199.24H873.469V195.46H882.429V191.4H868.989V211ZM893.325 211H900.605C905.925 211 910.125 206.8 910.125 201.2C910.125 195.6 905.925 191.4 900.605 191.4H893.325V211ZM897.805 206.66V195.74H900.605C903.405 195.74 905.645 197.98 905.645 201.2C905.645 204.42 903.405 206.66 900.605 206.66H897.805ZM913.204 211H926.644V206.94H917.684V203.16H926.084V199.24H917.684V195.46H926.644V191.4H913.204V211ZM934.473 211H940.913L947.353 191.4H942.453L937.973 205.4H937.413L932.933 191.4H928.033L934.473 211ZM949.325 211H953.805V191.4H949.325V211ZM966.4 211.28C974.1 211.28 975.36 203.58 975.36 203.58H970.88C970.88 203.58 970.18 206.94 966.4 206.94C963.6 206.94 961.36 204.7 961.36 201.2C961.36 197.7 963.6 195.46 966.4 195.46C970.04 195.46 970.88 198.68 970.88 198.68H975.36C975.36 198.68 973.96 191.12 966.4 191.12C961.08 191.12 956.88 195.32 956.88 201.2C956.88 207.08 961.08 211.28 966.4 211.28ZM978.173 211H991.613V206.94H982.653V203.16H991.053V199.24H982.653V195.46H991.613V191.4H978.173V211ZM1001.96 211.28C1007.14 211.28 1009.8 208.62 1009.8 205.26C1009.8 201.9 1008.12 200.22 1004.2 199.52L1001.12 198.96C999.302 198.624 998.742 198.12 998.742 197.14C998.742 196.02 999.722 195.04 1001.68 195.04C1003.87 195.04 1005.18 196.328 1005.18 197.84H1009.66C1009.66 193.92 1006.86 191.12 1001.68 191.12C996.922 191.12 994.262 193.78 994.262 197.14C994.262 200.22 995.942 201.956 999.442 202.6L1002.52 203.16C1004.62 203.552 1005.32 204.28 1005.32 205.26C1005.32 206.38 1004.34 207.36 1001.96 207.36C999.582 207.36 998.322 206.1 998.322 204.56H993.842C993.842 208.34 996.782 211.28 1001.96 211.28Z" fill="#4F4F4F"/>
<path d="M1014 132.537V38.6567C1004.52 30.7192 970.553 14.7263 910.5 14.7263C850.447 14.7263 816.478 30.7192 807 38.6567V132.537C816.478 140.475 850.447 156.468 910.5 156.468C970.553 156.468 1004.52 140.475 1014 132.537Z" fill="white" stroke="url(#paint32_linear)" stroke-width="3" stroke-linecap="round" stroke-linejoin="round"/>
<path d="M815.317 43.2587L853.206 54.3034V85.597V115.97L815.317 127.015M821.786 54.3034V85.597V115.97" stroke="url(#paint33_linear)" stroke-width="3" stroke-linecap="round"/>
<path d="M1006.61 43.2587L968.718 54.3034V85.597V115.97L1006.61 127.015M1000.14 54.3034V85.597V115.97" stroke="url(#paint34_linear)" stroke-width="3" stroke-linecap="round"/>
<path fill-rule="evenodd" clip-rule="evenodd" d="M949 57.5C949 83.6623 931.096 104 910 104C888.904 104 871 83.6623 871 57.5C871 31.3377 888.904 11 910 11C931.096 11 949 31.3377 949 57.5ZM928.521 101.94C922.934 105.18 916.647 107 910 107C903.028 107 896.453 104.998 890.666 101.455C890.218 108.059 887.904 113.281 884.53 117.389C880.785 121.95 875.795 125.068 870.789 127.234C865.78 129.402 860.686 130.645 856.659 131.418C854.657 131.802 852.908 132.072 851.567 132.279L851.539 132.283C850.862 132.388 850.304 132.474 849.862 132.552C849.394 132.634 849.152 132.69 849.058 132.721C848.505 132.906 847.861 133.024 847.229 133.125C846.964 133.168 846.703 133.207 846.436 133.248L846.435 133.248L846.434 133.248C846.013 133.311 845.577 133.377 845.083 133.462C843.531 133.727 841.713 134.13 839.703 134.962C835.714 136.611 830.789 140.022 825.819 147.756C820.76 155.628 818.062 161.728 816.619 166.933C815.179 172.129 814.968 176.506 814.968 181H811.968C811.968 176.392 812.183 171.706 813.728 166.132C815.271 160.567 818.118 154.19 823.295 146.134C828.561 137.941 833.944 134.097 838.556 132.189C840.847 131.242 842.903 130.791 844.577 130.505C845.087 130.418 845.595 130.341 846.045 130.272C846.304 130.233 846.544 130.197 846.754 130.163C847.382 130.062 847.81 129.975 848.109 129.875C848.442 129.764 848.892 129.676 849.344 129.597C849.822 129.513 850.415 129.421 851.082 129.318L851.098 129.316L851.098 129.316C852.441 129.109 854.146 128.846 856.094 128.472C860.01 127.72 864.868 126.527 869.598 124.481C874.331 122.433 878.866 119.56 882.212 115.485C885.472 111.515 887.66 106.336 887.742 99.4853C875.885 90.7357 868 75.2031 868 57.5C868 30.1619 886.804 8 910 8C933.196 8 952 30.1619 952 57.5C952 75.6167 943.742 91.4602 931.42 100.087C931.62 106.641 933.774 111.632 936.938 115.485C940.284 119.56 944.819 122.433 949.552 124.481C954.281 126.527 959.139 127.72 963.056 128.472C965.004 128.846 966.709 129.109 968.051 129.316L968.052 129.316L968.068 129.318C968.735 129.421 969.327 129.513 969.806 129.597C970.258 129.676 970.707 129.764 971.04 129.875C971.34 129.975 971.767 130.062 972.396 130.163C972.606 130.197 972.846 130.233 973.105 130.272C973.555 130.341 974.063 130.418 974.573 130.505C976.247 130.791 978.303 131.242 980.594 132.189C985.206 134.097 990.589 137.941 995.855 146.134C1001.03 154.19 1003.88 160.567 1005.42 166.132C1006.97 171.706 1007.18 176.392 1007.18 181H1004.18C1004.18 176.506 1003.97 172.129 1002.53 166.933C1001.09 161.728 998.39 155.628 993.331 147.756C988.36 140.022 983.436 136.611 979.447 134.962C977.437 134.13 975.619 133.727 974.067 133.462C973.572 133.377 973.136 133.311 972.715 133.248L972.714 133.248C972.447 133.207 972.186 133.168 971.92 133.125C971.288 133.024 970.645 132.906 970.092 132.721C969.998 132.69 969.756 132.634 969.288 132.552C968.846 132.474 968.288 132.388 967.61 132.283L967.583 132.279C966.242 132.072 964.493 131.802 962.491 131.418C958.463 130.645 953.37 129.402 948.36 127.234C943.355 125.068 938.365 121.95 934.619 117.389C931.329 113.382 929.046 108.315 928.521 101.94Z" fill="url(#paint35_linear)"/>
<path d="M1014 132.537V38.6567C1004.52 30.7192 970.553 14.7263 910.5 14.7263C850.447 14.7263 816.478 30.7192 807 38.6567V132.537C816.478 140.475 850.447 156.468 910.5 156.468C970.553 156.468 1004.52 140.475 1014 132.537Z" stroke="url(#paint36_linear)" stroke-width="3" stroke-linecap="round" stroke-linejoin="round"/>
<path d="M900.335 34.0547H877.219C870.591 34.0547 865.219 39.4273 865.219 46.0547V62.5522C865.219 69.1796 870.591 74.5522 877.219 74.5522H891.501C896.755 74.5522 901.268 71.0576 903.634 66.3663C905.41 62.8442 907.561 59.8258 909.576 59.8258C911.59 59.8258 913.742 62.8442 915.518 66.3663C917.884 71.0576 922.397 74.5522 927.651 74.5522H941.933C948.56 74.5522 953.933 69.1796 953.933 62.5522V46.0547C953.933 39.4273 948.56 34.0547 941.933 34.0547H900.335Z" fill="white" stroke="url(#paint37_linear)" stroke-width="3"/>
<path d="M903.22 52H906.44L909.66 42.2H907.21L904.97 49.2H904.69L902.45 42.2H900L903.22 52ZM910.646 52H912.886V48.85H913.166L915.966 52H918.766L915.756 48.71C915.756 48.71 918.486 48.57 918.486 45.56C918.486 43.53 917.156 42.2 915.266 42.2H910.646V52ZM912.886 46.82V44.3H915.126C915.756 44.3 916.246 44.79 916.246 45.56C916.246 46.33 915.756 46.82 915.126 46.82H912.886Z" fill="url(#paint38_linear)"/>
<circle cx="140" cy="276" r="16" fill="#4F4F4F"/>
<circle cx="539" cy="276" r="16" fill="#4F4F4F"/>
<circle cx="911" cy="276" r="16" fill="#4F4F4F"/>
<path d="M578.917 149.583C610.213 149.583 635.583 124.213 635.583 92.9167C635.583 61.6205 610.213 36.25 578.917 36.25C547.621 36.25 522.25 61.6205 522.25 92.9167C522.25 124.213 547.621 149.583 578.917 149.583Z" fill="white" stroke="#4F4F4F" stroke-width="10" stroke-linecap="round" stroke-linejoin="round"/>
<path d="M649.746 163.75L618.934 132.938" stroke="#4F4F4F" stroke-width="10" stroke-linecap="round" stroke-linejoin="round"/>
<path d="M607.6 84.75C605.81 71.1664 594.158 61.375 579.578 61.375C568.29 61.375 558.187 68.355 553.711 78.375C544.914 80.9086 538.622 88.8968 538.622 97.5C538.622 108.38 548.886 116.625 560.178 116.625H603.289C612.324 116.625 620.533 110.456 620.533 101.75C620.527 98.2125 618.491 93.9062 616.222 91.125C613.953 88.3438 611.166 85.5916 607.6 84.75Z" fill="url(#paint39_linear)"/>
<defs>
<filter id="filter0_d" x="0" y="386" width="1026" height="230" filterUnits="userSpaceOnUse" color-interpolation-filters="sRGB">
<feFlood flood-opacity="0" result="BackgroundImageFix"/>
<feColorMatrix in="SourceAlpha" type="matrix" values="0 0 0 0 0 0 0 0 0 0 0 0 0 0 0 0 0 0 127 0" result="hardAlpha"/>
<feOffset dx="2" dy="2"/>
<feGaussianBlur stdDeviation="5"/>
<feColorMatrix type="matrix" values="0 0 0 0 0.236979 0 0 0 0 0.445521 0 0 0 0 0.758333 0 0 0 0.3 0"/>
<feBlend mode="normal" in2="BackgroundImageFix" result="effect1_dropShadow"/>
<feBlend mode="normal" in="SourceGraphic" in2="effect1_dropShadow" result="shape"/>
</filter>
<filter id="filter1_d" x="1" y="-8" width="282" height="205" filterUnits="userSpaceOnUse" color-interpolation-filters="sRGB">
<feFlood flood-opacity="0" result="BackgroundImageFix"/>
<feColorMatrix in="SourceAlpha" type="matrix" values="0 0 0 0 0 0 0 0 0 0 0 0 0 0 0 0 0 0 127 0" result="hardAlpha"/>
<feOffset dx="2" dy="2"/>
<feGaussianBlur stdDeviation="5"/>
<feColorMatrix type="matrix" values="0 0 0 0 0.236979 0 0 0 0 0.445521 0 0 0 0 0.758333 0 0 0 0.3 0"/>
<feBlend mode="normal" in2="BackgroundImageFix" result="effect1_dropShadow"/>
<feBlend mode="normal" in="SourceGraphic" in2="effect1_dropShadow" result="shape"/>
</filter>
<linearGradient id="paint0_linear" x1="140" y1="279.57" x2="173.835" y2="121.605" gradientUnits="userSpaceOnUse">
<stop stop-color="#FF6753"/>
<stop offset="1" stop-color="#FF8F50"/>
</linearGradient>
<linearGradient id="paint1_linear" x1="143.57" y1="279" x2="126.532" y2="228.754" gradientUnits="userSpaceOnUse">
<stop stop-color="#FF6753"/>
<stop offset="1" stop-color="#FF8F50"/>
</linearGradient>
<linearGradient id="paint2_linear" x1="542.57" y1="279" x2="525.532" y2="228.754" gradientUnits="userSpaceOnUse">
<stop stop-color="#FF6753"/>
<stop offset="1" stop-color="#FF8F50"/>
</linearGradient>
<linearGradient id="paint3_linear" x1="914.57" y1="279" x2="897.532" y2="228.754" gradientUnits="userSpaceOnUse">
<stop stop-color="#FF6753"/>
<stop offset="1" stop-color="#FF8F50"/>
</linearGradient>
<linearGradient id="paint4_linear" x1="117.908" y1="336.42" x2="541.931" y2="326.147" gradientUnits="userSpaceOnUse">
<stop stop-color="#FF6753"/>
<stop offset="1" stop-color="#FF8F50"/>
</linearGradient>
<linearGradient id="paint5_linear" x1="240" y1="262.24" x2="438.802" y2="254.754" gradientUnits="userSpaceOnUse">
<stop stop-color="#FF6753"/>
<stop offset="1" stop-color="#FF8F50"/>
</linearGradient>
<linearGradient id="paint6_linear" x1="358.728" y1="331.877" x2="358.728" y2="379.944" gradientUnits="userSpaceOnUse">
<stop stop-color="#00B9FF"/>
<stop offset="1" stop-color="#0068B5"/>
</linearGradient>
<linearGradient id="paint7_linear" x1="121.702" y1="401.42" x2="121.702" y2="578.667" gradientUnits="userSpaceOnUse">
<stop stop-color="#00B9FF"/>
<stop offset="1" stop-color="#0068B5"/>
</linearGradient>
<linearGradient id="paint8_linear" x1="110.75" y1="574.575" x2="133.259" y2="574.439" gradientUnits="userSpaceOnUse">
<stop stop-color="#FF6753"/>
<stop offset="1" stop-color="#FF8F50"/>
</linearGradient>
<linearGradient id="paint9_linear" x1="266.75" y1="574.575" x2="289.259" y2="574.439" gradientUnits="userSpaceOnUse">
<stop stop-color="#FF6753"/>
<stop offset="1" stop-color="#FF8F50"/>
</linearGradient>
<linearGradient id="paint10_linear" x1="421.75" y1="574.575" x2="444.259" y2="574.439" gradientUnits="userSpaceOnUse">
<stop stop-color="#FF6753"/>
<stop offset="1" stop-color="#FF8F50"/>
</linearGradient>
<linearGradient id="paint11_linear" x1="577.75" y1="574.575" x2="600.259" y2="574.439" gradientUnits="userSpaceOnUse">
<stop stop-color="#FF6753"/>
<stop offset="1" stop-color="#FF8F50"/>
</linearGradient>
<linearGradient id="paint12_linear" x1="733.75" y1="574.575" x2="756.259" y2="574.439" gradientUnits="userSpaceOnUse">
<stop stop-color="#FF6753"/>
<stop offset="1" stop-color="#FF8F50"/>
</linearGradient>
<linearGradient id="paint13_linear" x1="888.75" y1="574.575" x2="911.259" y2="574.439" gradientUnits="userSpaceOnUse">
<stop stop-color="#FF6753"/>
<stop offset="1" stop-color="#FF8F50"/>
</linearGradient>
<linearGradient id="paint14_linear" x1="277.204" y1="401.42" x2="277.204" y2="578.667" gradientUnits="userSpaceOnUse">
<stop stop-color="#00B9FF"/>
<stop offset="1" stop-color="#0068B5"/>
</linearGradient>
<linearGradient id="paint15_linear" x1="432.702" y1="401.42" x2="432.702" y2="578.667" gradientUnits="userSpaceOnUse">
<stop stop-color="#00B9FF"/>
<stop offset="1" stop-color="#0068B5"/>
</linearGradient>
<linearGradient id="paint16_linear" x1="588.702" y1="401.42" x2="588.702" y2="578.667" gradientUnits="userSpaceOnUse">
<stop stop-color="#00B9FF"/>
<stop offset="1" stop-color="#0068B5"/>
</linearGradient>
<linearGradient id="paint17_linear" x1="744.204" y1="401.42" x2="744.204" y2="578.667" gradientUnits="userSpaceOnUse">
<stop stop-color="#00B9FF"/>
<stop offset="1" stop-color="#0068B5"/>
</linearGradient>
<linearGradient id="paint18_linear" x1="899.702" y1="401.42" x2="899.702" y2="578.667" gradientUnits="userSpaceOnUse">
<stop stop-color="#00B9FF"/>
<stop offset="1" stop-color="#0068B5"/>
</linearGradient>
<linearGradient id="paint19_linear" x1="625" y1="261.24" x2="823.802" y2="253.754" gradientUnits="userSpaceOnUse">
<stop stop-color="#FF6753"/>
<stop offset="1" stop-color="#FF8F50"/>
</linearGradient>
<linearGradient id="paint20_linear" x1="423.919" y1="19.0248" x2="423.919" y2="58.0792" gradientUnits="userSpaceOnUse">
<stop stop-color="#00B9FF"/>
<stop offset="1" stop-color="#0068B5"/>
</linearGradient>
<linearGradient id="paint21_linear" x1="423.919" y1="74.0248" x2="423.919" y2="113.079" gradientUnits="userSpaceOnUse">
<stop stop-color="#00B9FF"/>
<stop offset="1" stop-color="#0068B5"/>
</linearGradient>
<linearGradient id="paint22_linear" x1="405" y1="149.82" x2="443.013" y2="149.484" gradientUnits="userSpaceOnUse">
<stop stop-color="#FF6753"/>
<stop offset="1" stop-color="#FF8F50"/>
</linearGradient>
<linearGradient id="paint23_linear" x1="482" y1="38.82" x2="520.013" y2="38.4836" gradientUnits="userSpaceOnUse">
<stop stop-color="#FF6753"/>
<stop offset="1" stop-color="#FF8F50"/>
</linearGradient>
<linearGradient id="paint24_linear" x1="500.919" y1="74.0248" x2="500.919" y2="113.079" gradientUnits="userSpaceOnUse">
<stop stop-color="#00B9FF"/>
<stop offset="1" stop-color="#0068B5"/>
</linearGradient>
<linearGradient id="paint25_linear" x1="500.919" y1="130.025" x2="500.919" y2="169.079" gradientUnits="userSpaceOnUse">
<stop stop-color="#00B9FF"/>
<stop offset="1" stop-color="#0068B5"/>
</linearGradient>
<linearGradient id="paint26_linear" x1="577.919" y1="19.0248" x2="577.919" y2="58.0792" gradientUnits="userSpaceOnUse">
<stop stop-color="#00B9FF"/>
<stop offset="1" stop-color="#0068B5"/>
</linearGradient>
<linearGradient id="paint27_linear" x1="559" y1="93.82" x2="597.013" y2="93.4836" gradientUnits="userSpaceOnUse">
<stop stop-color="#FF6753"/>
<stop offset="1" stop-color="#FF8F50"/>
</linearGradient>
<linearGradient id="paint28_linear" x1="559" y1="149.82" x2="597.013" y2="149.484" gradientUnits="userSpaceOnUse">
<stop stop-color="#FF6753"/>
<stop offset="1" stop-color="#FF8F50"/>
</linearGradient>
<linearGradient id="paint29_linear" x1="654.919" y1="19.0248" x2="654.919" y2="58.0792" gradientUnits="userSpaceOnUse">
<stop stop-color="#00B9FF"/>
<stop offset="1" stop-color="#0068B5"/>
</linearGradient>
<linearGradient id="paint30_linear" x1="654.919" y1="74.0248" x2="654.919" y2="113.079" gradientUnits="userSpaceOnUse">
<stop stop-color="#00B9FF"/>
<stop offset="1" stop-color="#0068B5"/>
</linearGradient>
<linearGradient id="paint31_linear" x1="654.919" y1="130.025" x2="654.919" y2="169.079" gradientUnits="userSpaceOnUse">
<stop stop-color="#00B9FF"/>
<stop offset="1" stop-color="#0068B5"/>
</linearGradient>
<linearGradient id="paint32_linear" x1="910.94" y1="-12.3963" x2="910.94" y2="200.512" gradientUnits="userSpaceOnUse">
<stop stop-color="#00B9FF"/>
<stop offset="1" stop-color="#0068B5"/>
</linearGradient>
<linearGradient id="paint33_linear" x1="834.181" y1="27.2317" x2="834.181" y2="153.041" gradientUnits="userSpaceOnUse">
<stop stop-color="#00B9FF"/>
<stop offset="1" stop-color="#0068B5"/>
</linearGradient>
<linearGradient id="paint34_linear" x1="987.743" y1="27.2317" x2="987.743" y2="153.041" gradientUnits="userSpaceOnUse">
<stop stop-color="#00B9FF"/>
<stop offset="1" stop-color="#0068B5"/>
</linearGradient>
<linearGradient id="paint35_linear" x1="811.968" y1="106.61" x2="1007.26" y2="105.276" gradientUnits="userSpaceOnUse">
<stop stop-color="#FF6753"/>
<stop offset="1" stop-color="#FF8F50"/>
</linearGradient>
<linearGradient id="paint36_linear" x1="910.94" y1="-12.3963" x2="910.94" y2="200.512" gradientUnits="userSpaceOnUse">
<stop stop-color="#00B9FF"/>
<stop offset="1" stop-color="#0068B5"/>
</linearGradient>
<linearGradient id="paint37_linear" x1="909.387" y1="26.3054" x2="909.387" y2="87.1363" gradientUnits="userSpaceOnUse">
<stop stop-color="#00B9FF"/>
<stop offset="1" stop-color="#0068B5"/>
</linearGradient>
<linearGradient id="paint38_linear" x1="909.957" y1="35.747" x2="909.957" y2="61.2825" gradientUnits="userSpaceOnUse">
<stop stop-color="#00B9FF"/>
<stop offset="1" stop-color="#0068B5"/>
</linearGradient>
<linearGradient id="paint39_linear" x1="538.622" y1="92.8675" x2="620.561" y2="92.1319" gradientUnits="userSpaceOnUse">
<stop stop-color="#FF6753"/>
<stop offset="1" stop-color="#FF8F50"/>
</linearGradient>
</defs>
</svg>
