<svg width="258" height="388" viewBox="0 0 258 388" fill="none" xmlns="http://www.w3.org/2000/svg">
<g clip-path="url(#clip0)">
<path fill-rule="evenodd" clip-rule="evenodd" d="M130.185 127.657L149.496 299.508L159.146 385.486L156.171 385.514L153.686 363.135L128.991 347.527L103.479 363.128L100.686 385.205L97.7111 385.234L130.185 127.657ZM153.438 360.237L150.472 334.085L131.049 346.025L153.438 360.237ZM127.012 346.056L107.212 333.587L103.862 360.292L127.012 346.056ZM107.76 329.064L127.502 313.856L111.349 300.998L107.76 329.064ZM129.223 312.535L146.552 299.22L129.481 284.888L112.176 299.057L129.223 312.535ZM127.712 283.439L114.865 272.606L111.907 296.37L127.712 283.439ZM115.538 267.882L127.995 257.711L117.886 249.274L115.538 267.882ZM129.611 256.379L140.694 247.243L140.66 246.495L129.777 235.109L118.343 246.764L129.611 256.379ZM128.334 233.585L120.917 225.836L118.662 243.496L128.334 233.585ZM121.422 220.671L128.58 210.407L123.666 203.116L121.422 220.671ZM129.932 208.517L135.477 200.651L135.38 199.471L130.12 192.465L124.301 199.879L129.932 208.517ZM128.697 190.73L125.787 186.827L124.692 195.873L128.697 190.73ZM126.076 183.875L130.029 189.05L133.656 184.509L130.069 152.762L126.076 183.875ZM131.346 190.776L134.825 195.372L133.894 187.512L131.346 190.776ZM135.809 203.77L131.24 210.348L137.64 219.806L135.809 203.77ZM129.888 212.238L121.859 223.8L129.76 232.021L137.775 223.864L129.888 212.238ZM131.194 233.651L140.149 243.04L138.274 226.36L131.194 233.651ZM140.982 249.72L131.286 257.713L143.059 267.589L140.982 249.72ZM129.554 259.14L115.701 270.559L129.434 282.117L143.286 270.698L129.554 259.14ZM131.108 283.451L146.22 296.101L143.68 273.184L131.108 283.451ZM146.851 301.591L131.003 313.879L149.915 328.923L146.851 301.591ZM129.176 315.191L108.039 331.645L129.038 344.87L150.152 331.926L129.176 315.191Z" fill="#4F4F4F"/>
<path fill-rule="evenodd" clip-rule="evenodd" d="M131.966 124.638L131.752 152.927L131.11 152.971C132.674 161.957 135.951 180.582 135.194 180.721C134.228 180.84 124.798 180.664 124.798 180.664L129.513 153.027L128.346 153.02L128.37 149.51L128.571 124.626C127.045 123.945 126.022 122.461 126.082 120.764C126.098 118.424 127.986 116.48 130.32 116.495C132.654 116.51 134.592 118.402 134.576 120.742C134.516 122.439 133.521 123.938 131.966 124.638Z" fill="#4F4F4F"/>
<path d="M106.241 383.342L92.8232 383.258L92.8054 385.906L106.223 385.99L106.241 383.342Z" fill="#4F4F4F"/>
<path d="M164.375 383.688L150.958 383.604L150.94 386.252L164.358 386.336L164.375 383.688Z" fill="#4F4F4F"/>
<path fill-rule="evenodd" clip-rule="evenodd" d="M146.947 156.007C150.087 154.291 153.047 152.239 155.523 149.714C162.101 143.225 166.161 134.256 166.172 124.359C166.288 114.473 162.285 105.461 155.817 98.8697C149.348 92.2782 140.404 88.2121 130.533 88.2061C120.672 88.0948 111.682 92.1126 105.104 98.601C98.5263 105.089 94.4661 114.059 94.4552 123.955C94.3391 133.842 98.342 142.853 104.81 149.445C107.223 151.915 110.087 154.111 113.213 155.799L112.593 161.06C108.436 159.058 104.572 156.233 101.391 152.942C94.048 145.52 89.5274 135.288 89.6824 123.915C89.7221 112.638 94.4315 102.455 101.838 95.0893C109.244 87.724 119.453 83.1865 130.796 83.3362C142.045 83.3701 152.199 88.0866 159.542 95.5084C166.884 102.93 171.405 113.163 171.25 124.536C171.21 135.813 166.501 145.996 159.094 153.361C155.8 156.658 151.927 159.367 147.589 161.391L146.947 156.007Z" fill="url(#paint0_linear)"/>
<path fill-rule="evenodd" clip-rule="evenodd" d="M150.417 186.784C160.282 183.597 169.206 178.082 176.487 170.918C188.467 159.103 195.908 142.695 195.985 124.503C196.063 106.312 188.86 89.8569 177.082 77.8513C165.188 65.9408 148.826 58.4897 130.797 58.3258C112.652 58.257 96.2363 65.4877 84.2556 77.3021C72.2647 89.222 64.8347 105.525 64.6518 123.706C64.5739 141.898 71.7776 158.353 83.5555 170.358C90.7084 177.549 99.3929 183.186 109.26 186.491L108.661 191.541C97.7525 188.028 87.9526 181.856 80.1357 173.856C67.3784 161.009 59.5622 143.218 59.7636 123.761C59.8701 104.189 67.9596 86.5667 80.7689 73.8753C93.5885 61.0785 111.338 53.2331 130.745 53.425C150.266 53.5218 167.839 61.6232 180.491 74.4592C193.143 87.2952 200.96 105.087 200.853 124.659C200.747 144.231 192.657 161.854 179.848 174.545C171.854 182.492 161.932 188.441 150.88 191.831L150.417 186.784Z" fill="url(#paint1_linear)"/>
<path fill-rule="evenodd" clip-rule="evenodd" d="M156.352 240.152C178.387 235.173 198.043 224.108 213.549 208.806C235.17 187.397 248.565 157.841 248.801 124.977C249.038 92.1143 235.919 62.3108 214.671 40.7598C193.328 19.0932 163.854 5.67914 131.076 5.4587C98.4133 5.14311 68.6902 18.2052 47.0686 39.6146C25.4469 61.0241 12.0524 90.5803 11.8159 123.443C11.5793 156.307 24.6977 186.11 45.9462 207.661C61.2005 223.199 80.693 234.468 102.58 239.691L101.991 244.636C78.9577 239.194 58.455 227.401 42.4315 211.043C20.214 188.546 6.58821 157.416 6.84313 123.277C7.09805 89.1387 21.1521 58.2633 43.6024 35.9769C66.0527 13.6905 97.1096 0.0137163 131.16 0.251923C165.21 0.490129 195.999 14.5648 218.216 37.0618C240.434 59.5588 254.06 90.6889 253.805 124.827C253.55 158.966 239.496 189.841 217.046 212.128C200.722 228.201 180.057 239.806 156.941 244.999L156.352 240.152Z" fill="url(#paint2_linear)"/>
</g>
<defs>
<linearGradient id="paint0_linear" x1="89.4423" y1="124.537" x2="170.736" y2="131.963" gradientUnits="userSpaceOnUse">
<stop stop-color="#FF6753"/>
<stop offset="1" stop-color="#FF8F50"/>
</linearGradient>
<linearGradient id="paint1_linear" x1="59.2161" y1="126.265" x2="199.798" y2="139.125" gradientUnits="userSpaceOnUse">
<stop stop-color="#FF6753"/>
<stop offset="1" stop-color="#FF8F50"/>
</linearGradient>
<linearGradient id="paint2_linear" x1="5.80232" y1="128.715" x2="251.833" y2="151.231" gradientUnits="userSpaceOnUse">
<stop stop-color="#FF6753"/>
<stop offset="1" stop-color="#FF8F50"/>
</linearGradient>
<clipPath id="clip0">
<rect width="258" height="388" fill="white"/>
</clipPath>
</defs>
</svg>
