<svg width="412" height="998" viewBox="0 0 412 998" fill="none" xmlns="http://www.w3.org/2000/svg">
<path fill-rule="evenodd" clip-rule="evenodd" d="M410.836 500.625C411.049 500.412 411.218 500.167 411.34 499.903C411.495 499.567 411.571 499.209 411.57 498.854C411.57 498.202 411.315 497.56 410.836 497.084C410.707 496.955 410.567 496.843 410.417 496.747L221.328 369.782L405.144 3.6217C405.633 2.64727 405.435 1.46822 404.653 0.708001C403.871 -0.0522222 402.687 -0.218268 401.727 0.297692L1.31697 215.385C0.505967 215.82 1.6506e-05 216.666 1.6506e-05 217.587V498.854V780.122C1.6506e-05 781.042 0.505967 781.888 1.31697 782.324L401.727 997.411C402.687 997.927 403.871 997.761 404.653 997.001C405.435 996.24 405.633 995.061 405.144 994.087L221.328 627.926L410.417 500.961C410.567 500.866 410.707 500.753 410.836 500.625ZM404.585 498.854L219.062 374.283L156.224 498.854L219.062 623.425L404.585 498.854ZM150.587 498.854L5.00002 227.533V498.854V770.175L150.587 498.854ZM153.355 493.439L214.905 371.423L9.7397 225.792L153.355 493.439ZM397.129 8.44317L7.23433 217.882L217.178 366.905L397.129 8.44317ZM153.355 504.269L214.905 626.285L9.7397 771.917L153.355 504.269ZM397.129 989.265L7.23433 779.827L217.178 630.803L397.129 989.265Z" fill="#F9F9F9"/>
</svg>
