<svg width="754" height="754" viewBox="0 0 754 754" fill="none" xmlns="http://www.w3.org/2000/svg">
<path fill-rule="evenodd" clip-rule="evenodd" d="M244.197 241.72C243.891 241.722 243.59 241.782 243.31 241.892C242.979 242.021 242.69 242.214 242.452 242.452C242.214 242.69 242.021 242.979 241.892 243.31C241.782 243.59 241.723 243.89 241.72 244.197C241.717 244.486 241.765 244.769 241.857 245.036L303.125 428.841L7.06981 486.462C5.99258 486.672 5.17803 487.559 5.06155 488.651C4.94507 489.742 5.55391 490.782 6.56264 491.214L371.601 647.659C372.54 648.061 373.63 647.851 374.353 647.129L510.741 510.741L647.129 374.353C647.852 373.63 648.062 372.54 647.659 371.6L491.214 6.56247C490.782 5.55374 489.742 4.94487 488.651 5.06135C487.56 5.17783 486.672 5.99242 486.462 7.06962L428.841 303.125L245.036 241.857C244.769 241.765 244.486 241.717 244.197 241.72ZM248.173 248.173L308.076 427.882L408.559 408.558L427.882 308.076L248.173 248.173ZM412.873 412.873L376.295 638.116L507.205 507.205L638.116 376.294L412.873 412.873ZM407.653 413.824L309.608 432.679L371.829 634.424L407.653 413.824ZM15.9987 489.818L368.604 640.935L304.67 433.634L15.9987 489.818ZM413.824 407.652L432.679 309.608L634.424 371.828L413.824 407.652ZM489.818 15.9985L640.935 368.604L433.634 304.67L489.818 15.9985Z" fill="#F9F9F9"/>
</svg>
