<svg width="754" height="754" viewBox="0 0 754 754" fill="none" xmlns="http://www.w3.org/2000/svg">
<path fill-rule="evenodd" clip-rule="evenodd" d="M511.9 244.771C511.897 244.464 511.837 244.164 511.728 243.884C511.599 243.553 511.406 243.264 511.168 243.026C510.93 242.788 510.641 242.595 510.31 242.466C510.03 242.356 509.729 242.296 509.422 242.294C509.134 242.291 508.851 242.338 508.584 242.431L324.779 303.699L267.158 7.64354C266.948 6.56631 266.06 5.75176 264.969 5.63528C263.878 5.5188 262.838 6.12765 262.406 7.13637L105.961 372.174C105.558 373.114 105.768 374.204 106.491 374.927L242.879 511.315L379.267 647.703C379.989 648.425 381.08 648.635 382.019 648.233L747.057 491.788C748.066 491.355 748.675 490.316 748.558 489.225C748.442 488.133 747.627 487.246 746.55 487.036L450.495 429.414L511.763 245.609C511.855 245.343 511.903 245.059 511.9 244.771ZM505.447 248.747L325.738 308.65L345.061 409.132L445.544 428.456L505.447 248.747ZM340.747 413.446L115.504 376.868L246.414 507.779L377.325 638.69L340.747 413.446ZM339.795 408.226L320.941 310.182L119.195 372.402L339.795 408.226ZM263.802 16.5724L112.685 369.178L319.986 305.244L263.802 16.5724ZM345.967 414.398L444.012 433.253L381.791 634.998L345.967 414.398ZM737.621 490.392L385.016 641.509L448.95 434.208L737.621 490.392Z" fill="#F9F9F9"/>
</svg>
