<svg width="998" height="553" viewBox="0 0 998 553" fill="none" xmlns="http://www.w3.org/2000/svg">
<path fill-rule="evenodd" clip-rule="evenodd" d="M500.553 0.694963C500.338 0.488571 500.089 0.324758 499.821 0.208148C499.497 0.0668983 499.158 -0.000257916 498.823 7.4428e-07C498.489 -0.000257914 498.15 0.0668987 497.826 0.208148C497.535 0.334678 497.266 0.516766 497.039 0.748542C496.848 0.943246 496.692 1.16617 496.575 1.40681L369.642 256.198L3.90115 8.7322C2.99203 8.11708 1.78802 8.16692 0.932855 8.85506C0.0776915 9.5432 -0.228583 10.7087 0.177789 11.7283L215.251 551.372C215.63 552.323 216.55 552.947 217.574 552.947H498.823H780.073C781.096 552.947 782.017 552.323 782.395 551.372L997.469 11.7283C997.875 10.7087 997.569 9.5432 996.714 8.85506C995.858 8.16692 994.655 8.11708 993.745 8.7322L628.004 256.198L501.071 1.40681C500.963 1.18431 500.822 0.976978 500.65 0.793078C500.619 0.759579 500.587 0.726857 500.553 0.694963ZM498.823 8.10705L373.818 259.03L498.823 344.019L623.829 259.03L498.823 8.10705ZM498.823 350.128L225.296 547.947H498.823H772.35L498.823 350.128ZM494.47 347.106L371.515 263.51L224.762 542.163L494.47 347.106ZM7.83227 17.4291L217.888 544.484L367.351 260.685L7.83227 17.4291ZM503.177 347.106L626.132 263.51L772.885 542.163L503.177 347.106ZM989.814 17.4291L779.758 544.484L630.295 260.685L989.814 17.4291Z" fill="#F9F9F9"/>
</svg>
