<svg width="212" height="69" viewBox="0 0 212 69" fill="none" xmlns="http://www.w3.org/2000/svg">
<g clip-path="url(#clip0)">
<path d="M28.3002 68.4693L23.59 68.4459L20.0497 63.9845H10.0752L12.2918 61.2282H17.8639L14.2005 56.6266L4.71854 68.4459H0.00836182L11.4298 54.0338C11.7171 53.66 12.1173 53.3174 12.6304 53.006C13.2461 52.6478 13.8003 52.4688 14.2928 52.4688C14.8265 52.4688 15.3806 52.64 15.9552 52.9826C16.4478 53.2785 16.848 53.6289 17.1559 54.0338L28.3002 68.4693ZM61.0442 52.5155L49.0379 67.1612C48.1964 68.2046 47.437 68.7262 46.7597 68.7262C46.103 68.7262 45.3538 68.2046 44.5124 67.1612L32.7524 52.5155H37.4625L46.8521 64.3582L56.334 52.5155H61.0442ZM92.1955 61.7654H80.1891V58.9858H92.1955V61.7654ZM93.1498 68.4693H74.9864V52.5155H93.1498V55.2951H78.6499V65.6896H93.1498V68.4693ZM131.868 63.5407C131.868 65.0512 131.16 66.2658 129.744 67.1846C128.389 68.041 126.696 68.4693 124.664 68.4693H108.625V65.6896H124.664C125.67 65.6896 126.542 65.5183 127.281 65.1758C128.122 64.7553 128.543 64.1869 128.543 63.4706C128.543 62.7543 128.112 62.2014 127.25 61.8121C126.532 61.4851 125.67 61.3216 124.664 61.3216H114.751C112.925 61.3216 111.396 60.9401 110.164 60.177C108.85 59.3517 108.194 58.2617 108.194 56.9069C108.194 55.5676 108.85 54.4854 110.164 53.66C111.396 52.897 112.925 52.5155 114.751 52.5155H130.606V55.2951H114.751C114.053 55.2951 113.458 55.4431 112.966 55.7389C112.473 56.0348 112.227 56.4319 112.227 56.9302C112.227 57.4441 112.473 57.8412 112.966 58.1215C113.458 58.4018 114.053 58.542 114.751 58.542H124.664C126.696 58.542 128.389 58.9858 129.744 59.8734C131.16 60.8077 131.868 62.0302 131.868 63.5407ZM168.625 68.4693H164.962V61.8355H152.617V59.0558H164.962V52.5155H168.625V68.4693ZM150.954 68.4693H147.291V52.5155H150.954V68.4693ZM211.492 68.4693L206.782 68.4459L203.242 63.9845H193.267L195.484 61.2282H201.056L197.392 56.6266L187.91 68.4459H183.2L194.622 54.0338C194.908 53.66 195.309 53.3174 195.822 53.006C196.438 52.6478 196.992 52.4688 197.485 52.4688C198.018 52.4688 198.572 52.64 199.147 52.9826C199.64 53.2785 200.04 53.6289 200.348 54.0338L211.492 68.4693Z" fill="url(#paint0_linear)"/>
</g>
<path fill-rule="evenodd" clip-rule="evenodd" d="M107.024 0.29292C106.935 0.203206 106.83 0.132544 106.716 0.0831184C106.586 0.0267177 106.451 -0.000104035 106.317 3.03215e-07C106.183 -0.000104035 106.048 0.0267191 105.918 0.0831198C105.805 0.132546 105.699 0.203206 105.61 0.29292C105.531 0.372095 105.466 0.463235 105.418 0.561836L98.8751 13.6389L79.5588 0.625825C79.1947 0.380565 78.7133 0.401403 78.3718 0.677201C78.0303 0.952999 77.9085 1.41927 78.0717 1.8268L89.9091 31.3993C90.061 31.7789 90.4286 32.0277 90.8374 32.0277H106.317H121.797C122.206 32.0277 122.573 31.7789 122.725 31.3993L134.563 1.8268C134.726 1.41927 134.604 0.952999 134.262 0.677201C133.921 0.401403 133.439 0.380565 133.075 0.625825L113.759 13.6389L107.216 0.561836C107.168 0.463235 107.104 0.372095 107.024 0.29292ZM106.317 3.23502L100.547 14.7674L106.317 18.6736L112.087 14.7674L106.317 3.23502ZM106.317 21.1134L93.9375 30.0277H106.317H118.697L106.317 21.1134ZM104.571 19.9065L99.6229 16.5571L93.7175 27.7216L104.571 19.9065ZM81.1358 4.09972L90.9633 28.6511L97.9559 15.4311L81.1358 4.09972ZM108.064 19.9065L113.011 16.5571L118.917 27.7216L108.064 19.9065ZM131.498 4.09972L121.671 28.6511L114.678 15.4311L131.498 4.09972Z" fill="#5B9BD5"/>
<defs>
<linearGradient id="paint0_linear" x1="105.3" y1="49.3578" x2="105.3" y2="73.778" gradientUnits="userSpaceOnUse">
<stop stop-color="#00B9FF"/>
<stop offset="1" stop-color="#0068B5"/>
</linearGradient>
<clipPath id="clip0">
<rect width="212" height="16.988" fill="white" transform="translate(0 52.012)"/>
</clipPath>
</defs>
</svg>
