<svg width="30" height="30" viewBox="0 0 30 30" fill="none" xmlns="http://www.w3.org/2000/svg">
<path d="M15 3.75C8.79 3.75 3.75 8.79 3.75 15C3.75 21.21 8.79 26.25 15 26.25C21.21 26.25 26.25 21.21 26.25 15C26.25 8.79 21.21 3.75 15 3.75ZM11.9513 19.8263L8.29727 16.125C8.19312 16.0208 8.1105 15.8972 8.05413 15.7611C7.99776 15.625 7.96875 15.4792 7.96875 15.3319C7.96875 15.1846 7.99776 15.0387 8.05413 14.9026C8.1105 14.7666 8.19312 14.6429 8.29727 14.5388C8.40143 14.4346 8.52508 14.352 8.66116 14.2956C8.79725 14.2392 8.9431 14.2102 9.0904 14.2102C9.23769 14.2102 9.38355 14.2392 9.51963 14.2956C9.65572 14.352 9.77937 14.4346 9.88352 14.5388L12.75 17.4413L18.9914 11.3751C19.2018 11.1648 19.4871 11.0466 19.7845 11.0466C20.082 11.0466 20.3673 11.1648 20.5777 11.3751C20.788 11.5855 20.9062 11.8708 20.9062 12.1683C20.9062 12.4658 20.788 12.751 20.5777 12.9614L13.5375 19.8263C13.4334 19.9305 13.3098 20.0133 13.1737 20.0697C13.0376 20.1262 12.8917 20.1553 12.7444 20.1553C12.597 20.1553 12.4511 20.1262 12.315 20.0697C12.179 20.0133 12.0553 19.9305 11.9513 19.8263Z" fill="#3AB67D"/>
<circle cx="15" cy="15" r="11.25" fill="url(#paint0_linear)"/>
<rect x="20.625" y="14.0625" width="2.25" height="11.25" rx="1.125" transform="rotate(90 20.625 14.0625)" fill="white"/>
<defs>
<linearGradient id="paint0_linear" x1="14.9521" y1="-0.555444" x2="14.9521" y2="33.2416" gradientUnits="userSpaceOnUse">
<stop stop-color="#00B9FF"/>
<stop offset="1" stop-color="#0068B5"/>
</linearGradient>
</defs>
</svg>
