<svg width="24" height="24" viewBox="0 0 24 24" fill="none" xmlns="http://www.w3.org/2000/svg">
<path fill-rule="evenodd" clip-rule="evenodd" d="M12.5 4.5C12.6989 4.5 12.8897 4.57902 13.0303 4.71967C13.171 4.86032 13.25 5.05109 13.25 5.25V8.25C13.25 8.44891 13.171 8.63968 13.0303 8.78033C12.8897 8.92098 12.6989 9 12.5 9C12.3011 9 12.1103 8.92098 11.9697 8.78033C11.829 8.63968 11.75 8.44891 11.75 8.25V5.25C11.75 5.05109 11.829 4.86032 11.9697 4.71967C12.1103 4.57902 12.3011 4.5 12.5 4.5ZM18.5 16.5V7.5C18.5 5.9087 17.8679 4.38258 16.7426 3.25736C15.6174 2.13214 14.0913 1.5 12.5 1.5C10.9087 1.5 9.38258 2.13214 8.25736 3.25736C7.13214 4.38258 6.5 5.9087 6.5 7.5V16.5C6.5 18.0913 7.13214 19.6174 8.25736 20.7426C9.38258 21.8679 10.9087 22.5 12.5 22.5C14.0913 22.5 15.6174 21.8679 16.7426 20.7426C17.8679 19.6174 18.5 18.0913 18.5 16.5ZM12.5 0C10.5109 0 8.60322 0.790176 7.1967 2.1967C5.79018 3.60322 5 5.51088 5 7.5V16.5C5 18.4891 5.79018 20.3968 7.1967 21.8033C8.60322 23.2098 10.5109 24 12.5 24C14.4891 24 16.3968 23.2098 17.8033 21.8033C19.2098 20.3968 20 18.4891 20 16.5V7.5C20 5.51088 19.2098 3.60322 17.8033 2.1967C16.3968 0.790176 14.4891 0 12.5 0V0Z" fill="white"/>
</svg>
