<svg width="47" height="27" viewBox="0 0 47 27" fill="none" xmlns="http://www.w3.org/2000/svg">
<path fill-rule="evenodd" clip-rule="evenodd" d="M24.2052 0.595687C24.116 0.507036 24.0118 0.437132 23.8989 0.388107C23.7695 0.331667 23.6339 0.304828 23.5001 0.304932C23.3663 0.304828 23.2307 0.331668 23.1012 0.388108C22.9883 0.437134 22.8841 0.507036 22.7949 0.595687C22.7147 0.675439 22.6495 0.767443 22.6011 0.867054L17.4442 11.1809L2.10788 0.841831C1.74389 0.596443 1.26242 0.617134 0.920821 0.892844C0.579222 1.16855 0.457377 1.63481 0.620412 2.04239L10.1326 25.8228C10.2845 26.2025 10.6522 26.4515 11.0611 26.4515H23.5001H35.9391C36.348 26.4515 36.7157 26.2025 36.8676 25.8228L46.3797 2.04239C46.5428 1.63481 46.4209 1.16855 46.0793 0.892844C45.7377 0.617134 45.2563 0.596443 44.8923 0.841831L29.556 11.1809L24.3991 0.867054C24.3506 0.767443 24.2855 0.675439 24.2052 0.595687ZM23.5001 3.54122L19.1156 12.3101L23.5001 15.2802L27.8845 12.3101L23.5001 3.54122ZM23.5001 17.7206L14.1593 24.4515H23.5001H32.8408L23.5001 17.7206ZM21.7544 16.5134L18.1921 14.1002L13.9403 22.1441L21.7544 16.5134ZM3.68412 4.31651L11.1869 23.0735L16.5254 12.9736L3.68412 4.31651ZM25.2457 16.5134L28.808 14.1002L33.0598 22.1441L25.2457 16.5134ZM43.316 4.31651L35.8132 23.0735L30.4747 12.9736L43.316 4.31651Z" fill="white"/>
</svg>
