<svg width="207" height="223" viewBox="0 0 207 223" fill="none" xmlns="http://www.w3.org/2000/svg">
<path d="M204 103V102.995C203.984 93.6995 201.222 84.579 195.355 77.1419C189.948 70.2873 182.075 65.1114 173.693 62.6215C168.402 28.6986 139.552 3 104 3C76.4029 3 52.1925 18.5147 40.8086 43.5415C19.4001 50.5313 3 70.7984 3 93C3 121.435 26.4585 145 55 145H162C185.169 145 204 126.083 204 103Z" stroke="url(#paint0_linear)" stroke-width="6" stroke-linecap="round" stroke-linejoin="round"/>
<rect x="74" y="61" width="10" height="25" rx="5" fill="url(#paint1_linear)"/>
<rect x="94" y="61" width="10" height="25" rx="5" fill="url(#paint2_linear)"/>
<rect x="114" y="61" width="10" height="25" rx="5" fill="url(#paint3_linear)"/>
<rect x="74" y="198" width="10" height="25" rx="5" fill="url(#paint4_linear)"/>
<rect x="94" y="198" width="10" height="25" rx="5" fill="url(#paint5_linear)"/>
<rect x="114" y="198" width="10" height="25" rx="5" fill="url(#paint6_linear)"/>
<rect x="155" y="167" width="10" height="25" rx="5" transform="rotate(-90 155 167)" fill="url(#paint7_linear)"/>
<rect x="155" y="147" width="10" height="25" rx="5" transform="rotate(-90 155 147)" fill="url(#paint8_linear)"/>
<rect x="155" y="127" width="10" height="25" rx="5" transform="rotate(-90 155 127)" fill="url(#paint9_linear)"/>
<rect x="18" y="167" width="10" height="25" rx="5" transform="rotate(-90 18 167)" fill="url(#paint10_linear)"/>
<rect x="18" y="147" width="10" height="25" rx="5" transform="rotate(-90 18 147)" fill="url(#paint11_linear)"/>
<rect x="18" y="127" width="10" height="25" rx="5" transform="rotate(-90 18 127)" fill="url(#paint12_linear)"/>
<g filter="url(#filter0_d)">
<rect x="39" y="82" width="120" height="120" rx="6" fill="white"/>
</g>
<g filter="url(#filter1_d)">
<rect x="55" y="98" width="88" height="88" rx="6" fill="white"/>
</g>
<path d="M69 161H76.36L80.2 150.44H100.68L104.52 161H111.88L95.56 116.2H85.32L69 161ZM82.44 144.36L89.8 123.88H91.08L98.44 144.36H82.44ZM116.675 161H123.395V116.2H116.675V161Z" fill="url(#paint13_linear)"/>
<defs>
<filter id="filter0_d" x="31" y="74" width="140" height="140" filterUnits="userSpaceOnUse" color-interpolation-filters="sRGB">
<feFlood flood-opacity="0" result="BackgroundImageFix"/>
<feColorMatrix in="SourceAlpha" type="matrix" values="0 0 0 0 0 0 0 0 0 0 0 0 0 0 0 0 0 0 127 0" result="hardAlpha"/>
<feOffset dx="2" dy="2"/>
<feGaussianBlur stdDeviation="5"/>
<feColorMatrix type="matrix" values="0 0 0 0 0.236979 0 0 0 0 0.445521 0 0 0 0 0.758333 0 0 0 0.3 0"/>
<feBlend mode="normal" in2="BackgroundImageFix" result="effect1_dropShadow"/>
<feBlend mode="normal" in="SourceGraphic" in2="effect1_dropShadow" result="shape"/>
</filter>
<filter id="filter1_d" x="47" y="90" width="108" height="108" filterUnits="userSpaceOnUse" color-interpolation-filters="sRGB">
<feFlood flood-opacity="0" result="BackgroundImageFix"/>
<feColorMatrix in="SourceAlpha" type="matrix" values="0 0 0 0 0 0 0 0 0 0 0 0 0 0 0 0 0 0 127 0" result="hardAlpha"/>
<feOffset dx="2" dy="2"/>
<feGaussianBlur stdDeviation="5"/>
<feColorMatrix type="matrix" values="0 0 0 0 0.236979 0 0 0 0 0.445521 0 0 0 0 0.758333 0 0 0 0.3 0"/>
<feBlend mode="normal" in2="BackgroundImageFix" result="effect1_dropShadow"/>
<feBlend mode="normal" in="SourceGraphic" in2="effect1_dropShadow" result="shape"/>
</filter>
<linearGradient id="paint0_linear" x1="103.085" y1="-20.024" x2="103.085" y2="184.26" gradientUnits="userSpaceOnUse">
<stop stop-color="#00B9FF"/>
<stop offset="1" stop-color="#0068B5"/>
</linearGradient>
<linearGradient id="paint1_linear" x1="74" y1="75.25" x2="84.0042" y2="75.2258" gradientUnits="userSpaceOnUse">
<stop stop-color="#FF6753"/>
<stop offset="1" stop-color="#FF8F50"/>
</linearGradient>
<linearGradient id="paint2_linear" x1="94" y1="75.25" x2="104.004" y2="75.2258" gradientUnits="userSpaceOnUse">
<stop stop-color="#FF6753"/>
<stop offset="1" stop-color="#FF8F50"/>
</linearGradient>
<linearGradient id="paint3_linear" x1="114" y1="75.25" x2="124.004" y2="75.2258" gradientUnits="userSpaceOnUse">
<stop stop-color="#FF6753"/>
<stop offset="1" stop-color="#FF8F50"/>
</linearGradient>
<linearGradient id="paint4_linear" x1="74" y1="212.25" x2="84.0042" y2="212.226" gradientUnits="userSpaceOnUse">
<stop stop-color="#FF6753"/>
<stop offset="1" stop-color="#FF8F50"/>
</linearGradient>
<linearGradient id="paint5_linear" x1="94" y1="212.25" x2="104.004" y2="212.226" gradientUnits="userSpaceOnUse">
<stop stop-color="#FF6753"/>
<stop offset="1" stop-color="#FF8F50"/>
</linearGradient>
<linearGradient id="paint6_linear" x1="114" y1="212.25" x2="124.004" y2="212.226" gradientUnits="userSpaceOnUse">
<stop stop-color="#FF6753"/>
<stop offset="1" stop-color="#FF8F50"/>
</linearGradient>
<linearGradient id="paint7_linear" x1="155" y1="181.25" x2="165.004" y2="181.226" gradientUnits="userSpaceOnUse">
<stop stop-color="#FF6753"/>
<stop offset="1" stop-color="#FF8F50"/>
</linearGradient>
<linearGradient id="paint8_linear" x1="155" y1="161.25" x2="165.004" y2="161.226" gradientUnits="userSpaceOnUse">
<stop stop-color="#FF6753"/>
<stop offset="1" stop-color="#FF8F50"/>
</linearGradient>
<linearGradient id="paint9_linear" x1="155" y1="141.25" x2="165.004" y2="141.226" gradientUnits="userSpaceOnUse">
<stop stop-color="#FF6753"/>
<stop offset="1" stop-color="#FF8F50"/>
</linearGradient>
<linearGradient id="paint10_linear" x1="18" y1="181.25" x2="28.0042" y2="181.226" gradientUnits="userSpaceOnUse">
<stop stop-color="#FF6753"/>
<stop offset="1" stop-color="#FF8F50"/>
</linearGradient>
<linearGradient id="paint11_linear" x1="18" y1="161.25" x2="28.0042" y2="161.226" gradientUnits="userSpaceOnUse">
<stop stop-color="#FF6753"/>
<stop offset="1" stop-color="#FF8F50"/>
</linearGradient>
<linearGradient id="paint12_linear" x1="18" y1="141.25" x2="28.0042" y2="141.226" gradientUnits="userSpaceOnUse">
<stop stop-color="#FF6753"/>
<stop offset="1" stop-color="#FF8F50"/>
</linearGradient>
<linearGradient id="paint13_linear" x1="98.8724" y1="97.7534" x2="98.8724" y2="193.887" gradientUnits="userSpaceOnUse">
<stop stop-color="#00B9FF"/>
<stop offset="1" stop-color="#0068B5"/>
</linearGradient>
</defs>
</svg>
