<svg width="80" height="80" viewBox="0 0 80 80" fill="none" xmlns="http://www.w3.org/2000/svg">
<path d="M64.5 30H15.5C13.567 30 12 28.433 12 26.5V19.5C12 17.567 13.567 16 15.5 16H64.5C66.433 16 68 17.567 68 19.5V26.5C68 28.433 66.433 30 64.5 30ZM59.25 20.375C57.8002 20.375 56.625 21.5502 56.625 23C56.625 24.4498 57.8002 25.625 59.25 25.625C60.6998 25.625 61.875 24.4498 61.875 23C61.875 21.5502 60.6998 20.375 59.25 20.375ZM52.25 20.375C50.8002 20.375 49.625 21.5502 49.625 23C49.625 24.4498 50.8002 25.625 52.25 25.625C53.6998 25.625 54.875 24.4498 54.875 23C54.875 21.5502 53.6998 20.375 52.25 20.375ZM64.5 47.5H15.5C13.567 47.5 12 45.933 12 44V37C12 35.067 13.567 33.5 15.5 33.5H64.5C66.433 33.5 68 35.067 68 37V44C68 45.933 66.433 47.5 64.5 47.5ZM59.25 37.875C57.8002 37.875 56.625 39.0502 56.625 40.5C56.625 41.9498 57.8002 43.125 59.25 43.125C60.6998 43.125 61.875 41.9498 61.875 40.5C61.875 39.0502 60.6998 37.875 59.25 37.875ZM52.25 37.875C50.8002 37.875 49.625 39.0502 49.625 40.5C49.625 41.9498 50.8002 43.125 52.25 43.125C53.6998 43.125 54.875 41.9498 54.875 40.5C54.875 39.0502 53.6998 37.875 52.25 37.875ZM64.5 65H15.5C13.567 65 12 63.433 12 61.5V54.5C12 52.567 13.567 51 15.5 51H64.5C66.433 51 68 52.567 68 54.5V61.5C68 63.433 66.433 65 64.5 65ZM59.25 55.375C57.8002 55.375 56.625 56.5502 56.625 58C56.625 59.4498 57.8002 60.625 59.25 60.625C60.6998 60.625 61.875 59.4498 61.875 58C61.875 56.5502 60.6998 55.375 59.25 55.375ZM52.25 55.375C50.8002 55.375 49.625 56.5502 49.625 58C49.625 59.4498 50.8002 60.625 52.25 60.625C53.6998 60.625 54.875 59.4498 54.875 58C54.875 56.5502 53.6998 55.375 52.25 55.375Z" fill="url(#paint0_linear)"/>
<path d="M54.928 71.9871C54.2693 71.9833 53.6298 71.7654 53.1058 71.3664L50.3116 69.2884C49.6668 68.7859 49.239 68.0556 49.116 67.2475C48.993 66.4395 49.1841 65.615 49.6502 64.9435C49.8968 64.5795 50.0535 64.1622 50.1075 63.7259C50.1614 63.2896 50.1111 62.8468 49.9607 62.4337L49.8797 62.2178C49.7749 61.8439 49.5834 61.5 49.3207 61.2139C49.058 60.9279 48.7316 60.7078 48.3679 60.5716H48.1519C47.3634 60.3065 46.7114 59.7413 46.3373 58.9985C45.9633 58.2557 45.8974 57.3955 46.1541 56.6045L47.261 53.0961C47.3629 52.6897 47.5505 52.3096 47.8112 51.9815C48.0719 51.6534 48.3998 51.3847 48.7728 51.1935C49.1202 51.0146 49.5003 50.908 49.8901 50.8802C50.2798 50.8524 50.6712 50.9039 51.0405 51.0316C51.4426 51.1669 51.8717 51.202 52.2904 51.1338C52.7091 51.0656 53.1049 50.8962 53.4432 50.6403L53.6187 50.5054C53.925 50.2611 54.1725 49.9512 54.343 49.5986C54.5136 49.2459 54.6028 48.8595 54.6041 48.4678V48.144C54.6004 47.3184 54.9232 46.5247 55.5022 45.9359C56.0811 45.347 56.8693 45.0107 57.6952 45H61.1373C61.5391 45.0011 61.9367 45.0815 62.3073 45.2367C62.678 45.3918 63.0143 45.6186 63.297 45.9041C63.8913 46.5083 64.2214 47.3236 64.2149 48.171V48.5488C64.208 48.9209 64.2887 49.2894 64.4505 49.6246C64.6123 49.9597 64.8506 50.2522 65.1463 50.4784L65.2947 50.5863C65.5977 50.8134 65.9511 50.9639 66.3248 51.025C66.6985 51.0861 67.0814 51.056 67.441 50.9372L67.8999 50.7887C68.2888 50.6599 68.6996 50.6107 69.1079 50.644C69.5161 50.6773 69.9135 50.7924 70.2763 50.9826C70.6391 51.1727 70.9599 51.434 71.2195 51.7507C71.4792 52.0675 71.6723 52.4333 71.7874 52.8263L72.8538 56.2267C73.1005 57.0125 73.0331 57.8634 72.6656 58.6006C72.2982 59.3378 71.6592 59.904 70.883 60.1803L70.6131 60.2747C70.216 60.4047 69.8569 60.6302 69.5675 60.9313C69.278 61.2325 69.0669 61.6001 68.9528 62.0019C68.8453 62.3754 68.8199 62.7677 68.8781 63.152C68.9363 63.5362 69.0769 63.9034 69.2902 64.2283L69.6412 64.7411C70.1066 65.4164 70.296 66.244 70.1705 67.0544C70.045 67.8648 69.6142 68.5965 68.9663 69.0995L66.2531 71.191C65.9253 71.4416 65.5497 71.6225 65.1494 71.7225C64.749 71.8225 64.3324 71.8395 63.9253 71.7725C63.5181 71.7055 63.1289 71.5559 62.7818 71.3329C62.4346 71.1099 62.1368 70.8183 61.9067 70.4759L61.7447 70.2465C61.5236 69.9143 61.222 69.6436 60.8679 69.4596C60.5138 69.2755 60.1189 69.1842 59.7199 69.194C59.3393 69.2038 58.9662 69.303 58.6309 69.4835C58.2956 69.664 58.0075 69.9207 57.7897 70.233L57.4792 70.6783C57.249 71.0231 56.9506 71.3171 56.6023 71.5422C56.2541 71.7673 55.8635 71.9187 55.4545 71.9871C55.2794 72.0043 55.1031 72.0043 54.928 71.9871Z" fill="url(#paint1_linear)"/>
<path d="M59.5 63C58.61 63 57.74 62.7361 56.9999 62.2416C56.2599 61.7471 55.6831 61.0443 55.3425 60.2221C55.0019 59.3998 54.9128 58.495 55.0865 57.6221C55.2601 56.7492 55.6887 55.9474 56.318 55.318C56.9474 54.6887 57.7492 54.2601 58.6221 54.0865C59.495 53.9128 60.3998 54.0019 61.2221 54.3425C62.0443 54.6831 62.7471 55.2599 63.2416 55.9999C63.7361 56.74 64 57.61 64 58.5C64 59.6935 63.5259 60.8381 62.682 61.682C61.8381 62.5259 60.6935 63 59.5 63Z" fill="white"/>
<defs>
<linearGradient id="paint0_linear" x1="39.8809" y1="6.6237" x2="39.8809" y2="80.2261" gradientUnits="userSpaceOnUse">
<stop stop-color="#00B9FF"/>
<stop offset="1" stop-color="#0068B5"/>
</linearGradient>
<linearGradient id="paint1_linear" x1="46" y1="60.39" x2="73.0105" y2="60.2264" gradientUnits="userSpaceOnUse">
<stop stop-color="#FF6753"/>
<stop offset="1" stop-color="#FF8F50"/>
</linearGradient>
</defs>
</svg>
