<svg width="80" height="80" viewBox="0 0 80 80" fill="none" xmlns="http://www.w3.org/2000/svg">
<path d="M24.3282 61C15.9194 61 9 54.1386 9 45.8676C9 39.3276 14.023 33.2789 20.5744 31.3529C23.908 23.7359 31.2506 19 39.6564 19C50.5144 19 59.2825 26.8946 60.6154 37.2206C63.2709 37.8604 65.8079 39.4299 67.4974 41.5441C69.1869 43.6584 69.9953 46.2667 70 48.9559C70 55.5739 64.5283 61 57.8 61" stroke="url(#paint0_linear)" stroke-width="4" stroke-linecap="round" stroke-linejoin="round"/>
<path d="M48.5 31C48.5 30.1716 47.8284 29.5 47 29.5C46.1716 29.5 45.5 30.1716 45.5 31H48.5ZM47 47.6138L46.5896 49.0565L48.5 49.6V47.6138H47ZM39 45.3379L39.4104 43.8952L37.5 43.3517V45.3379H39ZM37.9393 65.0607C38.5251 65.6464 39.4749 65.6464 40.0607 65.0607L49.6066 55.5147C50.1924 54.9289 50.1924 53.9792 49.6066 53.3934C49.0208 52.8076 48.0711 52.8076 47.4853 53.3934L39 61.8787L30.5147 53.3934C29.9289 52.8076 28.9792 52.8076 28.3934 53.3934C27.8076 53.9792 27.8076 54.9289 28.3934 55.5147L37.9393 65.0607ZM45.5 31V47.6138H48.5V31H45.5ZM47.4104 46.171L39.4104 43.8952L38.5896 46.7807L46.5896 49.0565L47.4104 46.171ZM37.5 45.3379V64H40.5V45.3379H37.5Z" fill="url(#paint1_linear)"/>
<defs>
<linearGradient id="paint0_linear" x1="39.3702" y1="10.9632" x2="39.3702" y2="74.0509" gradientUnits="userSpaceOnUse">
<stop stop-color="#00B9FF"/>
<stop offset="1" stop-color="#0068B5"/>
</linearGradient>
<linearGradient id="paint1_linear" x1="39" y1="49.81" x2="47.0034" y2="49.7983" gradientUnits="userSpaceOnUse">
<stop stop-color="#FF6753"/>
<stop offset="1" stop-color="#FF8F50"/>
</linearGradient>
</defs>
</svg>
