<svg width="80" height="80" viewBox="0 0 80 80" fill="none" xmlns="http://www.w3.org/2000/svg">
<path d="M24.3282 58C15.9194 58 9 51.1386 9 42.8676C9 36.3276 14.023 30.2789 20.5744 28.3529C23.908 20.7359 31.2506 16 39.6564 16C50.5144 16 59.2825 23.8946 60.6154 34.2206C63.2709 34.8604 65.8079 36.4299 67.4974 38.5441C69.1869 40.6584 69.9953 43.2667 70 45.9559C70 52.5739 64.5283 58 57.8 58" stroke="url(#paint0_linear)" stroke-width="4" stroke-linecap="round" stroke-linejoin="round"/>
<path fill-rule="evenodd" clip-rule="evenodd" d="M40.0237 66.742C40.3208 66.903 40.6792 66.903 40.9763 66.742L47.448 63.2366C49.4287 62.1661 51.0852 60.5678 52.2395 58.6134C53.3938 56.659 54.0024 54.4221 54 52.1429V37.2857C53.9994 36.6797 53.7622 36.0987 53.3403 35.6701C52.9185 35.2416 52.3465 35.0006 51.75 35H29.25C28.6535 35.0006 28.0815 35.2416 27.6597 35.6701C27.2378 36.0987 27.0006 36.6797 27 37.2857V52.1429C26.9976 54.4221 27.6062 56.659 28.7605 58.6134C29.9148 60.5678 31.5713 62.1661 33.552 63.2366L40.0237 66.742ZM29.25 38.2857C29.25 37.7334 29.6977 37.2857 30.25 37.2857H50.75C51.3023 37.2857 51.75 37.7334 51.75 38.2857V52.1429C51.7521 54.008 51.2541 55.8384 50.3094 57.4377C49.3648 59.037 48.0092 60.3448 46.3882 61.2206L40.9763 64.1512C40.6791 64.3121 40.3209 64.3121 40.0238 64.1512L34.6118 61.2194C32.9909 60.3437 31.6355 59.0362 30.6909 57.4371C29.7462 55.838 29.2481 54.0078 29.25 52.1429V38.2857ZM37.5999 50.9121C37.9956 51.3391 38.6711 51.3391 39.0668 50.9121L44.739 44.7914C45.1348 44.3644 45.8102 44.3644 46.206 44.7914L46.3701 44.9685C46.7254 45.352 46.7254 45.9445 46.3701 46.328L39.0668 54.2086C38.6711 54.6356 37.9956 54.6356 37.5999 54.2086L34.6299 51.0039C34.2746 50.6204 34.2746 50.0279 34.6299 49.6444L34.794 49.4673C35.1898 49.0403 35.8652 49.0403 36.261 49.4673L37.5999 50.9121Z" fill="url(#paint1_linear)"/>
<defs>
<linearGradient id="paint0_linear" x1="39.3702" y1="7.96317" x2="39.3702" y2="71.0509" gradientUnits="userSpaceOnUse">
<stop stop-color="#00B9FF"/>
<stop offset="1" stop-color="#0068B5"/>
</linearGradient>
<linearGradient id="paint1_linear" x1="27" y1="53.1618" x2="54.0107" y2="53.0232" gradientUnits="userSpaceOnUse">
<stop stop-color="#FF6753"/>
<stop offset="1" stop-color="#FF8F50"/>
</linearGradient>
</defs>
</svg>
