<svg width="80" height="80" viewBox="0 0 80 80" fill="none" xmlns="http://www.w3.org/2000/svg">
<path fill-rule="evenodd" clip-rule="evenodd" d="M18 37.3333C18 26.6558 26.6558 18 37.3333 18C48.0108 18 56.6667 26.6558 56.6667 37.3333C56.6667 42.5597 54.5928 47.3018 51.2231 50.7814C51.1396 50.8423 51.0596 50.9104 50.9842 50.9858C50.9089 51.0612 50.8408 51.141 50.78 51.2246C47.3004 54.5934 42.559 56.6667 37.3333 56.6667C26.6558 56.6667 18 48.0108 18 37.3333ZM52.3571 55.1871C48.2979 58.6064 43.0562 60.6667 37.3333 60.6667C24.4467 60.6667 14 50.22 14 37.3333C14 24.4467 24.4467 14 37.3333 14C50.22 14 60.6667 24.4467 60.6667 37.3333C60.6667 43.057 58.6058 48.2993 55.1856 52.3588L65.4127 62.5858C66.1937 63.3669 66.1937 64.6332 65.4127 65.4142C64.6316 66.1953 63.3653 66.1953 62.5842 65.4142L52.3571 55.1871Z" fill="url(#paint0_linear)"/>
<path fill-rule="evenodd" clip-rule="evenodd" d="M33 30.5C33 29.6716 33.6716 29 34.5 29H48.5C49.3284 29 50 29.6716 50 30.5C50 31.3284 49.3284 32 48.5 32H34.5C33.6716 32 33 31.3284 33 30.5ZM26 42.5C26 41.6716 26.6716 41 27.5 41H41.5C42.3284 41 43 41.6716 43 42.5C43 43.3284 42.3284 44 41.5 44H27.5C26.6716 44 26 43.3284 26 42.5ZM27.5 35C26.6716 35 26 35.6716 26 36.5C26 37.3284 26.6716 38 27.5 38H48.5C49.3284 38 50 37.3284 50 36.5C50 35.6716 49.3284 35 48.5 35H27.5Z" fill="url(#paint1_linear)"/>
<defs>
<linearGradient id="paint0_linear" x1="39.8886" y1="4.04963" x2="39.8886" y2="82.1583" gradientUnits="userSpaceOnUse">
<stop stop-color="#00B9FF"/>
<stop offset="1" stop-color="#0068B5"/>
</linearGradient>
<linearGradient id="paint1_linear" x1="26" y1="37.55" x2="50.0079" y2="37.3174" gradientUnits="userSpaceOnUse">
<stop stop-color="#FF6753"/>
<stop offset="1" stop-color="#FF8F50"/>
</linearGradient>
</defs>
</svg>
