<svg width="80" height="80" viewBox="0 0 80 80" fill="none" xmlns="http://www.w3.org/2000/svg">
<rect x="10" y="15" width="61" height="42" rx="2" stroke="url(#paint0_linear)" stroke-width="4" stroke-linecap="round" stroke-linejoin="round"/>
<rect x="29" y="62" width="23" height="5" rx="2.5" fill="url(#paint1_linear)"/>
<path fill-rule="evenodd" clip-rule="evenodd" d="M50 54C49.4477 54 49 53.5523 49 53L49 32C49 31.4477 49.4477 31 50 31H51C51.5523 31 52 31.4477 52 32V53C52 53.5523 51.5523 54 51 54H50ZM40 54C39.4477 54 39 53.5523 39 53L39 36C39 35.4477 39.4477 35 40 35H41C41.5523 35 42 35.4477 42 36V53C42 53.5523 41.5523 54 41 54H40ZM30 54C29.4477 54 29 53.5523 29 53L29 40C29 39.4477 29.4477 39 30 39H31C31.5523 39 32 39.4477 32 40L32 53C32 53.5523 31.5523 54 31 54H30ZM25 54C24.4477 54 24 53.5523 24 53V43C24 42.4477 24.4477 42 25 42H26C26.5523 42 27 42.4477 27 43L27 53C27 53.5523 26.5523 54 26 54H25ZM34 53C34 53.5523 34.4477 54 35 54H36C36.5523 54 37 53.5523 37 53L37 40C37 39.4477 36.5523 39 36 39H35C34.4477 39 34 39.4477 34 40L34 53ZM44 53C44 53.5523 44.4477 54 45 54H46C46.5523 54 47 53.5523 47 53V36C47 35.4477 46.5523 35 46 35H45C44.4477 35 44 35.4477 44 36V53ZM54 53C54 53.5523 54.4477 54 55 54H56C56.5523 54 57 53.5523 57 53V32C57 31.4477 56.5523 31 56 31H55C54.4477 31 54 31.4477 54 32L54 53Z" fill="url(#paint2_linear)"/>
<path d="M25.7451 37.5699C25.5075 37.7106 25.4291 38.0173 25.5699 38.2549C25.7106 38.4925 26.0173 38.5709 26.2549 38.4301L25.7451 37.5699ZM39.5 30V29.5H39.363L39.2451 29.5699L39.5 30ZM45.5 30V30.5H45.6447L45.767 30.4227L45.5 30ZM55.4877 24.1101C55.5485 23.8408 55.3795 23.5731 55.1101 23.5123L50.7206 22.5211C50.4513 22.4603 50.1836 22.6293 50.1228 22.8987C50.062 23.1681 50.231 23.4357 50.5004 23.4965L54.4021 24.3776L53.5211 28.2794C53.4603 28.5487 53.6293 28.8164 53.8987 28.8772C54.1681 28.938 54.4357 28.769 54.4965 28.4996L55.4877 24.1101ZM26.2549 38.4301L39.7549 30.4301L39.2451 29.5699L25.7451 37.5699L26.2549 38.4301ZM39.5 30.5H45.5V29.5H39.5V30.5ZM45.767 30.4227L55.267 24.4227L54.733 23.5773L45.233 29.5773L45.767 30.4227Z" fill="url(#paint3_linear)"/>
<defs>
<linearGradient id="paint0_linear" x1="40.3617" y1="4.19776" x2="40.3617" y2="73.2939" gradientUnits="userSpaceOnUse">
<stop stop-color="#00B9FF"/>
<stop offset="1" stop-color="#0068B5"/>
</linearGradient>
<linearGradient id="paint1_linear" x1="40.4511" y1="61.0432" x2="40.4511" y2="68.5537" gradientUnits="userSpaceOnUse">
<stop stop-color="#00B9FF"/>
<stop offset="1" stop-color="#0068B5"/>
</linearGradient>
<linearGradient id="paint2_linear" x1="24" y1="44.11" x2="57.0115" y2="43.8232" gradientUnits="userSpaceOnUse">
<stop stop-color="#FF6753"/>
<stop offset="1" stop-color="#FF8F50"/>
</linearGradient>
<linearGradient id="paint3_linear" x1="26" y1="31.98" x2="55.0077" y2="31.6162" gradientUnits="userSpaceOnUse">
<stop stop-color="#FF6753"/>
<stop offset="1" stop-color="#FF8F50"/>
</linearGradient>
</defs>
</svg>
