<svg width="80" height="80" viewBox="0 0 80 80" fill="none" xmlns="http://www.w3.org/2000/svg">
<path d="M69.7002 51.1773V24.6916C67.0262 22.4522 57.4428 17.9403 40.5006 17.9403C23.5585 17.9403 13.975 22.4522 11.3011 24.6916V51.1773C13.975 53.4166 23.5585 57.9286 40.5006 57.9286C57.4428 57.9286 67.0262 53.4166 69.7002 51.1773Z" fill="white" stroke="url(#paint0_linear)" stroke-width="3" stroke-linecap="round" stroke-linejoin="round"/>
<path d="M66.6777 27.5789L57.8037 30.2703V37.8961V45.2976L66.6777 47.989M65.1627 30.2703V37.8961V45.2976" stroke="url(#paint1_linear)" stroke-linecap="round"/>
<path d="M14.3213 27.5789L23.1953 30.2703V37.8961V45.2976L14.3213 47.989M15.8364 30.2703V37.8961V45.2976" stroke="url(#paint2_linear)" stroke-linecap="round"/>
<path d="M69.7002 51.1773V24.6916C67.0262 22.4522 57.4428 17.9403 40.5006 17.9403C23.5585 17.9403 13.975 22.4522 11.3011 24.6916V51.1773C13.975 53.4166 23.5585 57.9286 40.5006 57.9286C57.4428 57.9286 67.0262 53.4166 69.7002 51.1773Z" stroke="url(#paint3_linear)" stroke-width="3" stroke-linecap="round" stroke-linejoin="round"/>
<path fill-rule="evenodd" clip-rule="evenodd" d="M49.208 30.0076C49.208 36.5445 44.8029 40.9726 40.3589 40.9726C35.9149 40.9726 31.5098 36.5445 31.5098 30.0076C31.5098 23.4708 35.9149 19.0426 40.3589 19.0426C44.8029 19.0426 49.208 23.4708 49.208 30.0076ZM44.689 43.0108C43.3477 43.6317 41.8871 43.9726 40.3589 43.9726C38.7473 43.9726 37.2108 43.5934 35.8102 42.9066C35.5082 44.4174 34.868 45.6869 34.0055 46.7374C32.8055 48.1988 31.2342 49.1665 29.7243 49.8198C28.2108 50.4746 26.689 50.8437 25.5132 51.0693C24.929 51.1815 24.4195 51.2601 24.0415 51.3184L24.0414 51.3184L24.03 51.3202C23.8351 51.3503 23.6899 51.3728 23.5784 51.3923C23.5145 51.4035 23.4816 51.4105 23.4706 51.4128C23.2341 51.4879 22.9915 51.5292 22.8206 51.5567C22.7241 51.5722 22.645 51.5841 22.5691 51.5955C22.4617 51.6116 22.3607 51.6268 22.2257 51.6499C21.832 51.7172 21.4043 51.8138 20.938 52.0067C20.0365 52.3794 18.8117 53.1863 17.5154 55.2034C16.1307 57.358 15.423 58.98 15.0518 60.3191C14.6831 61.6492 14.625 62.773 14.625 64C14.625 64.8284 13.9534 65.5 13.125 65.5C12.2966 65.5 11.625 64.8284 11.625 64C11.625 62.6592 11.6872 61.226 12.1608 59.5177C12.6319 57.8184 13.4885 55.9205 14.9916 53.5815C16.5832 51.1049 18.2663 49.8651 19.7915 49.2344C20.5385 48.9255 21.2037 48.7811 21.72 48.6928C21.8703 48.6671 22.0443 48.6407 22.1798 48.6201C22.2469 48.6099 22.3045 48.6011 22.345 48.5946C22.4905 48.5713 22.5454 48.558 22.5562 48.5554C22.5584 48.5548 22.5587 48.5547 22.5575 48.5551C22.7374 48.4952 22.9386 48.4587 23.0605 48.4374C23.2069 48.4117 23.3835 48.3845 23.5656 48.3564L23.5725 48.3553L23.5728 48.3552C23.9525 48.2967 24.4174 48.2249 24.9477 48.1231C26.013 47.9186 27.2989 47.6004 28.533 47.0665C29.7705 46.531 30.8865 45.8084 31.687 44.8336C32.4554 43.8977 32.9894 42.6635 33.003 40.9565C30.2656 38.3985 28.5098 34.4447 28.5098 30.0076C28.5098 22.295 33.8148 16.0426 40.3589 16.0426C46.9029 16.0426 52.208 22.295 52.208 30.0076C52.208 34.5707 50.3511 38.6225 47.4793 41.1709C47.534 42.7675 48.0549 43.9373 48.7908 44.8336C49.5912 45.8084 50.7073 46.531 51.9448 47.0665C53.1788 47.6004 54.4647 47.9186 55.53 48.1231C56.0603 48.2249 56.5252 48.2967 56.9049 48.3552L56.9052 48.3553L56.9121 48.3564C57.0942 48.3844 57.2709 48.4117 57.4173 48.4374C57.5392 48.4587 57.7403 48.4952 57.9202 48.5551C57.919 48.5547 57.9193 48.5548 57.9216 48.5554C57.9324 48.558 57.9873 48.5713 58.1327 48.5946C58.1731 48.6011 58.2304 48.6098 58.2971 48.6199L58.2979 48.6201L58.2981 48.6201C58.4335 48.6407 58.6075 48.6671 58.7578 48.6928C59.274 48.7811 59.9393 48.9255 60.6863 49.2344C62.2114 49.8651 63.8945 51.1049 65.4861 53.5815C66.9893 55.9205 67.8459 57.8184 68.3169 59.5177C68.7905 61.226 68.8528 62.6592 68.8528 64C68.8528 64.8284 68.1812 65.5 67.3528 65.5C66.5243 65.5 65.8528 64.8284 65.8528 64C65.8528 62.773 65.7947 61.6492 65.426 60.3191C65.0547 58.98 64.347 57.358 62.9624 55.2034C61.6661 53.1863 60.4412 52.3794 59.5398 52.0067C59.0735 51.8138 58.6457 51.7172 58.252 51.6499C58.117 51.6268 58.016 51.6116 57.9086 51.5955C57.8328 51.5841 57.7537 51.5722 57.6572 51.5567C57.4863 51.5292 57.2437 51.4879 57.0071 51.4128C56.9962 51.4105 56.9632 51.4035 56.8993 51.3923C56.7879 51.3728 56.6427 51.3503 56.4477 51.3202L56.4363 51.3184L56.4362 51.3184C56.0582 51.2601 55.5487 51.1815 54.9645 51.0693C53.7887 50.8437 52.267 50.4746 50.7535 49.8198C49.2435 49.1665 47.6723 48.1988 46.4723 46.7374C45.6296 45.7112 44.9992 44.4759 44.689 43.0108Z" fill="url(#paint4_linear)"/>
<path d="M36.875 22H29C26.7909 22 25 23.7909 25 26V32C25 34.2091 26.7909 36 29 36H33.9111C35.6717 36 37.1847 34.826 37.955 33.2428C38.5624 31.9944 39.3052 30.9091 40 30.9091C40.6948 30.9091 41.4376 31.9944 42.045 33.2428C42.8153 34.826 44.3283 36 46.0889 36H51C53.2091 36 55 34.2091 55 32V26C55 23.7909 53.2091 22 51 22H36.875Z" fill="url(#paint5_linear)"/>
<defs>
<linearGradient id="paint0_linear" x1="40.6249" y1="10.2884" x2="40.6249" y2="70.3544" gradientUnits="userSpaceOnUse">
<stop stop-color="#00B9FF"/>
<stop offset="1" stop-color="#0068B5"/>
</linearGradient>
<linearGradient id="paint1_linear" x1="62.2596" y1="23.6733" x2="62.2596" y2="54.3312" gradientUnits="userSpaceOnUse">
<stop stop-color="#00B9FF"/>
<stop offset="1" stop-color="#0068B5"/>
</linearGradient>
<linearGradient id="paint2_linear" x1="18.7394" y1="23.6733" x2="18.7394" y2="54.3312" gradientUnits="userSpaceOnUse">
<stop stop-color="#00B9FF"/>
<stop offset="1" stop-color="#0068B5"/>
</linearGradient>
<linearGradient id="paint3_linear" x1="40.6249" y1="10.2884" x2="40.6249" y2="70.3544" gradientUnits="userSpaceOnUse">
<stop stop-color="#00B9FF"/>
<stop offset="1" stop-color="#0068B5"/>
</linearGradient>
<linearGradient id="paint4_linear" x1="40.1171" y1="6.57878" x2="40.1171" y2="80.8682" gradientUnits="userSpaceOnUse">
<stop stop-color="#00B9FF"/>
<stop offset="1" stop-color="#0068B5"/>
</linearGradient>
<linearGradient id="paint5_linear" x1="25" y1="29.98" x2="55.0077" y2="29.5906" gradientUnits="userSpaceOnUse">
<stop stop-color="#FF6753"/>
<stop offset="1" stop-color="#FF8F50"/>
</linearGradient>
</defs>
</svg>
