<svg width="454" height="346" viewBox="0 0 454 346" fill="none" xmlns="http://www.w3.org/2000/svg">
<rect x="10.1865" y="1.5" width="201.604" height="186.275" fill="#F9F6F1" stroke="url(#paint0_linear)" stroke-width="3"/>
<path fill-rule="evenodd" clip-rule="evenodd" d="M63.2284 27.7132C60.5952 24.9378 56.7567 23.1895 52.4826 23.1895C44.5431 23.1895 38.1068 29.2224 38.1068 36.6643C38.1068 39.3661 38.9552 41.8821 40.4157 43.9912C38.1479 46.3734 36.7695 49.5155 36.7695 52.9595C36.7695 57.0402 38.7048 60.6973 41.7619 63.1683C40.2959 65.28 39.4441 67.8008 39.4441 70.508C39.4441 73.8269 40.7242 76.8654 42.8467 79.2137C41.5358 81.2457 40.7813 83.6285 40.7813 86.1765C40.7813 89.8466 42.3467 93.174 44.8858 95.6042C43.5544 98.8827 42.7873 102.736 42.7873 106.859C42.7873 118.801 49.2235 128.481 57.163 128.481C65.1025 128.481 71.5387 118.801 71.5387 106.859C71.5387 101.324 70.1563 96.2756 67.8824 92.451C68.9363 90.5771 69.5328 88.4421 69.5328 86.1765C69.5328 82.8577 68.2527 79.8191 66.1302 77.4708C67.4411 75.4388 68.1956 73.056 68.1956 70.508C68.1956 68.2382 67.5969 66.0994 66.5393 64.223C68.1886 64.841 69.9885 65.1809 71.8731 65.1809C72.2501 65.1809 72.6238 65.1673 72.9935 65.1406C75.3304 69.6181 80.2383 72.7018 85.9145 72.7018C86.5314 72.7018 87.1391 72.6653 87.7356 72.5947C90.2715 76.4213 94.7963 78.9692 99.9559 78.9692C102.062 78.9692 104.062 78.5447 105.864 77.7821C107.511 78.5421 109.364 78.969 111.323 78.969C114.012 78.969 116.5 78.1648 118.53 76.799C120.013 77.3892 121.645 77.7156 123.358 77.7156C125.944 77.7156 128.344 76.9722 130.328 75.701C132.588 78.4819 135.818 80.2227 139.406 80.2227C144.881 80.2227 149.525 76.1677 151.153 70.5484C152.007 70.7081 152.886 70.8001 153.785 70.8183C153.839 73.1822 154.514 75.4028 155.663 77.3427C153.247 79.8446 151.775 83.1628 151.775 86.8032C151.775 88.8113 152.223 90.7213 153.03 92.4503C150.989 94.8575 149.77 97.9044 149.77 101.218C149.77 103.54 150.368 105.731 151.429 107.662C151.366 107.73 151.304 107.799 151.242 107.868C149.52 102.045 143.825 97.7713 137.065 97.7713C135.749 97.7713 134.472 97.9335 133.258 98.2377C129.953 96.7559 125.972 95.8909 121.687 95.8909C110.239 95.8909 100.959 102.064 100.959 109.679C100.959 110.674 101.117 111.645 101.418 112.58C97.8743 118.556 95.6098 127.67 95.6098 137.882C95.6098 155.881 102.645 170.473 111.323 170.473C120.001 170.473 127.036 155.881 127.036 137.882C127.036 132.621 126.435 127.65 125.367 123.251C126.417 123.126 127.439 122.948 128.428 122.722C130.219 123.942 132.315 124.792 134.589 125.153C136.685 128.822 140.719 131.372 145.409 131.599C148.153 135.033 152.529 137.256 157.459 137.256C163.764 137.256 169.163 133.62 171.4 128.463C175.3 125.915 177.852 121.68 177.852 116.887C177.852 114.565 177.254 112.374 176.193 110.443C178.477 107.97 179.858 104.745 179.858 101.218C179.858 99.2102 179.411 97.3001 178.603 95.5711C180.645 93.164 181.864 90.1171 181.864 86.8032C181.864 84.3234 181.181 81.9931 179.982 79.9685C182.398 77.4667 183.87 74.1485 183.87 70.5081C183.87 68.447 183.398 66.4892 182.551 64.7244C184.226 62.4505 185.207 59.6927 185.207 56.7201C185.207 53.7474 184.226 50.9895 182.55 48.7156C183.398 46.9507 183.87 44.9929 183.87 42.9318C183.87 35.1437 177.134 28.8302 168.826 28.8302C160.627 28.8302 153.961 34.9768 153.785 42.6218C147.373 42.7514 141.95 46.6407 139.923 52.0316C139.751 52.0235 139.579 52.0195 139.406 52.0195C135.818 52.0195 132.588 53.7602 130.328 56.541C128.344 55.2698 125.944 54.5263 123.358 54.5263C120.669 54.5263 118.181 55.3305 116.151 56.6964C114.668 56.1062 113.036 55.7798 111.323 55.7798C110.873 55.7798 110.429 55.8023 109.991 55.8461C107.401 53.4783 103.86 52.0195 99.9559 52.0195C99.339 52.0195 98.7313 52.0559 98.1349 52.1266C95.5989 48.2999 91.0741 45.752 85.9145 45.752C85.5374 45.752 85.1638 45.7656 84.794 45.7924C82.9459 42.2513 79.4898 39.582 75.3173 38.6204C74.2169 32.9597 69.3433 28.5329 63.2284 27.7132Z" fill="#ED6976"/>
<path d="M99.1213 46.6921C99.1213 50.7127 95.6341 54.0263 91.2633 54.0263C86.8924 54.0263 83.4053 50.7127 83.4053 46.6921C83.4053 42.6715 86.8924 39.3579 91.2633 39.3579C95.6341 39.3579 99.1213 42.6715 99.1213 46.6921Z" fill="#C8DAA8" stroke="#1E1D47"/>
<path d="M100.986 43.3217C101.343 44.2252 101.56 45.192 101.614 46.1992L100.116 46.279C100.124 46.4157 100.127 46.5534 100.127 46.692C100.127 46.8306 100.124 46.9683 100.116 47.1049L101.614 47.1848C101.56 48.192 101.343 49.1588 100.986 50.0623L99.5912 49.5116C99.4899 49.7684 99.375 50.0194 99.2472 50.264L100.577 50.9586C100.121 51.8308 99.53 52.6296 98.8293 53.331L97.7682 52.2708C97.5712 52.468 97.3636 52.6565 97.1463 52.8354L98.0996 53.9934C97.3485 54.6119 96.5011 55.1301 95.5812 55.5257L94.9885 54.1478C94.7307 54.2587 94.4661 54.3585 94.1953 54.4464L94.6588 55.873C93.7429 56.1706 92.7686 56.3512 91.7564 56.3956L91.6906 54.897C91.5491 54.9033 91.4067 54.9064 91.2633 54.9064C91.12 54.9064 90.9775 54.9033 90.8361 54.897L90.7703 56.3956C89.758 56.3512 88.7838 56.1706 87.8678 55.873L88.3313 54.4464C88.0606 54.3585 87.7959 54.2587 87.5382 54.1478L86.9454 55.5257C86.0256 55.1301 85.1782 54.6119 84.427 53.9934L85.3804 52.8354C85.163 52.6565 84.9555 52.468 84.7584 52.2708L83.6973 53.331C82.9966 52.6296 82.4056 51.8308 81.9499 50.9586L83.2794 50.264C83.1516 50.0194 83.0367 49.7684 82.9354 49.5116L81.5401 50.0623C81.1836 49.1588 80.9662 48.192 80.9125 47.1848L82.4104 47.1049C82.4031 46.9683 82.3994 46.8306 82.3994 46.692C82.3994 46.5534 82.4031 46.4157 82.4104 46.279L80.9125 46.1992C80.9662 45.192 81.1836 44.2252 81.5401 43.3217L82.9354 43.8723C83.0367 43.6156 83.1516 43.3645 83.2794 43.1199L81.9499 42.4254C82.4056 41.5531 82.9966 40.7543 83.6973 40.053L84.7584 41.1132C84.9555 40.916 85.163 40.7275 85.3804 40.5485L84.427 39.3905C85.1782 38.7721 86.0256 38.2539 86.9454 37.8582L87.5382 39.2361C87.7959 39.1252 88.0605 39.0255 88.3313 38.9375L87.8678 37.5109C88.7837 37.2133 89.758 37.0328 90.7703 36.9883L90.8361 38.4869C90.9775 38.4807 91.12 38.4775 91.2633 38.4775C91.4067 38.4775 91.5491 38.4807 91.6906 38.4869L91.7564 36.9883C92.7686 37.0328 93.7429 37.2133 94.6588 37.5109L94.1953 38.9375C94.4661 39.0255 94.7307 39.1252 94.9885 39.2361L95.5812 37.8582C96.5011 38.2539 97.3485 38.7721 98.0996 39.3905L97.1463 40.5485C97.3636 40.7275 97.5712 40.916 97.7682 41.1132L98.8293 40.053C99.53 40.7543 100.121 41.5531 100.577 42.4254L99.2472 43.1199C99.375 43.3645 99.4899 43.6156 99.5912 43.8723L100.986 43.3217Z" stroke="#1E1D47" stroke-width="3" stroke-linejoin="round" stroke-dasharray="1 3"/>
<path d="M49.6418 64.241C49.6418 68.2615 46.1546 71.5752 41.7838 71.5752C37.4129 71.5752 33.9258 68.2615 33.9258 64.241C33.9258 60.2204 37.4129 56.9067 41.7838 56.9067C46.1546 56.9067 49.6418 60.2204 49.6418 64.241Z" fill="#C8DAA8" stroke="#1E1D47"/>
<path d="M51.507 60.8705C51.8636 61.774 52.0809 62.7408 52.1346 63.748L50.6368 63.8278C50.644 63.9645 50.6477 64.1022 50.6477 64.2408C50.6477 64.3794 50.644 64.5171 50.6368 64.6538L52.1346 64.7336C52.0809 65.7408 51.8636 66.7076 51.507 67.6111L50.1117 67.0605C50.0104 67.3172 49.8955 67.5682 49.7677 67.8129L51.0972 68.5074C50.6416 69.3797 50.0506 70.1785 49.3498 70.8798L48.2887 69.8196C48.0917 70.0168 47.8841 70.2053 47.6668 70.3842L48.6201 71.5423C47.869 72.1607 47.0216 72.6789 46.1017 73.0746L45.509 71.6966C45.2512 71.8075 44.9866 71.9073 44.7159 71.9953L45.1793 73.4219C44.2634 73.7194 43.2891 73.9 42.2769 73.9444L42.2111 72.4459C42.0696 72.4521 41.9272 72.4552 41.7838 72.4552C41.6405 72.4552 41.498 72.4521 41.3566 72.4459L41.2908 73.9444C40.2785 73.9 39.3043 73.7194 38.3883 73.4219L38.8518 71.9953C38.5811 71.9073 38.3164 71.8075 38.0587 71.6966L37.4659 73.0746C36.5461 72.6789 35.6987 72.1607 34.9475 71.5423L35.9009 70.3842C35.6836 70.2053 35.476 70.0168 35.2789 69.8196L34.2178 70.8798C33.5171 70.1785 32.9261 69.3797 32.4704 68.5074L33.7999 67.8129C33.6721 67.5682 33.5572 67.3172 33.4559 67.0605L32.0606 67.6111C31.7041 66.7076 31.4867 65.7408 31.433 64.7336L32.9309 64.6538C32.9236 64.5171 32.9199 64.3794 32.9199 64.2408C32.9199 64.1022 32.9236 63.9645 32.9309 63.8278L31.433 63.748C31.4867 62.7408 31.7041 61.774 32.0606 60.8705L33.4559 61.4211C33.5572 61.1644 33.6721 60.9134 33.7999 60.6687L32.4704 59.9742C32.9261 59.1019 33.5171 58.3031 34.2178 57.6018L35.2789 58.662C35.476 58.4648 35.6836 58.2763 35.9009 58.0974L34.9475 56.9393C35.6987 56.3209 36.5461 55.8027 37.4659 55.407L38.0587 56.785C38.3164 56.6741 38.5811 56.5743 38.8518 56.4863L38.3883 55.0597C39.3043 54.7622 40.2785 54.5816 41.2908 54.5372L41.3566 56.0357C41.498 56.0295 41.6405 56.0264 41.7838 56.0264C41.9272 56.0264 42.0696 56.0295 42.2111 56.0357L42.2769 54.5372C43.2891 54.5816 44.2634 54.7622 45.1793 55.0597L44.7159 56.4863C44.9866 56.5743 45.2512 56.6741 45.509 56.785L46.1017 55.407C47.0216 55.8027 47.869 56.3209 48.6201 56.9393L47.6668 58.0974C47.8841 58.2763 48.0917 58.4648 48.2887 58.662L49.3498 57.6018C50.0506 58.3031 50.6416 59.1019 51.0972 59.9742L49.7677 60.6687C49.8955 60.9134 50.0104 61.1644 50.1117 61.4211L51.507 60.8705Z" stroke="#1E1D47" stroke-width="3" stroke-linejoin="round" stroke-dasharray="1 3"/>
<path d="M141.245 74.2678C141.245 78.2884 137.758 81.602 133.387 81.602C129.016 81.602 125.529 78.2884 125.529 74.2678C125.529 70.2472 129.016 66.9336 133.387 66.9336C137.758 66.9336 141.245 70.2472 141.245 74.2678Z" fill="#C8DAA8" stroke="#1E1D47"/>
<path d="M143.111 70.8978C143.467 71.8013 143.684 72.7681 143.738 73.7753L142.24 73.8552C142.248 73.9918 142.251 74.1295 142.251 74.2681C142.251 74.4068 142.248 74.5444 142.24 74.6811L143.738 74.761C143.684 75.7682 143.467 76.735 143.111 77.6385L141.715 77.0878C141.614 77.3445 141.499 77.5956 141.371 77.8402L142.701 78.5348C142.245 79.407 141.654 80.2058 140.953 80.9071L139.892 79.8469C139.695 80.0442 139.488 80.2326 139.27 80.4116L140.224 81.5696C139.472 82.188 138.625 82.7062 137.705 83.1019L137.113 81.724C136.855 81.8349 136.59 81.9346 136.319 82.0226L136.783 83.4492C135.867 83.7468 134.893 83.9273 133.88 83.9718L133.815 82.4732C133.673 82.4794 133.531 82.4826 133.387 82.4826C133.244 82.4826 133.102 82.4794 132.96 82.4732L132.894 83.9718C131.882 83.9273 130.908 83.7468 129.992 83.4492L130.455 82.0226C130.185 81.9346 129.92 81.8349 129.662 81.724L129.069 83.1019C128.15 82.7062 127.302 82.188 126.551 81.5696L127.504 80.4116C127.287 80.2326 127.08 80.0442 126.882 79.8469L125.821 80.9071C125.121 80.2058 124.53 79.407 124.074 78.5348L125.403 77.8402C125.276 77.5956 125.161 77.3445 125.059 77.0878L123.664 77.6385C123.308 76.735 123.09 75.7682 123.037 74.761L124.534 74.6811C124.527 74.5444 124.523 74.4068 124.523 74.2681C124.523 74.1295 124.527 73.9918 124.534 73.8552L123.037 73.7753C123.09 72.7681 123.308 71.8013 123.664 70.8978L125.059 71.4485C125.161 71.1918 125.276 70.9407 125.403 70.6961L124.074 70.0015C124.53 69.1293 125.121 68.3305 125.821 67.6291L126.882 68.6893C127.08 68.4921 127.287 68.3037 127.504 68.1247L126.551 66.9667C127.302 66.3483 128.15 65.8301 129.069 65.4344L129.662 66.8123C129.92 66.7014 130.185 66.6016 130.455 66.5137L129.992 65.0871C130.908 64.7895 131.882 64.6089 132.894 64.5645L132.96 66.0631C133.102 66.0569 133.244 66.0537 133.387 66.0537C133.531 66.0537 133.673 66.0569 133.815 66.0631L133.88 64.5645C134.893 64.6089 135.867 64.7895 136.783 65.0871L136.319 66.5137C136.59 66.6016 136.855 66.7014 137.113 66.8123L137.705 65.4344C138.625 65.8301 139.472 66.3483 140.224 66.9667L139.27 68.1247C139.488 68.3037 139.695 68.4921 139.892 68.6893L140.953 67.6291C141.654 68.3305 142.245 69.1293 142.701 70.0015L141.371 70.6961C141.499 70.9407 141.614 71.1918 141.715 71.4485L143.111 70.8978Z" stroke="#1E1D47" stroke-width="3" stroke-linejoin="round" stroke-dasharray="1 3"/>
<path d="M182.701 93.697C182.701 97.7176 179.214 101.031 174.843 101.031C170.473 101.031 166.985 97.7176 166.985 93.697C166.985 89.6764 170.473 86.3628 174.843 86.3628C179.214 86.3628 182.701 89.6764 182.701 93.697Z" fill="#C8DAA8" stroke="#1E1D47"/>
<path d="M184.567 90.3265C184.923 91.23 185.141 92.1968 185.194 93.204L183.696 93.2839C183.704 93.4206 183.707 93.5582 183.707 93.6969C183.707 93.8355 183.704 93.9732 183.696 94.1098L185.194 94.1897C185.141 95.1969 184.923 96.1637 184.567 97.0672L183.171 96.5165C183.07 96.7732 182.955 97.0243 182.827 97.2689L184.157 97.9635C183.701 98.8357 183.11 99.6345 182.409 100.336L181.348 99.2756C181.151 99.4729 180.944 99.6613 180.726 99.8403L181.68 100.998C180.929 101.617 180.081 102.135 179.161 102.531L178.569 101.153C178.311 101.264 178.046 101.363 177.775 101.451L178.239 102.878C177.323 103.175 176.349 103.356 175.336 103.4L175.271 101.902C175.129 101.908 174.987 101.911 174.843 101.911C174.7 101.911 174.558 101.908 174.416 101.902L174.35 103.4C173.338 103.356 172.364 103.175 171.448 102.878L171.911 101.451C171.641 101.363 171.376 101.264 171.118 101.153L170.526 102.531C169.606 102.135 168.758 101.617 168.007 100.998L168.96 99.8403C168.743 99.6613 168.536 99.4729 168.339 99.2756L167.277 100.336C166.577 99.6345 165.986 98.8357 165.53 97.9635L166.86 97.2689C166.732 97.0243 166.617 96.7732 166.515 96.5165L165.12 97.0672C164.764 96.1637 164.546 95.1969 164.493 94.1897L165.99 94.1098C165.983 93.9732 165.979 93.8355 165.979 93.6969C165.979 93.5582 165.983 93.4206 165.99 93.2839L164.493 93.204C164.546 92.1968 164.764 91.23 165.12 90.3265L166.515 90.8772C166.617 90.6205 166.732 90.3694 166.86 90.1248L165.53 89.4302C165.986 88.558 166.577 87.7592 167.277 87.0579L168.339 88.1181C168.536 87.9208 168.743 87.7324 168.96 87.5534L168.007 86.3954C168.758 85.777 169.606 85.2588 170.526 84.8631L171.118 86.241C171.376 86.1301 171.641 86.0304 171.911 85.9424L171.448 84.5158C172.364 84.2182 173.338 84.0377 174.35 83.9932L174.416 85.4918C174.558 85.4856 174.7 85.4824 174.843 85.4824C174.987 85.4824 175.129 85.4856 175.271 85.4918L175.336 83.9932C176.349 84.0377 177.323 84.2182 178.239 84.5158L177.775 85.9424C178.046 86.0304 178.311 86.1301 178.569 86.241L179.161 84.8631C180.081 85.2588 180.929 85.777 181.68 86.3954L180.726 87.5534C180.944 87.7324 181.151 87.9208 181.348 88.1181L182.409 87.0579C183.11 87.7592 183.701 88.558 184.157 89.4302L182.827 90.1248C182.955 90.3694 183.07 90.6205 183.171 90.8772L184.567 90.3265Z" stroke="#1E1D47" stroke-width="3" stroke-linejoin="round" stroke-dasharray="1 3"/>
<path d="M141.245 111.245C141.245 115.266 137.758 118.58 133.387 118.58C129.016 118.58 125.529 115.266 125.529 111.245C125.529 107.225 129.016 103.911 133.387 103.911C137.758 103.911 141.245 107.225 141.245 111.245Z" fill="#C8DAA8" stroke="#1E1D47"/>
<path d="M143.111 107.875C143.467 108.779 143.684 109.746 143.738 110.753L142.24 110.833C142.248 110.969 142.251 111.107 142.251 111.246C142.251 111.384 142.248 111.522 142.24 111.659L143.738 111.738C143.684 112.746 143.467 113.712 143.111 114.616L141.715 114.065C141.614 114.322 141.499 114.573 141.371 114.818L142.701 115.512C142.245 116.385 141.654 117.183 140.953 117.885L139.892 116.824C139.695 117.022 139.488 117.21 139.27 117.389L140.224 118.547C139.472 119.166 138.625 119.684 137.705 120.079L137.113 118.702C136.855 118.812 136.59 118.912 136.319 119L136.783 120.427C135.867 120.724 134.893 120.905 133.88 120.949L133.815 119.451C133.673 119.457 133.531 119.46 133.387 119.46C133.244 119.46 133.102 119.457 132.96 119.451L132.894 120.949C131.882 120.905 130.908 120.724 129.992 120.427L130.455 119C130.185 118.912 129.92 118.812 129.662 118.702L129.069 120.079C128.15 119.684 127.302 119.166 126.551 118.547L127.504 117.389C127.287 117.21 127.08 117.022 126.882 116.824L125.821 117.885C125.121 117.183 124.53 116.385 124.074 115.512L125.403 114.818C125.276 114.573 125.161 114.322 125.059 114.065L123.664 114.616C123.308 113.712 123.09 112.746 123.037 111.738L124.534 111.659C124.527 111.522 124.523 111.384 124.523 111.246C124.523 111.107 124.527 110.969 124.534 110.833L123.037 110.753C123.09 109.746 123.308 108.779 123.664 107.875L125.059 108.426C125.161 108.169 125.276 107.918 125.403 107.674L124.074 106.979C124.53 106.107 125.121 105.308 125.821 104.607L126.882 105.667C127.08 105.47 127.287 105.281 127.504 105.102L126.551 103.944C127.302 103.326 128.15 102.808 129.069 102.412L129.662 103.79C129.92 103.679 130.185 103.579 130.455 103.491L129.992 102.065C130.908 101.767 131.882 101.586 132.894 101.542L132.96 103.041C133.102 103.034 133.244 103.031 133.387 103.031C133.531 103.031 133.673 103.034 133.815 103.041L133.88 101.542C134.893 101.586 135.867 101.767 136.783 102.065L136.319 103.491C136.59 103.579 136.855 103.679 137.113 103.79L137.705 102.412C138.625 102.808 139.472 103.326 140.224 103.944L139.27 105.102C139.488 105.281 139.695 105.47 139.892 105.667L140.953 104.607C141.654 105.308 142.245 106.107 142.701 106.979L141.371 107.674C141.499 107.918 141.614 108.169 141.715 108.426L143.111 107.875Z" stroke="#1E1D47" stroke-width="3" stroke-linejoin="round" stroke-dasharray="1 3"/>
<path d="M180.695 29.1438C180.695 33.1644 177.208 36.478 172.837 36.478C168.467 36.478 164.979 33.1644 164.979 29.1438C164.979 25.1232 168.467 21.8096 172.837 21.8096C177.208 21.8096 180.695 25.1232 180.695 29.1438Z" fill="#C8DAA8" stroke="#1E1D47"/>
<path d="M182.561 25.7733C182.917 26.6768 183.135 27.6436 183.188 28.6508L181.69 28.7307C181.698 28.8673 181.701 29.005 181.701 29.1436C181.701 29.2823 181.698 29.4199 181.69 29.5566L183.188 29.6364C183.135 30.6436 182.917 31.6104 182.561 32.514L181.165 31.9633C181.064 32.22 180.949 32.4711 180.821 32.7157L182.151 33.4102C181.695 34.2825 181.104 35.0813 180.404 35.7826L179.342 34.7224C179.145 34.9196 178.938 35.1081 178.72 35.2871L179.674 36.4451C178.923 37.0635 178.075 37.5817 177.155 37.9774L176.563 36.5995C176.305 36.7104 176.04 36.8101 175.77 36.8981L176.233 38.3247C175.317 38.6223 174.343 38.8028 173.331 38.8473L173.265 37.3487C173.123 37.3549 172.981 37.3581 172.838 37.3581C172.694 37.3581 172.552 37.3549 172.41 37.3487L172.344 38.8473C171.332 38.8028 170.358 38.6223 169.442 38.3247L169.906 36.8981C169.635 36.8101 169.37 36.7104 169.112 36.5995L168.52 37.9774C167.6 37.5817 166.752 37.0635 166.001 36.4451L166.955 35.2871C166.737 35.1081 166.53 34.9196 166.333 34.7224L165.272 35.7826C164.571 35.0813 163.98 34.2825 163.524 33.4102L164.854 32.7157C164.726 32.4711 164.611 32.22 164.51 31.9633L163.114 32.514C162.758 31.6104 162.54 30.6436 162.487 29.6364L163.985 29.5566C163.977 29.4199 163.974 29.2823 163.974 29.1436C163.974 29.005 163.977 28.8673 163.985 28.7307L162.487 28.6508C162.54 27.6436 162.758 26.6768 163.114 25.7733L164.51 26.324C164.611 26.0673 164.726 25.8162 164.854 25.5716L163.524 24.877C163.98 24.0048 164.571 23.206 165.272 22.5046L166.333 23.5648C166.53 23.3676 166.737 23.1791 166.955 23.0002L166.001 21.8422C166.752 21.2237 167.6 20.7055 168.52 20.3099L169.112 21.6878C169.37 21.5769 169.635 21.4771 169.906 21.3892L169.442 19.9626C170.358 19.665 171.332 19.4844 172.344 19.44L172.41 20.9386C172.552 20.9323 172.694 20.9292 172.838 20.9292C172.981 20.9292 173.123 20.9323 173.265 20.9386L173.331 19.44C174.343 19.4844 175.317 19.665 176.233 19.9626L175.77 21.3892C176.04 21.4771 176.305 21.5769 176.563 21.6878L177.155 20.3099C178.075 20.7055 178.923 21.2237 179.674 21.8422L178.72 23.0002C178.938 23.1791 179.145 23.3676 179.342 23.5648L180.404 22.5046C181.104 23.206 181.695 24.0048 182.151 24.877L180.821 25.5716C180.949 25.8162 181.064 26.0673 181.165 26.324L182.561 25.7733Z" stroke="#1E1D47" stroke-width="3" stroke-linejoin="round" stroke-dasharray="1 3"/>
<ellipse cx="172.503" cy="55.1533" rx="6.01775" ry="5.64064" fill="#DF454F"/>
<ellipse cx="156.456" cy="119.08" rx="6.01775" ry="5.64064" fill="#DF454F"/>
<ellipse cx="56.1603" cy="87.7432" rx="6.01775" ry="5.64064" fill="#DF454F"/>
<path d="M237.694 45.7514C254.544 43.9965 257.196 85.3403 256.416 106.232C255.525 108.321 251.937 112.75 244.715 113.752C235.689 115.006 211.952 105.605 210.949 102.471C209.946 99.3375 210.28 65.4937 211.952 62.36C213.623 59.2263 216.632 47.945 237.694 45.7514Z" fill="#262A5A"/>
<path d="M294.529 139.449C293.192 137.569 284.834 131.928 284.165 131.615L271.127 139.449C274.693 146.03 285.503 158.314 300.213 154.804C318.6 150.417 336.319 126.288 337.991 124.408C339.662 122.527 343.674 125.348 347.686 126.288C351.698 127.228 352.032 125.348 355.71 123.154C359.387 120.961 357.047 117.2 356.713 114.693C356.378 112.186 352.701 111.246 349.023 112.186C345.346 113.126 343.006 116.887 339.328 117.2C335.651 117.513 336.988 114.693 336.319 113.44C335.651 112.186 332.976 112.5 333.645 114.693C334.18 116.448 331.862 118.558 330.636 119.394L301.884 136.942C299.878 138.405 295.599 140.954 294.529 139.449Z" fill="#F49F8A"/>
<path d="M176.833 150.205C178.342 144.151 184.753 136.542 187.77 133.495L205.871 142.007C202.602 145.266 195.689 152.16 194.18 153.673C192.672 155.187 196.066 157.457 197.951 158.403L230.005 184.887H211.527C209.013 183.416 202.25 179.653 195.312 176.374C186.638 172.275 179.096 163.447 177.588 161.556C176.079 159.664 174.948 157.772 176.833 150.205Z" fill="#F49F8A"/>
<path fill-rule="evenodd" clip-rule="evenodd" d="M222.651 96.5176H244.047L245.385 100.278C254.077 102.158 275.072 111.183 289.515 132.242C290.585 133.746 290.184 134.957 289.849 135.375C286.506 134.122 282.828 136.315 282.828 136.315L276.811 141.956C276.811 141.956 274.805 145.403 277.479 147.597C278.148 149.164 274.805 150.104 273.468 149.79C272.398 149.54 267.896 146.134 265.778 144.463C267.227 150.835 270.793 168.53 273.468 188.335L259.76 209.957L209.613 188.335L190.222 187.226C187.012 185.337 183.535 172.763 182.198 166.712C183.693 168.288 185.447 169.805 187.318 171.229C189.396 172.898 191.69 174.495 194.092 175.764C198.26 178.249 202.217 180.141 204.597 181.127L204.743 181.13C207.77 182.741 210.222 184.123 211.528 184.887H230.006L197.952 158.403C196.066 157.457 192.672 155.187 194.181 153.673C195.689 152.16 202.603 145.266 205.871 142.008L187.77 133.495C186.571 134.706 184.836 136.637 183.086 138.905C182.795 138.974 182.5 139.051 182.198 139.136C181.53 139.345 180.192 139.324 180.192 137.569C186.344 111.246 209.724 101.949 220.645 100.591L222.651 96.5176Z" fill="#F9F6F1"/>
<path opacity="0.2" d="M235.021 101.218C237.361 106.858 235.021 107.172 235.021 110.932C235.021 114.693 246.053 134.748 246.053 188.334" stroke="#262A5A" stroke-linecap="round"/>
<path d="M224.656 96.5173C225.994 81.2249 225.436 74.0592 224.991 72.3879C229.002 68.8782 236.469 80.1177 239.701 86.1762L240.369 96.8307C233.95 104.352 227.219 99.7555 224.656 96.5173Z" fill="#F49F8A"/>
<path d="M240.035 87.4295C232.011 87.4295 226.662 77.6106 224.99 72.7012C221.982 72.0744 220.979 71.4477 220.31 68.0006C219.775 65.243 223.653 65.5981 225.659 66.1204C226.194 65.8697 226.105 62.2555 225.993 60.4798C240.703 61.4199 242.709 57.3461 243.378 56.406C243.913 55.6539 244.492 56.0926 244.715 56.406C245.161 57.4506 246.119 59.7277 246.387 60.4798C246.721 61.4199 250.064 87.4295 240.035 87.4295Z" fill="#F7B295"/>
<path fill-rule="evenodd" clip-rule="evenodd" d="M427.254 97.7432C427.254 92.2203 422.777 87.7432 417.254 87.7432H383.763C378.24 87.7432 373.763 92.2203 373.763 97.7432V291.461C373.763 296.984 378.24 301.461 383.763 301.461H417.254C422.777 301.461 427.254 296.984 427.254 291.461V97.7432ZM454 308.042C454 304.407 451.054 301.461 447.419 301.461H328.19C324.556 301.461 321.609 304.407 321.609 308.042C321.609 311.676 324.556 314.622 328.19 314.622H447.419C451.054 314.622 454 311.676 454 308.042Z" fill="#79BBDE"/>
<rect x="346.018" y="97.3979" width="94.2722" height="76.5818" rx="18" fill="#FEF3ED" stroke="#78A9CA" stroke-width="2"/>
<rect x="381.787" y="104.666" width="50.8166" height="62.047" rx="5" fill="#CCE4EE"/>
<rect x="419.23" y="107.799" width="10.0296" height="9.40106" rx="4.70053" fill="url(#paint1_linear)"/>
<rect x="419.23" y="120.334" width="10.0296" height="9.40106" rx="4.70053" fill="#9ABCED"/>
<rect x="394.491" y="107.799" width="20.7278" height="3.76043" rx="1.88021" fill="#FEF3ED"/>
<rect x="394.491" y="123.467" width="20.7278" height="3.76043" rx="1.88021" fill="#9ABCED"/>
<rect x="394.491" y="129.735" width="20.7278" height="3.76043" rx="1.88021" fill="#9ABCED"/>
<rect x="394.491" y="136.002" width="20.7278" height="3.76043" rx="1.88021" fill="#9ABCED"/>
<rect x="394.491" y="113.439" width="9.36095" height="3.76043" rx="1.88021" fill="#FEF3ED"/>
<rect x="405.858" y="113.439" width="9.36095" height="3.76043" rx="1.88021" fill="#FEF3ED"/>
<rect x="353.704" y="104.666" width="24.071" height="62.047" rx="5" fill="#A6D4E1"/>
<rect x="359.054" y="113.439" width="13.3728" height="6.26738" rx="2" fill="#CCE4EE"/>
<rect x="359.054" y="123.467" width="13.3728" height="6.26738" rx="2" fill="#CCE4EE"/>
<rect x="359.054" y="133.495" width="13.3728" height="6.26738" rx="2" fill="#CCE4EE"/>
<path d="M371.926 151.671C371.926 154.826 369.188 157.438 365.74 157.438C362.292 157.438 359.554 154.826 359.554 151.671C359.554 148.515 362.292 145.903 365.74 145.903C369.188 145.903 371.926 148.515 371.926 151.671Z" fill="#67BDF2" stroke="#4293C5"/>
<path d="M323.787 174.425C324.081 154.677 352.323 150.197 366.408 150.425V153.854C362.734 152.139 334.444 157.625 329.665 165.168C324.887 172.711 328.196 183.682 329.665 187.796C331.135 191.911 336.647 193.968 336.279 198.082C335.985 201.373 332.482 205.168 330.768 206.653C324.766 209.968 315.63 214.265 327.093 204.939C341.423 193.282 323.419 199.11 323.787 174.425Z" fill="#3178A4"/>
<rect x="23.0654" y="234.653" width="66.858" height="10.7743" rx="5.38716" fill="#FEF3ED" stroke="#78A9CA" stroke-width="2"/>
<rect x="75.8877" y="257.843" width="249.396" height="86.6096" rx="11" fill="#FEF3ED" stroke="#78A9CA" stroke-width="2"/>
<path d="M2 244.054H1V245.054C1 252.529 7.05973 258.589 14.5348 258.589H398.672C406.147 258.589 412.207 252.529 412.207 245.054V244.054H411.207H2Z" fill="#FEF3ED" stroke="#78A9CA" stroke-width="2"/>
<rect x="331.64" y="30.71" width="6.01775" height="183.634" rx="3" fill="#D7EDF8"/>
<rect x="290.184" y="58.9131" width="70.8757" height="13.7882" rx="3" fill="#EBF8FE"/>
<rect x="304.225" y="62.0469" width="42.7929" height="7.52085" rx="3" fill="#A9DDFD"/>
<rect x="349.023" y="62.6733" width="2.67456" height="2.50695" rx="1.25348" fill="#A9DDFD"/>
<rect x="349.023" y="66.4336" width="2.67456" height="2.50695" rx="1.25348" fill="#A9DDFD"/>
<rect x="353.036" y="62.6733" width="2.67456" height="2.50695" rx="1.25348" fill="#A9DDFD"/>
<rect x="353.036" y="66.4336" width="2.67456" height="2.50695" rx="1.25348" fill="#A9DDFD"/>
<rect x="290.184" y="107.172" width="70.8757" height="13.7882" rx="3" fill="#EBF8FE"/>
<rect x="304.225" y="110.306" width="42.7929" height="7.52085" rx="3" fill="#A9DDFD"/>
<rect x="349.023" y="110.932" width="2.67456" height="2.50695" rx="1.25348" fill="#A9DDFD"/>
<rect x="349.023" y="114.693" width="2.67456" height="2.50695" rx="1.25348" fill="#A9DDFD"/>
<rect x="353.036" y="110.932" width="2.67456" height="2.50695" rx="1.25348" fill="#A9DDFD"/>
<rect x="353.036" y="114.693" width="2.67456" height="2.50695" rx="1.25348" fill="#A9DDFD"/>
<rect x="290.184" y="162.325" width="70.8757" height="13.7882" rx="3" fill="#EBF8FE"/>
<rect x="304.225" y="165.459" width="42.7929" height="7.52085" rx="3" fill="#A9DDFD"/>
<rect x="349.023" y="166.086" width="2.67456" height="2.50695" rx="1.25348" fill="#A9DDFD"/>
<rect x="349.023" y="169.846" width="2.67456" height="2.50695" rx="1.25348" fill="#A9DDFD"/>
<rect x="353.036" y="166.086" width="2.67456" height="2.50695" rx="1.25348" fill="#A9DDFD"/>
<rect x="353.036" y="169.846" width="2.67456" height="2.50695" rx="1.25348" fill="#A9DDFD"/>
<path d="M37.1038 227.192C34.9642 223.432 47.802 219.358 54.4884 217.791C65.521 215.284 123.358 231.266 116.338 236.28C109.317 241.294 69.5328 239.1 61.1748 237.847C52.8168 236.593 39.7784 231.893 37.1038 227.192Z" fill="#F0A77F"/>
<path opacity="0.4" d="M73.2104 228.446C68.9757 227.088 57.698 224.497 46.4648 224.999" stroke="#926148" stroke-linecap="round"/>
<path d="M58.8347 199.929C56.4944 201.809 52.8169 207.136 53.8199 218.418C53.9317 219.984 55.4915 221.865 56.4944 222.492C57.4974 223.118 60.8406 223.745 64.1838 223.118C66.8583 222.617 71.5388 227.505 73.5447 230.012C74.7706 231.997 78.3589 235.904 82.9057 235.653C87.4524 235.402 95.3869 230.43 98.2844 227.819L115 229.386L129.376 185.201C129.71 182.485 128.975 176.865 123.358 176.113C116.338 175.173 115 176.74 112.66 178.306C110.32 179.873 110.989 182.067 105.974 183.007C100.959 183.947 96.6128 182.694 89.2577 183.007C81.9027 183.32 79.2282 191.781 79.5625 193.975C79.8968 196.168 78.2252 198.049 75.885 198.989C73.5447 199.929 73.2104 198.362 69.5329 198.049C65.8554 197.735 61.1749 198.049 58.8347 199.929Z" fill="#521B21"/>
<path d="M169.16 181.753C166.486 181.753 119.681 182.067 110.654 193.035C113.997 200.556 127.705 199.407 132.719 198.675C141.523 197.108 159.599 194.288 161.471 195.542C163.343 196.795 155.119 224.894 150.773 238.787C147.987 239.309 141.947 240.479 140.074 240.98C138.202 240.98 137.288 242.025 137.066 242.547C136.954 243.278 137.066 244.991 138.403 245.994C137.868 244.741 138.18 243.383 138.403 242.86C138.737 242.547 139.406 242.108 139.406 242.86L142.08 248.501V242.86C142.303 242.443 142.816 241.795 143.083 242.547L144.755 248.188C144.532 246.621 144.287 243.424 145.089 243.174H146.761C155.787 243.487 155.787 242.234 156.456 241.607C157.125 240.98 155.787 239.1 157.125 238.16C169.495 222.178 172.503 184.574 172.503 183.32C172.503 182.067 171.835 181.753 169.16 181.753Z" fill="#F8B48F"/>
<path d="M72.8756 215.284C71.5383 216.851 67.8608 221.865 62.5117 223.118C66.5236 227.819 77.8904 230.639 83.9082 230.012C88.7224 229.511 92.1547 225.207 93.2691 223.118C97.5484 223.118 97.5038 226.252 96.9466 227.819C97.6153 228.55 99.688 229.636 102.63 228.132C114.398 222.617 109.762 211.837 105.973 207.136C105.305 209.33 103.916 210.824 101.627 212.15C97.9625 214.274 94.829 212.896 90.5946 212.15C85.2528 211.21 79.7849 208.39 77.8904 206.823C76.6646 206.405 74.0123 205.695 73.2099 206.196C72.207 206.823 72.8756 208.077 72.8756 208.077L74.8815 209.017C75.5502 209.33 74.2129 213.717 72.8756 215.284Z" fill="#F8B48F"/>
<path fill-rule="evenodd" clip-rule="evenodd" d="M149.666 196.055C148.649 199.365 148.834 203.088 151.776 208.39C154.548 213.387 155.28 217.365 155.793 222.03C159.419 209.384 162.731 196.386 161.471 195.542C160.533 194.914 155.531 195.308 149.666 196.055ZM155.585 242.401C155.925 242.205 156.102 242.002 156.257 241.822C156.324 241.745 156.386 241.673 156.456 241.607C156.735 241.345 156.665 240.864 156.585 240.325C156.474 239.573 156.346 238.707 157.125 238.16C167.736 224.45 171.459 194.829 172.303 185.893C178.002 185.125 183.746 184.571 187.882 184.261C218.305 183.425 302.353 188.209 395.16 214.031C398.169 214.239 404.387 219.421 405.19 238.473C406.006 257.866 405.493 264.169 405.274 266.856C405.224 267.469 405.19 267.894 405.19 268.243C405.19 270.124 398.503 274.824 396.832 275.137C396.274 275.242 372.947 275.207 341.929 275.161C279.969 275.068 187.324 274.929 184.205 275.764C179.524 277.018 164.145 274.197 155.453 264.483C151.821 259.187 153.547 251.495 155.193 244.161C155.325 243.571 155.457 242.984 155.585 242.401Z" fill="url(#paint2_linear)"/>
<path fill-rule="evenodd" clip-rule="evenodd" d="M155.793 222.03C154.031 228.178 152.194 234.242 150.772 238.787C147.986 239.309 141.946 240.479 140.074 240.981C138.202 240.981 137.288 242.025 137.065 242.547C137.053 242.627 137.044 242.719 137.038 242.82C133.204 242.665 129.963 242.387 128.373 241.921C124.094 240.667 104.748 235.34 95.6096 232.833C94.718 232.415 93.1356 231.391 93.938 230.639C94.1862 230.407 94.4942 230.108 94.8242 229.788L94.8244 229.788C95.5612 229.073 96.4081 228.252 96.9469 227.819C98.8413 228.655 104.101 228.697 108.648 222.178C109.54 220.716 110.119 215.974 105.305 208.704C106.976 204.421 110.386 195.291 110.654 193.035C110.662 193.054 110.671 193.073 110.679 193.092C114.066 200.55 127.717 199.405 132.719 198.676C133.383 198.558 134.1 198.432 134.858 198.302C138.624 198.356 144.064 199.08 149.109 199.919C149.155 202.307 149.912 205.032 151.775 208.39C154.548 213.387 155.28 217.365 155.793 222.03ZM156.257 241.822C156.102 242.002 155.925 242.205 155.585 242.401C155.55 242.562 155.514 242.724 155.478 242.886C155.007 242.897 154.51 242.908 153.992 242.918C155.562 242.625 155.95 242.177 156.257 241.822L156.257 241.822C156.323 241.745 156.386 241.673 156.456 241.607C156.49 241.575 156.52 241.539 156.544 241.5L156.544 241.5C156.52 241.539 156.491 241.575 156.456 241.607C156.386 241.673 156.323 241.745 156.257 241.822ZM156.736 238.557L156.736 238.557C156.401 239.078 156.498 239.736 156.585 240.325L156.585 240.325V240.325C156.593 240.383 156.602 240.441 156.61 240.497L156.61 240.497C156.602 240.44 156.593 240.383 156.585 240.325C156.498 239.736 156.401 239.078 156.736 238.557ZM139.424 242.899C139.079 242.89 138.737 242.88 138.399 242.869L138.402 242.861C138.737 242.547 139.405 242.109 139.405 242.861L139.424 242.899ZM143.208 242.969C142.831 242.965 142.455 242.96 142.08 242.955V242.861C142.303 242.443 142.816 241.795 143.083 242.547L143.208 242.969Z" fill="url(#paint3_linear)"/>
<path opacity="0.2" d="M212.287 137.255C213.736 134.331 217.703 127.854 221.982 125.347M262.769 132.555C260.63 119.519 257.197 113.335 255.749 111.873" stroke="#262A5A" stroke-linecap="round"/>
<defs>
<linearGradient id="paint0_linear" x1="8.68652" y1="107.887" x2="213.368" y2="106.547" gradientUnits="userSpaceOnUse">
<stop stop-color="#FF6753"/>
<stop offset="1" stop-color="#FF8F50"/>
</linearGradient>
<linearGradient id="paint1_linear" x1="419.23" y1="113.157" x2="429.264" y2="113.093" gradientUnits="userSpaceOnUse">
<stop stop-color="#FF6753"/>
<stop offset="1" stop-color="#FF8F50"/>
</linearGradient>
<linearGradient id="paint2_linear" x1="276.825" y1="166.593" x2="276.825" y2="304.592" gradientUnits="userSpaceOnUse">
<stop stop-color="#00B9FF"/>
<stop offset="1" stop-color="#0068B5"/>
</linearGradient>
<linearGradient id="paint3_linear" x1="93.7178" y1="221.498" x2="156.759" y2="221.016" gradientUnits="userSpaceOnUse">
<stop stop-color="#FF6753"/>
<stop offset="1" stop-color="#FF8F50"/>
</linearGradient>
</defs>
</svg>
