<svg width="387" height="211" viewBox="0 0 387 211" fill="none" xmlns="http://www.w3.org/2000/svg">
<path d="M256.63 158.2C256.63 161.332 254.124 163.838 250.992 163.838C247.859 163.838 245.354 161.332 245.354 158.2C245.354 155.067 247.859 152.561 250.992 152.561C254.124 152.561 256.63 155.067 256.63 158.2Z" fill="#E5E0EC"/>
<path d="M48.8135 210.557C48.8135 210.557 116.273 151.18 213.519 152.586C310.766 154.1 366.179 210.557 366.179 210.557H48.8135Z" fill="#E5E0EC"/>
<path d="M348.619 28.3538C348.619 27.3872 348.458 26.4206 348.297 25.6151L350.713 24.6485C350.874 24.6485 350.874 24.4874 350.874 24.3263L350.552 23.6819L349.746 21.9098L349.585 21.7487L347.169 22.7153C346.686 21.9098 346.202 21.1043 345.397 20.4599L347.008 18.3656V18.2045L346.363 17.7212L344.913 16.5936C344.752 16.5936 344.752 16.5936 344.591 16.5936L342.98 18.6878C342.175 18.2045 341.369 17.8824 340.403 17.5602L340.725 14.9826L340.564 14.8215L337.986 14.4993H337.825C337.825 14.4993 337.825 14.4993 337.825 14.6604L337.503 16.9158V17.0769C336.536 17.0769 335.57 17.238 334.764 17.3991L333.798 14.9826L333.637 14.8215C333.637 14.8215 333.637 14.8215 333.475 14.8215L331.059 15.7881C331.059 15.7881 330.898 15.7881 330.898 15.9492V16.1103L331.703 18.0434L331.864 18.3656C331.059 18.8489 330.253 19.3322 329.609 20.1377L327.515 18.5267H327.354L325.743 20.621V20.7821V20.9432L327.515 22.232L327.837 22.3931C327.354 23.1986 327.032 24.0041 326.709 24.9707L324.132 24.6485C323.971 24.6485 323.971 24.6485 323.971 24.8096L323.648 27.3872V27.5483C323.648 27.5483 323.648 27.5483 323.81 27.5483L325.904 27.8705H326.387C326.387 28.8371 326.548 29.8037 326.709 30.6092L324.293 31.5758L324.132 31.7369L325.098 34.1534C325.098 34.1534 325.098 34.3145 325.259 34.3145H325.421L327.515 33.509L327.837 33.3479C328.32 34.1534 328.804 34.9588 329.609 35.6032L327.998 37.6975V37.8586L330.092 39.4696H330.254C330.254 39.4696 330.253 39.4696 330.415 39.4696L331.864 37.5364L332.026 37.3753C332.831 37.8586 333.637 38.1808 334.603 38.503L334.281 41.0806C334.281 41.2417 334.281 41.2417 334.442 41.2417L337.02 41.5639C337.181 41.5639 337.181 41.5639 337.181 41.4028L337.342 39.6307L337.503 38.8252C338.47 38.8252 339.436 38.6641 340.242 38.503L341.208 40.9195C341.208 41.0806 341.369 41.0806 341.53 41.0806L343.302 40.2751L343.947 39.9529C344.108 39.9529 344.108 39.7918 344.108 39.6307L343.141 37.2142C343.947 36.7309 344.752 36.2476 345.397 35.4421L347.491 37.0531C347.652 37.0531 347.652 37.0531 347.813 37.0531L348.78 35.7643L349.424 34.7978C349.424 34.6367 349.424 34.6367 349.424 34.4756L347.33 32.8646C347.813 32.0591 348.135 31.2536 348.458 30.287L351.035 30.6092C351.196 30.6092 351.196 30.6092 351.196 30.4481L351.519 27.8705C351.519 27.7094 351.519 27.7094 351.357 27.7094L348.619 28.3538ZM340.886 28.8371C340.564 30.7703 338.792 32.2202 336.859 31.898C334.925 31.5758 333.475 29.8037 333.798 27.8705C334.12 25.9373 335.892 24.4874 337.825 24.8096C339.758 25.1318 341.047 26.9039 340.886 28.8371Z" fill="#E5E0EC"/>
<path d="M97.1429 41.241C97.1429 39.7911 96.9818 38.1801 96.6596 36.7302L100.365 35.1192C100.526 35.1192 100.687 34.797 100.526 34.6359L100.043 33.6693L98.915 30.7695C98.915 30.6084 98.7539 30.6084 98.5928 30.6084H98.4317L94.7264 32.2194C93.9209 30.9306 93.1154 29.6418 91.9877 28.6753L94.4042 25.4533C94.5653 25.2922 94.5653 25.1311 94.4042 25.1311C94.4042 25.1311 94.4042 25.1311 94.2431 24.97L93.2765 24.1645L90.8601 22.3924C90.699 22.2313 90.5379 22.3924 90.3768 22.3924L87.9603 25.6144C86.6715 24.8089 85.3827 24.3256 83.7717 23.8423L84.255 19.8148C84.255 19.6537 84.0939 19.6537 83.9328 19.6537L79.7442 19.1704C79.5831 19.1704 79.5831 19.1704 79.422 19.3315L79.2609 19.4926L78.7776 23.1979V23.5201C77.3277 23.5201 75.7167 23.6812 74.2668 24.0034L72.6559 20.2981C72.6559 20.137 72.4948 20.137 72.3337 20.137H72.1726L68.3062 21.748C68.1451 21.748 68.1451 21.9091 68.1451 21.9091V22.0702L69.4339 25.1311L69.7561 25.7755C68.4673 26.581 67.1785 27.3865 66.2119 28.5142L62.9899 26.0977C62.8288 26.0977 62.8288 25.9366 62.6677 26.0977C62.6677 26.0977 62.6677 26.0977 62.5066 26.2588L59.929 29.6418C59.929 29.8029 59.929 29.8029 59.929 29.964C59.929 29.964 59.929 30.1251 60.0901 30.1251L62.8288 32.2194L63.3121 32.5416C62.5066 33.8304 62.0233 35.1192 61.54 36.7302L57.5125 36.2469C57.3514 36.2469 57.1903 36.2469 57.1903 36.408C57.1903 36.408 57.1903 36.408 57.1903 36.5691L56.707 40.7577C56.707 40.9188 56.707 40.9188 56.707 41.0799L56.8681 41.241L60.0901 41.7243L60.7345 41.8854C60.7345 43.3353 60.8956 44.9463 61.2178 46.3961L57.5125 48.0071C57.3514 48.0071 57.3514 48.1682 57.3514 48.3293V48.4904L58.9624 52.3568C58.9624 52.5179 59.1235 52.5179 59.1235 52.5179H59.2846L62.5066 51.2291L62.9899 51.068C63.7954 52.3568 64.6009 53.6456 65.7286 54.6122L63.3121 57.8342C63.3121 57.9953 63.151 57.9953 63.3121 58.1564C63.3121 58.1564 63.3121 58.3175 63.4732 58.3175L66.8563 60.8951C67.0174 60.8951 67.0174 60.8951 67.1785 60.8951C67.1785 60.8951 67.3396 60.8951 67.3396 60.734L69.595 57.8342L69.7561 57.6731C71.0449 58.4786 72.3337 58.9619 73.9447 59.4452L73.4613 63.4727C73.4613 63.6338 73.4613 63.7949 73.6224 63.7949C73.6224 63.7949 73.6224 63.7949 73.7835 63.7949L77.9721 64.2781C78.1332 64.2781 78.2943 64.2781 78.2943 64.117C78.2943 64.117 78.2943 64.117 78.2943 63.9559L78.6165 61.2173L78.7776 59.9285C80.2275 59.9285 81.8385 59.7674 83.2884 59.4452L84.8994 63.1505C84.8994 63.3116 85.2216 63.4726 85.3827 63.3116L88.2825 62.1839L89.2491 61.7006C89.4102 61.7006 89.5712 61.3784 89.4101 61.2173L87.7992 57.512C89.088 56.7065 90.3767 55.901 91.3433 54.7733L94.5653 57.1898C94.7264 57.3509 94.8875 57.3509 95.0486 57.1898L96.4985 55.2566L97.6262 53.8067C97.7873 53.6456 97.7873 53.4845 97.6262 53.3234L94.4042 50.9069C95.2097 49.6181 95.693 48.3293 96.1763 46.7183L100.204 47.2016C100.365 47.2016 100.526 47.2016 100.526 47.0405L101.009 42.852C101.009 42.6909 100.848 42.5298 100.687 42.5298L97.1429 41.241ZM84.8994 41.8854C84.5772 44.9463 81.6774 47.2016 78.6165 46.7183C75.5556 46.3961 73.3002 43.4964 73.7835 40.4355C74.1057 37.3746 77.0055 35.1192 80.0664 35.6025C83.1273 35.9247 85.2216 38.8245 84.8994 41.8854Z" fill="#E5E0EC"/>
<path d="M184.459 207.819C182.526 207.819 180.754 206.208 180.754 204.113V197.025C180.754 195.092 182.365 193.32 184.459 193.32C186.392 193.32 188.164 194.931 188.164 197.025V204.113C188.164 206.208 186.554 207.819 184.459 207.819Z" fill="#22272C"/>
<path d="M244.871 207.818C242.938 207.818 241.166 206.207 241.166 204.113V197.025C241.166 195.091 242.777 193.319 244.871 193.319C246.805 193.319 248.577 194.93 248.577 197.025V204.113C248.577 206.207 246.966 207.818 244.871 207.818Z" fill="#22272C"/>
<path d="M236.816 108.742H213.779H190.58L172.698 63.6341V37.375C172.698 34.153 175.437 31.4143 178.659 31.4143H213.617H248.576C251.798 31.4143 254.537 34.153 254.537 37.375V63.6341L236.816 108.742Z" fill="#C7CCD3"/>
<path d="M231.661 34.7976C231.661 41.0804 222.156 46.0745 210.557 46.0745C198.958 46.0745 189.453 40.9193 189.453 34.7976C189.453 30.1257 199.441 30.7701 211.04 30.7701C222.64 30.7701 231.661 29.8035 231.661 34.7976Z" fill="#8B8D92"/>
<path d="M246.482 163.033H213.779H183.331L187.197 149.017C189.614 140.318 190.742 131.296 190.742 122.274V108.742H213.779H236.816V118.247C236.816 129.846 238.749 141.445 242.777 152.561L246.482 163.033Z" fill="#C7CCD3"/>
<path d="M242.616 152.561C238.749 141.606 236.655 130.007 236.655 118.247V108.742L254.537 63.6343V37.3751C254.537 36.7307 254.376 36.2474 254.215 35.603C254.215 35.603 249.059 59.6068 246.16 63.3121C243.26 67.0173 230.372 81.8385 222.961 82.644C215.551 83.4495 187.52 79.9053 187.52 84.2549C187.52 86.1881 186.714 91.8266 186.231 98.2706L190.419 108.742V122.274C190.419 122.919 190.419 123.402 190.419 124.046C197.508 131.457 214.262 133.712 219.739 144.023C222.478 149.017 224.411 153.689 225.7 157.394C226.506 159.649 195.897 160.294 183.492 161.582L246.321 163.193L242.616 152.561Z" fill="#C7CCD3"/>
<path d="M252.765 197.185H176.887C172.698 197.185 169.154 193.802 169.154 189.452V169.154C169.154 164.965 172.537 161.421 176.887 161.421H252.765C256.953 161.421 260.497 164.804 260.497 169.154V189.452C260.497 193.802 257.114 197.185 252.765 197.185Z" fill="#C7CCD3"/>
<path d="M212.489 41.0803C202.662 41.0803 194.607 38.0194 194.607 28.1923V17.882C194.607 8.05495 202.662 0 212.489 0C222.316 0 230.371 8.05495 230.371 17.882V28.1923C230.371 38.1805 222.316 41.0803 212.489 41.0803Z" fill="#D6D8D8"/>
<path d="M161.744 79.2606C155.783 79.2606 150.789 74.2666 150.789 68.3059V38.3415C150.789 32.3808 155.783 27.3867 161.744 27.3867C167.704 27.3867 172.699 32.3808 172.699 38.3415V68.3059C172.699 74.2666 167.704 79.2606 161.744 79.2606Z" fill="#C7CCD3"/>
<path d="M265.652 79.2606C259.691 79.2606 254.697 74.2666 254.697 68.3059V38.3415C254.697 32.3808 259.691 27.3867 265.652 27.3867C271.613 27.3867 276.607 32.3808 276.607 38.3415V68.3059C276.607 74.2666 271.613 79.2606 265.652 79.2606Z" fill="#C7CCD3"/>
<path d="M166.094 28.3535C168.35 30.2867 169.638 33.1865 169.638 36.4085V66.3729C169.638 72.3336 164.644 77.3276 158.684 77.3276C157.073 77.3276 155.623 77.0054 154.334 76.361C156.267 78.1331 158.845 79.2608 161.745 79.2608C167.705 79.2608 172.699 74.2667 172.699 68.3061V38.3417C172.699 33.8309 169.961 29.9645 166.094 28.3535Z" fill="#8B8D92"/>
<path d="M270.002 28.3535C272.258 30.2867 273.547 33.1865 273.547 36.4085V66.3729C273.547 72.3336 268.553 77.3276 262.592 77.3276C260.981 77.3276 259.531 77.0054 258.242 76.361C260.175 78.1331 262.753 79.2608 265.653 79.2608C271.613 79.2608 276.607 74.2667 276.607 68.3061V38.3417C276.607 33.8309 273.869 29.9645 270.002 28.3535Z" fill="#8B8D92"/>
<path d="M265.169 104.553C269.841 104.553 273.707 100.687 273.707 96.0148V84.2546C273.707 79.5827 269.841 75.7163 265.169 75.7163C260.497 75.7163 256.631 79.5827 256.631 84.2546V96.0148C256.631 100.526 260.497 104.553 265.169 104.553Z" fill="#8B8D92"/>
<path d="M163.193 100.042C167.865 100.042 171.732 96.1759 171.732 91.504V79.7438C171.732 75.0719 167.865 71.2056 163.193 71.2056C158.522 71.2056 154.655 75.0719 154.655 79.7438V91.504C154.494 96.1759 158.361 100.042 163.193 100.042Z" fill="#C7CCD3"/>
<path d="M217.805 32.864C217.805 33.8306 215.55 35.7638 212.811 35.7638C210.073 35.7638 207.817 33.8306 207.817 32.864H217.805Z" fill="url(#paint0_linear)"/>
<path d="M222.962 24.0037H202.341C200.408 24.0037 198.958 22.5538 198.958 20.6206C198.958 18.6874 200.408 17.2375 202.341 17.2375H222.962C224.895 17.2375 226.345 18.6874 226.345 20.6206C226.345 22.5538 224.895 24.0037 222.962 24.0037Z" fill="url(#paint1_linear)"/>
<path d="M257.92 163.516C257.92 163.838 258.081 164.16 258.081 164.643V184.942C258.081 189.13 254.698 192.675 250.348 192.675H174.471C172.537 192.675 170.604 191.869 169.315 190.58C169.799 194.286 173.021 197.185 176.887 197.185H252.765C256.953 197.185 260.498 193.802 260.498 189.453V169.154C260.498 167.06 259.531 164.966 257.92 163.516Z" fill="#8B8D92"/>
<path d="M197.669 50.2627C197.669 51.5515 196.702 52.5181 195.414 52.5181C194.125 52.5181 193.158 51.5515 193.158 50.2627C193.158 48.9739 194.125 48.0073 195.414 48.0073C196.702 48.0073 197.669 48.9739 197.669 50.2627Z" fill="url(#paint2_linear)"/>
<path d="M191.708 50.2627C191.708 51.5515 190.741 52.5181 189.453 52.5181C188.164 52.5181 187.197 51.5515 187.197 50.2627C187.197 48.9739 188.164 48.0073 189.453 48.0073C190.741 48.0073 191.708 48.9739 191.708 50.2627Z" fill="url(#paint3_linear)"/>
<path d="M185.747 50.2627C185.747 51.5515 184.78 52.5181 183.492 52.5181C182.203 52.5181 181.236 51.5515 181.236 50.2627C181.236 48.9739 182.203 48.0073 183.492 48.0073C184.619 48.0073 185.747 48.9739 185.747 50.2627Z" fill="url(#paint4_linear)"/>
<path d="M142.411 104.554C142.411 104.554 124.368 111.803 123.079 111.964C121.952 112.125 114.541 112.286 114.219 113.253C113.897 114.22 119.696 117.603 130.973 118.892C142.089 120.18 144.667 122.275 145.633 121.147C146.761 120.019 150.466 112.448 150.466 112.448L142.411 104.554Z" fill="#D38359"/>
<path d="M140.639 109.547C140.639 109.547 125.657 121.952 124.53 122.596C123.402 123.08 116.475 125.496 116.475 126.463C116.475 127.59 123.08 128.879 134.034 126.785C144.989 124.691 148.05 125.818 148.694 124.368C149.339 122.919 150.628 114.541 150.628 114.541L140.639 109.547Z" fill="#E0A679"/>
<path d="M262.752 58.1567C262.752 58.1567 259.852 62.0231 258.402 63.1508C256.953 64.2785 249.381 67.3393 249.381 67.3393L270.002 69.2725L278.379 57.9956L262.752 58.1567Z" fill="#D38359"/>
<path d="M167.865 68.467L133.712 102.137L140.961 107.936L169.637 74.1055L167.865 68.467Z" fill="#006590"/>
<path d="M214.744 93.2763C214.744 93.2763 170.764 67.9837 167.864 68.467C159.326 69.9169 138.705 109.547 138.705 109.547L150.788 116.797C150.788 116.797 159.326 105.037 163.031 99.3981C166.253 94.5651 171.891 86.8323 172.697 87.1545C173.502 87.4767 190.579 114.38 201.695 118.408C212.005 122.113 223.282 116.475 223.282 116.475L214.744 93.2763Z" fill="url(#paint5_linear)"/>
<path d="M270.646 68.4672C270.646 68.4672 271.452 83.6105 264.685 92.7932C262.269 96.0151 232.143 113.253 223.444 116.636C214.584 120.019 214.906 93.4376 214.906 93.4376C214.906 93.4376 236.171 88.2824 237.137 80.2274C237.46 76.6833 237.299 71.367 241.004 70.2393C252.603 67.0173 252.603 65.0841 253.57 65.8896C254.214 66.6951 270.646 68.4672 270.646 68.4672Z" fill="url(#paint6_linear)"/>
<path d="M266.135 38.0196C266.135 38.0196 261.946 38.9862 261.624 40.1139C261.302 41.2416 260.174 43.9802 259.53 44.3024C258.885 44.6246 255.663 46.88 255.663 47.2022C255.663 47.5244 256.63 48.9743 256.63 48.9743L255.502 51.0686L255.663 51.8741L255.18 52.6796L254.858 55.5794C254.858 55.5794 254.213 57.0293 254.374 57.5126C255.341 59.929 261.785 62.0233 263.879 61.8622C265.974 61.7011 275.962 58.1569 276.445 56.0627C276.928 54.1295 274.512 39.7917 272.256 38.664C270.001 37.6974 266.135 38.0196 266.135 38.0196Z" fill="#E0A679"/>
<path d="M260.014 40.436C260.014 40.436 261.625 33.1866 267.102 33.6699C272.418 34.1532 274.029 36.2474 275.962 36.8918C277.896 37.5362 279.99 37.6973 282.729 41.5637C285.467 45.5912 285.467 54.6127 283.534 57.9958C281.44 61.2178 272.74 65.4064 272.74 65.4064C272.74 65.4064 268.391 47.2022 269.357 46.0745C270.324 45.1079 260.014 40.436 260.014 40.436Z" fill="#6A271F"/>
<path d="M262.269 77.9721C262.591 79.2609 233.754 97.4651 231.177 99.0761C226.666 101.815 202.984 86.6715 202.984 86.6715C202.984 86.6715 208.301 85.5438 213.617 86.8326C218.933 87.9603 227.471 89.088 227.471 89.088C227.471 89.088 252.764 72.0115 254.536 72.0115C256.308 72.0115 260.013 71.206 262.269 77.9721Z" fill="#E0A679"/>
<path d="M261.141 70.5614C264.685 72.3335 264.202 78.1331 263.235 79.7441C262.108 81.3551 243.259 92.4709 243.259 92.4709L235.526 81.0329C235.687 81.0329 254.697 67.3395 261.141 70.5614Z" fill="#4C97C2"/>
<path d="M289.494 51.7129C289.011 55.4182 286.594 57.9958 284.017 57.6736C281.6 57.3514 279.989 54.1294 280.472 50.4241C280.956 46.7188 283.372 44.1412 285.95 44.4634C288.527 44.9467 290.138 48.1687 289.494 51.7129Z" fill="#6A271F"/>
<path d="M161.26 106.003C158.038 101.976 158.843 96.1763 162.871 92.9544L184.136 76.3612C188.163 73.1392 193.963 73.9447 197.185 77.9721C200.407 81.9996 199.601 87.7992 195.574 91.0212L174.309 107.614C170.281 110.836 164.32 110.031 161.26 106.003Z" fill="#F1F1F2"/>
<path d="M197.346 87.7991L176.081 104.392C172.054 107.614 166.254 106.809 163.032 102.781C161.099 100.204 160.616 96.9817 161.582 94.2431C158.682 97.465 158.521 102.459 161.26 106.164C164.482 110.192 170.281 110.836 174.309 107.775L195.413 91.0211C196.863 89.8934 197.991 88.2824 198.474 86.6714C198.152 86.9936 197.829 87.4769 197.346 87.7991Z" fill="#8B8D92"/>
<path d="M267.102 106.003C270.324 101.976 269.518 96.1763 265.491 92.9544L244.226 76.3612C240.198 73.1392 234.399 73.9447 231.177 77.9721C227.955 81.9996 228.76 87.7992 232.788 91.0212L254.053 107.614C258.08 110.836 263.88 110.031 267.102 106.003Z" fill="#F1F1F2"/>
<path d="M231.015 87.7989L252.28 104.392C256.308 107.614 262.107 106.809 265.329 102.781C267.263 100.203 267.746 96.9815 266.779 94.2428C269.679 97.4648 269.84 102.459 267.102 106.164C263.88 110.192 258.08 110.836 254.053 107.775L232.787 91.182C231.338 90.0543 230.21 88.4433 229.727 86.8323C230.21 86.9934 230.532 87.4767 231.015 87.7989Z" fill="#8B8D92"/>
<path d="M23.3594 132.585C23.3594 131.618 23.1983 130.813 23.0372 130.007L25.2925 129.041C25.4536 129.041 25.4537 128.88 25.4537 128.719L25.1315 128.074L24.4871 126.463L24.326 126.302L22.0706 127.269C21.5873 126.463 21.104 125.819 20.4596 125.174L21.9095 123.241V123.08L21.2651 122.597L19.8152 121.469C19.6541 121.469 19.6541 121.469 19.493 121.469L18.0431 123.402C17.2376 122.919 16.4321 122.597 15.6266 122.436L15.9488 120.019L15.7877 119.858L13.3712 119.536H13.2101C13.2101 119.536 13.2101 119.536 13.2101 119.697L12.8879 121.791V121.952C11.9213 121.952 11.1159 122.113 10.3104 122.275L9.34375 120.019L9.18264 119.858C9.18264 119.858 9.18266 119.858 9.02156 119.858L6.76616 120.825C6.76616 120.825 6.60507 120.825 6.60507 120.986V121.147L7.41057 122.919L7.57165 123.241C6.76616 123.724 6.12178 124.208 5.47738 124.852L3.54417 123.402H3.38309L1.93318 125.335V125.497V125.658L3.54417 126.946L3.86639 127.108C3.3831 127.913 3.06089 128.719 2.89979 129.524L0.483302 129.202C0.483302 129.202 0.322193 129.202 0.322193 129.363L0 131.779V131.941C0 131.941 9.83031e-06 131.941 0.161109 131.941L2.09429 132.263H2.57759C2.57759 133.229 2.73869 134.035 2.89979 134.84L0.644411 135.807L0.483302 135.968L1.44991 138.223C1.44991 138.223 1.44989 138.384 1.61099 138.384H1.7721L3.70528 137.579L4.02748 137.418C4.51077 138.223 4.99407 138.868 5.63847 139.512L4.18859 141.445V141.606L6.12177 143.056H6.28288C6.28288 143.056 6.28286 143.056 6.44396 143.056L7.73276 141.284L7.89387 141.123C8.69936 141.606 9.50486 141.929 10.3104 142.09L9.98814 144.506C9.98814 144.506 9.98815 144.667 10.1492 144.667L12.5657 144.99C12.5657 144.99 12.7268 144.99 12.7268 144.828L12.8879 143.217L13.049 142.412C14.0156 142.412 14.8211 142.251 15.6266 142.09L16.5932 144.345C16.5932 144.506 16.7543 144.506 16.9154 144.506L18.5264 143.862L19.1708 143.54C19.3319 143.54 19.3319 143.379 19.3319 143.217L18.3653 140.962C19.1708 140.479 19.8152 139.995 20.4596 139.351L22.3928 140.801C22.5539 140.801 22.5539 140.801 22.715 140.801L23.5205 139.673L24.1649 138.868C24.1649 138.707 24.1649 138.707 24.1649 138.546L22.2317 137.096C22.715 136.29 23.0372 135.485 23.1983 134.679L25.6148 135.001C25.6148 135.001 25.7759 135.001 25.7759 134.84L26.098 132.424C26.098 132.263 26.0981 132.263 25.937 132.263L23.3594 132.585ZM16.271 132.907C16.1099 134.679 14.3378 135.968 12.5657 135.807C10.7936 135.646 9.50484 133.874 9.66594 132.102C9.82704 130.33 11.5991 129.041 13.3712 129.202C15.1433 129.363 16.4321 131.135 16.271 132.907Z" fill="#E5E0EC"/>
<path d="M90.711 192.016C92.8522 182.88 87.1824 173.739 78.047 171.597C68.9117 169.456 59.7702 175.126 57.629 184.261C55.4878 193.397 61.1576 202.538 70.293 204.68C79.4283 206.821 88.5698 201.151 90.711 192.016Z" fill="#E5E0EC"/>
<path d="M325.098 210.557C334.44 210.557 342.013 202.984 342.013 193.641C342.013 184.299 334.44 176.726 325.098 176.726C315.756 176.726 308.183 184.299 308.183 193.641C308.183 202.984 315.756 210.557 325.098 210.557Z" fill="#E5E0EC"/>
<path d="M111.642 150.145C111.642 153.277 109.136 155.783 106.004 155.783C102.871 155.783 100.365 153.277 100.365 150.145C100.365 147.012 102.871 144.506 106.004 144.506C109.136 144.506 111.642 147.012 111.642 150.145Z" fill="#E5E0EC"/>
<path d="M386.96 45.913C386.96 48.6517 384.704 51.0682 381.805 51.0682C379.066 51.0682 376.649 48.8128 376.649 45.913C376.649 43.1743 378.905 40.7578 381.805 40.7578C384.704 40.9189 386.96 43.1743 386.96 45.913Z" fill="#E5E0EC"/>
<defs>
<linearGradient id="paint0_linear" x1="207.817" y1="34.5169" x2="217.805" y2="34.3086" gradientUnits="userSpaceOnUse">
<stop stop-color="#FF6753"/>
<stop offset="1" stop-color="#FF8F50"/>
</linearGradient>
<linearGradient id="paint1_linear" x1="198.958" y1="21.0943" x2="226.34" y2="20.4231" gradientUnits="userSpaceOnUse">
<stop stop-color="#FF6753"/>
<stop offset="1" stop-color="#FF8F50"/>
</linearGradient>
<linearGradient id="paint2_linear" x1="193.158" y1="50.5785" x2="197.671" y2="50.5511" gradientUnits="userSpaceOnUse">
<stop stop-color="#FF6753"/>
<stop offset="1" stop-color="#FF8F50"/>
</linearGradient>
<linearGradient id="paint3_linear" x1="187.197" y1="50.5785" x2="191.71" y2="50.5511" gradientUnits="userSpaceOnUse">
<stop stop-color="#FF6753"/>
<stop offset="1" stop-color="#FF8F50"/>
</linearGradient>
<linearGradient id="paint4_linear" x1="181.236" y1="50.5785" x2="185.749" y2="50.5511" gradientUnits="userSpaceOnUse">
<stop stop-color="#FF6753"/>
<stop offset="1" stop-color="#FF8F50"/>
</linearGradient>
<linearGradient id="paint5_linear" x1="180.814" y1="58.6612" x2="180.814" y2="135.581" gradientUnits="userSpaceOnUse">
<stop stop-color="#00B9FF"/>
<stop offset="1" stop-color="#0068B5"/>
</linearGradient>
<linearGradient id="paint6_linear" x1="190.58" y1="93.7597" x2="286.434" y2="72.8169" gradientUnits="userSpaceOnUse">
<stop stop-color="#00B9FF"/>
<stop offset="1" stop-color="#0068B5"/>
</linearGradient>
</defs>
</svg>
