<svg width="150" height="12" viewBox="0 0 150 12" fill="none" xmlns="http://www.w3.org/2000/svg">
<path d="M20.0238 11.625L16.6911 11.6085L14.1862 8.45701H7.12875L8.69707 6.51001H12.6396L10.0476 3.25951L3.33865 11.6085H0.00598145L8.08717 1.42801C8.29049 1.16401 8.57365 0.922012 8.93667 0.702011C9.37232 0.44901 9.7644 0.32251 10.1129 0.32251C10.4905 0.32251 10.8826 0.443508 11.2891 0.685511C11.6377 0.89451 11.9208 1.14201 12.1387 1.42801L20.0238 11.625ZM43.1917 0.355511L34.6967 10.701C34.1013 11.438 33.564 11.8065 33.0848 11.8065C32.6201 11.8065 32.09 11.438 31.4947 10.701L23.1739 0.355511H26.5066L33.1501 8.72101L39.859 0.355511H43.1917ZM65.2327 6.88951H56.7377V4.92601H65.2327V6.88951ZM65.908 11.625H53.0565V0.355511H65.908V2.31901H55.6486V9.66151H65.908V11.625ZM93.303 8.14351C93.303 9.2105 92.802 10.0685 91.8 10.7175C90.8416 11.3225 89.6436 11.625 88.206 11.625H76.8575V9.66151H88.206C88.9174 9.66151 89.5347 9.5405 90.0575 9.29851C90.6525 9.00151 90.9505 8.6 90.9505 8.09401C90.9505 7.58802 90.6456 7.1975 90.0357 6.92251C89.5273 6.69151 88.9174 6.57601 88.206 6.57601H81.1921C79.8995 6.57601 78.8179 6.3065 77.9466 5.76751C77.0169 5.1845 76.5525 4.41451 76.5525 3.45751C76.5525 2.51151 77.0169 1.74701 77.9466 1.16401C78.8179 0.625012 79.8995 0.355511 81.1921 0.355511H92.4099V2.31901H81.1921C80.6981 2.31901 80.2773 2.42351 79.9287 2.63251C79.5802 2.84151 79.406 3.12201 79.406 3.47401C79.406 3.83701 79.5802 4.11751 79.9287 4.31551C80.2773 4.51351 80.6981 4.61251 81.1921 4.61251H88.206C89.6436 4.61251 90.8416 4.92601 91.8 5.55301C92.802 6.21301 93.303 7.07652 93.303 8.14351ZM119.31 11.625H116.718V6.93901H107.984V4.97551H116.718V0.355511H119.31V11.625ZM106.807 11.625H104.215V0.355511H106.807V11.625ZM149.641 11.625L146.308 11.6085L143.803 8.45701H136.746L138.314 6.51001H142.256L139.664 3.25951L132.955 11.6085H129.623L137.704 1.42801C137.907 1.16401 138.19 0.922012 138.553 0.702011C138.989 0.44901 139.381 0.32251 139.73 0.32251C140.107 0.32251 140.499 0.443508 140.906 0.685511C141.254 0.89451 141.538 1.14201 141.755 1.42801L149.641 11.625Z" fill="url(#paint0_linear)"/>
<defs>
<linearGradient id="paint0_linear" x1="74.505" y1="-1.87499" x2="74.505" y2="15.375" gradientUnits="userSpaceOnUse">
<stop stop-color="#00B9FF"/>
<stop offset="1" stop-color="#0068B5"/>
</linearGradient>
</defs>
</svg>
