<svg width="487" height="322" viewBox="0 0 487 322" fill="none" xmlns="http://www.w3.org/2000/svg">
<path d="M182.419 105.208V105.204C182.409 99.4192 180.461 93.8041 176.886 89.2557C173.593 85.0663 169.094 82.0044 164.014 80.4717C160.712 59.6349 142.627 43.6562 120.867 43.6562C103.945 43.6562 89.2059 53.3853 82.226 68.7341C69.1046 73.0725 59.3154 85.6199 59.3154 99.2527C59.3154 116.776 73.5683 131.029 91.0912 131.029H156.598C170.84 131.029 182.419 119.45 182.419 105.208Z" stroke="url(#paint0_linear)" stroke-width="4" stroke-linecap="round" stroke-linejoin="round"/>
<g filter="url(#filter0_d)">
<path d="M112.814 112.051C110.212 91.5529 92.6621 75.6526 71.4618 75.6526C55.0493 75.6526 40.7927 85.2464 34.2837 100.367C21.492 104.19 11.9102 116.267 11.9102 129.249C11.9102 145.667 25.2676 159.025 41.686 159.025H107.193C120.33 159.025 131.013 148.341 131.013 135.204C131.004 129.866 129.207 124.685 125.908 120.488C122.609 116.291 117.999 113.321 112.814 112.051Z" fill="white"/>
</g>
<path d="M358.868 105.208V105.204C358.858 99.4192 356.91 93.8041 353.335 89.2557C350.042 85.0663 345.544 82.0044 340.463 80.4717C337.161 59.6349 319.076 43.6562 297.316 43.6562C280.394 43.6562 265.655 53.3853 258.675 68.7341C245.554 73.0725 235.765 85.6199 235.765 99.2527C235.765 116.776 250.018 131.029 267.54 131.029H333.047C347.289 131.029 358.868 119.45 358.868 105.208Z" stroke="url(#paint1_linear)" stroke-width="4" stroke-linecap="round" stroke-linejoin="round"/>
<g filter="url(#filter1_d)">
<path d="M305.144 66.1737C302.541 45.676 284.991 29.7758 263.791 29.7758C247.378 29.7758 233.122 39.3695 226.613 54.4897C213.821 58.3129 204.239 70.39 204.239 83.3722C204.239 99.7906 217.597 113.148 234.015 113.148H299.522C312.659 113.148 323.342 102.464 323.342 89.3274C323.333 83.9892 321.536 78.8081 318.237 74.6112C314.938 70.4143 310.328 67.4437 305.144 66.1737Z" fill="white"/>
</g>
<path d="M477.09 232.251V232.248C477.08 226.463 475.132 220.847 471.557 216.299C468.264 212.11 463.765 209.048 458.685 207.515C455.383 186.678 437.298 170.7 415.538 170.7C398.616 170.7 383.877 180.429 376.897 195.777C363.776 200.116 353.986 212.663 353.986 226.296C353.986 243.819 368.239 258.072 385.762 258.072H451.269C465.511 258.072 477.09 246.493 477.09 232.251Z" stroke="url(#paint2_linear)" stroke-width="4" stroke-linecap="round" stroke-linejoin="round"/>
<g filter="url(#filter2_d)">
<path d="M423.365 193.217C420.763 172.72 403.213 156.819 382.013 156.819C365.6 156.819 351.343 166.413 344.834 181.533C332.043 185.356 322.461 197.433 322.461 210.416C322.461 226.834 335.818 240.191 352.237 240.191H417.744C430.881 240.191 441.564 229.508 441.564 216.371C441.555 211.033 439.758 205.852 436.459 201.655C433.16 197.458 428.55 194.487 423.365 193.217Z" fill="white"/>
</g>
<path d="M245.941 232.251V232.248C245.931 226.463 243.983 220.847 240.408 216.299C237.115 212.11 232.617 209.048 227.536 207.515C224.234 186.678 206.15 170.7 184.39 170.7C167.467 170.7 152.728 180.429 145.749 195.777C132.627 200.116 122.838 212.663 122.838 226.296C122.838 243.819 137.091 258.072 154.614 258.072H220.12C234.362 258.072 245.941 246.493 245.941 232.251Z" stroke="url(#paint3_linear)" stroke-width="4" stroke-linecap="round" stroke-linejoin="round"/>
<g filter="url(#filter3_d)">
<path d="M268.09 244.387C265.487 223.89 247.938 207.99 226.737 207.99C210.325 207.99 196.068 217.583 189.559 232.703C176.767 236.527 167.186 248.604 167.186 261.586C167.186 278.004 180.543 291.362 196.961 291.362H262.468C275.605 291.362 286.289 280.678 286.289 267.541C286.28 262.203 284.482 257.022 281.183 252.825C277.885 248.628 273.275 245.657 268.09 244.387Z" fill="white"/>
</g>
<defs>
<filter id="filter0_d" x="-8" y="37.8768" width="162.924" height="162.924" filterUnits="userSpaceOnUse" color-interpolation-filters="sRGB">
<feFlood flood-opacity="0" result="BackgroundImageFix"/>
<feColorMatrix in="SourceAlpha" type="matrix" values="0 0 0 0 0 0 0 0 0 0 0 0 0 0 0 0 0 0 127 0" result="hardAlpha"/>
<feOffset dx="2" dy="2"/>
<feGaussianBlur stdDeviation="5"/>
<feColorMatrix type="matrix" values="0 0 0 0 0.236979 0 0 0 0 0.445521 0 0 0 0 0.758333 0 0 0 0.3 0"/>
<feBlend mode="normal" in2="BackgroundImageFix" result="effect1_dropShadow"/>
<feBlend mode="normal" in="SourceGraphic" in2="effect1_dropShadow" result="shape"/>
</filter>
<filter id="filter1_d" x="184.329" y="-8" width="162.924" height="162.924" filterUnits="userSpaceOnUse" color-interpolation-filters="sRGB">
<feFlood flood-opacity="0" result="BackgroundImageFix"/>
<feColorMatrix in="SourceAlpha" type="matrix" values="0 0 0 0 0 0 0 0 0 0 0 0 0 0 0 0 0 0 127 0" result="hardAlpha"/>
<feOffset dx="2" dy="2"/>
<feGaussianBlur stdDeviation="5"/>
<feColorMatrix type="matrix" values="0 0 0 0 0.236979 0 0 0 0 0.445521 0 0 0 0 0.758333 0 0 0 0.3 0"/>
<feBlend mode="normal" in2="BackgroundImageFix" result="effect1_dropShadow"/>
<feBlend mode="normal" in="SourceGraphic" in2="effect1_dropShadow" result="shape"/>
</filter>
<filter id="filter2_d" x="302.551" y="119.043" width="162.924" height="162.924" filterUnits="userSpaceOnUse" color-interpolation-filters="sRGB">
<feFlood flood-opacity="0" result="BackgroundImageFix"/>
<feColorMatrix in="SourceAlpha" type="matrix" values="0 0 0 0 0 0 0 0 0 0 0 0 0 0 0 0 0 0 127 0" result="hardAlpha"/>
<feOffset dx="2" dy="2"/>
<feGaussianBlur stdDeviation="5"/>
<feColorMatrix type="matrix" values="0 0 0 0 0.236979 0 0 0 0 0.445521 0 0 0 0 0.758333 0 0 0 0.3 0"/>
<feBlend mode="normal" in2="BackgroundImageFix" result="effect1_dropShadow"/>
<feBlend mode="normal" in="SourceGraphic" in2="effect1_dropShadow" result="shape"/>
</filter>
<filter id="filter3_d" x="147.275" y="170.214" width="162.924" height="162.924" filterUnits="userSpaceOnUse" color-interpolation-filters="sRGB">
<feFlood flood-opacity="0" result="BackgroundImageFix"/>
<feColorMatrix in="SourceAlpha" type="matrix" values="0 0 0 0 0 0 0 0 0 0 0 0 0 0 0 0 0 0 127 0" result="hardAlpha"/>
<feOffset dx="2" dy="2"/>
<feGaussianBlur stdDeviation="5"/>
<feColorMatrix type="matrix" values="0 0 0 0 0.236979 0 0 0 0 0.445521 0 0 0 0 0.758333 0 0 0 0.3 0"/>
<feBlend mode="normal" in2="BackgroundImageFix" result="effect1_dropShadow"/>
<feBlend mode="normal" in="SourceGraphic" in2="effect1_dropShadow" result="shape"/>
</filter>
<linearGradient id="paint0_linear" x1="120.614" y1="29.7027" x2="120.614" y2="154.935" gradientUnits="userSpaceOnUse">
<stop stop-color="#00B9FF"/>
<stop offset="1" stop-color="#0068B5"/>
</linearGradient>
<linearGradient id="paint1_linear" x1="297.063" y1="29.7027" x2="297.063" y2="154.935" gradientUnits="userSpaceOnUse">
<stop stop-color="#00B9FF"/>
<stop offset="1" stop-color="#0068B5"/>
</linearGradient>
<linearGradient id="paint2_linear" x1="415.285" y1="156.746" x2="415.285" y2="281.979" gradientUnits="userSpaceOnUse">
<stop stop-color="#00B9FF"/>
<stop offset="1" stop-color="#0068B5"/>
</linearGradient>
<linearGradient id="paint3_linear" x1="184.136" y1="156.746" x2="184.136" y2="281.979" gradientUnits="userSpaceOnUse">
<stop stop-color="#00B9FF"/>
<stop offset="1" stop-color="#0068B5"/>
</linearGradient>
</defs>
</svg>
