<svg width="621" height="268" viewBox="0 0 621 268" fill="none" xmlns="http://www.w3.org/2000/svg">
<rect x="66.5361" y="46.4364" width="8.87143" height="11.0893" fill="#BDBDBD"/>
<rect x="66.5361" y="68.615" width="8.87143" height="11.0893" fill="#BDBDBD"/>
<rect x="76.5166" y="74.1597" width="8.87143" height="11.0893" transform="rotate(90 76.5166 74.1597)" fill="#BDBDBD"/>
<rect x="156.358" y="74.1597" width="8.87143" height="11.0893" transform="rotate(90 156.358 74.1597)" fill="#BDBDBD"/>
<rect x="236.202" y="74.1597" width="8.87143" height="11.0893" transform="rotate(90 236.202 74.1597)" fill="#BDBDBD"/>
<rect x="316.045" y="74.1597" width="8.87143" height="11.0893" transform="rotate(90 316.045 74.1597)" fill="#BDBDBD"/>
<rect x="395.888" y="74.1597" width="8.87143" height="11.0893" transform="rotate(90 395.888 74.1597)" fill="#BDBDBD"/>
<rect x="475.73" y="74.1597" width="8.87143" height="11.0893" transform="rotate(90 475.73 74.1597)" fill="#BDBDBD"/>
<rect x="555.573" y="74.1597" width="8.87143" height="11.0893" transform="rotate(90 555.573 74.1597)" fill="#BDBDBD"/>
<rect x="146.379" y="68.615" width="8.87143" height="11.0893" fill="#BDBDBD"/>
<rect x="226.222" y="68.615" width="8.87143" height="11.0893" fill="#BDBDBD"/>
<rect x="306.064" y="68.615" width="8.87143" height="11.0893" fill="#BDBDBD"/>
<rect x="385.907" y="68.615" width="8.87143" height="11.0893" fill="#BDBDBD"/>
<rect x="465.75" y="68.615" width="8.87143" height="11.0893" fill="#BDBDBD"/>
<rect x="545.593" y="68.615" width="8.87143" height="11.0893" fill="#BDBDBD"/>
<rect x="68.7539" y="57.5258" width="4.43571" height="11.0893" fill="#BDBDBD"/>
<rect x="43.248" y="80.8132" width="4.43571" height="22.1786" transform="rotate(-90 43.248 80.8132)" fill="#BDBDBD"/>
<rect x="555.573" y="80.8132" width="4.43571" height="22.1786" transform="rotate(-90 555.573 80.8132)" fill="#BDBDBD"/>
<rect x="76.5166" y="80.8132" width="4.43571" height="68.7536" transform="rotate(-90 76.5166 80.8132)" fill="#BDBDBD"/>
<rect x="156.358" y="80.8132" width="4.43571" height="68.7536" transform="rotate(-90 156.358 80.8132)" fill="#BDBDBD"/>
<rect x="236.202" y="80.8132" width="4.43571" height="68.7536" transform="rotate(-90 236.202 80.8132)" fill="#BDBDBD"/>
<rect x="316.045" y="80.8132" width="4.43571" height="68.7536" transform="rotate(-90 316.045 80.8132)" fill="#BDBDBD"/>
<rect x="395.888" y="80.8132" width="4.43571" height="68.7536" transform="rotate(-90 395.888 80.8132)" fill="#BDBDBD"/>
<rect x="475.73" y="80.8132" width="4.43571" height="68.7536" transform="rotate(-90 475.73 80.8132)" fill="#BDBDBD"/>
<rect x="148.596" y="57.5258" width="4.43571" height="11.0893" fill="#BDBDBD"/>
<rect x="228.439" y="57.5258" width="4.43571" height="11.0893" fill="#BDBDBD"/>
<rect x="308.282" y="57.5258" width="4.43571" height="11.0893" fill="#BDBDBD"/>
<rect x="388.125" y="57.5258" width="4.43571" height="11.0893" fill="#BDBDBD"/>
<rect x="467.968" y="57.5258" width="4.43571" height="11.0893" fill="#BDBDBD"/>
<rect x="547.812" y="57.5258" width="4.43571" height="11.0893" fill="#BDBDBD"/>
<rect x="146.379" y="46.4364" width="8.87143" height="11.0893" fill="#BDBDBD"/>
<rect x="226.222" y="46.4364" width="8.87143" height="11.0893" fill="#BDBDBD"/>
<rect x="306.064" y="46.4364" width="8.87143" height="11.0893" fill="#BDBDBD"/>
<rect x="385.907" y="46.4364" width="8.87143" height="11.0893" fill="#BDBDBD"/>
<rect x="465.75" y="46.4364" width="8.87143" height="11.0893" fill="#BDBDBD"/>
<rect x="545.593" y="46.4364" width="8.87143" height="11.0893" fill="#BDBDBD"/>
<path d="M175.072 13.8616H126.556C124.642 13.8616 123.091 12.3101 123.091 10.3962V3.4654C123.091 1.55153 124.642 0 126.556 0H175.072C176.986 0 178.537 1.55153 178.537 3.4654V10.3962C178.537 12.3101 176.986 13.8616 175.072 13.8616ZM169.874 4.33175C168.438 4.33175 167.275 5.49537 167.275 6.9308C167.275 8.36624 168.438 9.52985 169.874 9.52985C171.309 9.52985 172.473 8.36624 172.473 6.9308C172.473 5.49537 171.309 4.33175 169.874 4.33175ZM162.943 4.33175C161.508 4.33175 160.344 5.49537 160.344 6.9308C160.344 8.36624 161.508 9.52985 162.943 9.52985C164.378 9.52985 165.542 8.36624 165.542 6.9308C165.542 5.49537 164.378 4.33175 162.943 4.33175ZM175.072 31.1886H126.556C124.642 31.1886 123.091 29.6371 123.091 27.7232V20.7924C123.091 18.8785 124.642 17.327 126.556 17.327H175.072C176.986 17.327 178.537 18.8785 178.537 20.7924V27.7232C178.537 29.6371 176.986 31.1886 175.072 31.1886ZM169.874 21.6588C168.438 21.6588 167.275 22.8224 167.275 24.2578C167.275 25.6932 168.438 26.8569 169.874 26.8569C171.309 26.8569 172.473 25.6932 172.473 24.2578C172.473 22.8224 171.309 21.6588 169.874 21.6588ZM162.943 21.6588C161.508 21.6588 160.344 22.8224 160.344 24.2578C160.344 25.6932 161.508 26.8569 162.943 26.8569C164.378 26.8569 165.542 25.6932 165.542 24.2578C165.542 22.8224 164.378 21.6588 162.943 21.6588ZM175.072 48.5156H126.556C124.642 48.5156 123.091 46.9641 123.091 45.0502V38.1194C123.091 36.2055 124.642 34.654 126.556 34.654H175.072C176.986 34.654 178.537 36.2055 178.537 38.1194V45.0502C178.537 46.9641 176.986 48.5156 175.072 48.5156ZM169.874 38.9858C168.438 38.9858 167.275 40.1494 167.275 41.5848C167.275 43.0203 168.438 44.1839 169.874 44.1839C171.309 44.1839 172.473 43.0203 172.473 41.5848C172.473 40.1494 171.309 38.9858 169.874 38.9858ZM162.943 38.9858C161.508 38.9858 160.344 40.1494 160.344 41.5848C160.344 43.0203 161.508 44.1839 162.943 44.1839C164.378 44.1839 165.542 43.0203 165.542 41.5848C165.542 40.1494 164.378 38.9858 162.943 38.9858Z" fill="url(#paint0_linear)"/>
<path d="M95.2291 13.8616H46.7134C44.7996 13.8616 43.248 12.3101 43.248 10.3962V3.4654C43.248 1.55153 44.7996 0 46.7134 0H95.2291C97.1429 0 98.6945 1.55153 98.6945 3.4654V10.3962C98.6945 12.3101 97.1429 13.8616 95.2291 13.8616ZM90.031 4.33175C88.5955 4.33175 87.4319 5.49537 87.4319 6.9308C87.4319 8.36624 88.5955 9.52985 90.031 9.52985C91.4664 9.52985 92.63 8.36624 92.63 6.9308C92.63 5.49537 91.4664 4.33175 90.031 4.33175ZM83.1002 4.33175C81.6647 4.33175 80.5011 5.49537 80.5011 6.9308C80.5011 8.36624 81.6647 9.52985 83.1002 9.52985C84.5356 9.52985 85.6992 8.36624 85.6992 6.9308C85.6992 5.49537 84.5356 4.33175 83.1002 4.33175ZM95.2291 31.1886H46.7134C44.7996 31.1886 43.248 29.6371 43.248 27.7232V20.7924C43.248 18.8785 44.7996 17.327 46.7134 17.327H95.2291C97.1429 17.327 98.6945 18.8785 98.6945 20.7924V27.7232C98.6945 29.6371 97.1429 31.1886 95.2291 31.1886ZM90.031 21.6588C88.5955 21.6588 87.4319 22.8224 87.4319 24.2578C87.4319 25.6932 88.5955 26.8569 90.031 26.8569C91.4664 26.8569 92.63 25.6932 92.63 24.2578C92.63 22.8224 91.4664 21.6588 90.031 21.6588ZM83.1002 21.6588C81.6647 21.6588 80.5011 22.8224 80.5011 24.2578C80.5011 25.6932 81.6647 26.8569 83.1002 26.8569C84.5356 26.8569 85.6992 25.6932 85.6992 24.2578C85.6992 22.8224 84.5356 21.6588 83.1002 21.6588ZM95.2291 48.5156H46.7134C44.7996 48.5156 43.248 46.9641 43.248 45.0502V38.1194C43.248 36.2055 44.7996 34.654 46.7134 34.654H95.2291C97.1429 34.654 98.6945 36.2055 98.6945 38.1194V45.0502C98.6945 46.9641 97.1429 48.5156 95.2291 48.5156ZM90.031 38.9858C88.5955 38.9858 87.4319 40.1494 87.4319 41.5848C87.4319 43.0203 88.5955 44.1839 90.031 44.1839C91.4664 44.1839 92.63 43.0203 92.63 41.5848C92.63 40.1494 91.4664 38.9858 90.031 38.9858ZM83.1002 38.9858C81.6647 38.9858 80.5011 40.1494 80.5011 41.5848C80.5011 43.0203 81.6647 44.1839 83.1002 44.1839C84.5356 44.1839 85.6992 43.0203 85.6992 41.5848C85.6992 40.1494 84.5356 38.9858 83.1002 38.9858Z" fill="url(#paint1_linear)"/>
<path d="M254.915 13.8616H206.399C204.485 13.8616 202.934 12.3101 202.934 10.3962V3.4654C202.934 1.55153 204.485 0 206.399 0H254.915C256.828 0 258.38 1.55153 258.38 3.4654V10.3962C258.38 12.3101 256.828 13.8616 254.915 13.8616ZM249.717 4.33175C248.281 4.33175 247.117 5.49537 247.117 6.9308C247.117 8.36624 248.281 9.52985 249.717 9.52985C251.152 9.52985 252.316 8.36624 252.316 6.9308C252.316 5.49537 251.152 4.33175 249.717 4.33175ZM242.786 4.33175C241.35 4.33175 240.187 5.49537 240.187 6.9308C240.187 8.36624 241.35 9.52985 242.786 9.52985C244.221 9.52985 245.385 8.36624 245.385 6.9308C245.385 5.49537 244.221 4.33175 242.786 4.33175ZM254.915 31.1886H206.399C204.485 31.1886 202.934 29.6371 202.934 27.7232V20.7924C202.934 18.8785 204.485 17.327 206.399 17.327H254.915C256.828 17.327 258.38 18.8785 258.38 20.7924V27.7232C258.38 29.6371 256.828 31.1886 254.915 31.1886ZM249.717 21.6588C248.281 21.6588 247.117 22.8224 247.117 24.2578C247.117 25.6932 248.281 26.8569 249.717 26.8569C251.152 26.8569 252.316 25.6932 252.316 24.2578C252.316 22.8224 251.152 21.6588 249.717 21.6588ZM242.786 21.6588C241.35 21.6588 240.187 22.8224 240.187 24.2578C240.187 25.6932 241.35 26.8569 242.786 26.8569C244.221 26.8569 245.385 25.6932 245.385 24.2578C245.385 22.8224 244.221 21.6588 242.786 21.6588ZM254.915 48.5156H206.399C204.485 48.5156 202.934 46.9641 202.934 45.0502V38.1194C202.934 36.2055 204.485 34.654 206.399 34.654H254.915C256.828 34.654 258.38 36.2055 258.38 38.1194V45.0502C258.38 46.9641 256.828 48.5156 254.915 48.5156ZM249.717 38.9858C248.281 38.9858 247.117 40.1494 247.117 41.5848C247.117 43.0203 248.281 44.1839 249.717 44.1839C251.152 44.1839 252.316 43.0203 252.316 41.5848C252.316 40.1494 251.152 38.9858 249.717 38.9858ZM242.786 38.9858C241.35 38.9858 240.187 40.1494 240.187 41.5848C240.187 43.0203 241.35 44.1839 242.786 44.1839C244.221 44.1839 245.385 43.0203 245.385 41.5848C245.385 40.1494 244.221 38.9858 242.786 38.9858Z" fill="url(#paint2_linear)"/>
<path d="M334.758 13.8616H286.243C284.329 13.8616 282.777 12.3101 282.777 10.3962V3.4654C282.777 1.55153 284.329 0 286.243 0H334.758C336.672 0 338.224 1.55153 338.224 3.4654V10.3962C338.224 12.3101 336.672 13.8616 334.758 13.8616ZM329.56 4.33175C328.125 4.33175 326.961 5.49537 326.961 6.9308C326.961 8.36624 328.125 9.52985 329.56 9.52985C330.996 9.52985 332.159 8.36624 332.159 6.9308C332.159 5.49537 330.996 4.33175 329.56 4.33175ZM322.629 4.33175C321.194 4.33175 320.03 5.49537 320.03 6.9308C320.03 8.36624 321.194 9.52985 322.629 9.52985C324.065 9.52985 325.229 8.36624 325.229 6.9308C325.229 5.49537 324.065 4.33175 322.629 4.33175ZM334.758 31.1886H286.243C284.329 31.1886 282.777 29.6371 282.777 27.7232V20.7924C282.777 18.8785 284.329 17.327 286.243 17.327H334.758C336.672 17.327 338.224 18.8785 338.224 20.7924V27.7232C338.224 29.6371 336.672 31.1886 334.758 31.1886ZM329.56 21.6588C328.125 21.6588 326.961 22.8224 326.961 24.2578C326.961 25.6932 328.125 26.8569 329.56 26.8569C330.996 26.8569 332.159 25.6932 332.159 24.2578C332.159 22.8224 330.996 21.6588 329.56 21.6588ZM322.629 21.6588C321.194 21.6588 320.03 22.8224 320.03 24.2578C320.03 25.6932 321.194 26.8569 322.629 26.8569C324.065 26.8569 325.229 25.6932 325.229 24.2578C325.229 22.8224 324.065 21.6588 322.629 21.6588ZM334.758 48.5156H286.243C284.329 48.5156 282.777 46.9641 282.777 45.0502V38.1194C282.777 36.2055 284.329 34.654 286.243 34.654H334.758C336.672 34.654 338.224 36.2055 338.224 38.1194V45.0502C338.224 46.9641 336.672 48.5156 334.758 48.5156ZM329.56 38.9858C328.125 38.9858 326.961 40.1494 326.961 41.5848C326.961 43.0203 328.125 44.1839 329.56 44.1839C330.996 44.1839 332.159 43.0203 332.159 41.5848C332.159 40.1494 330.996 38.9858 329.56 38.9858ZM322.629 38.9858C321.194 38.9858 320.03 40.1494 320.03 41.5848C320.03 43.0203 321.194 44.1839 322.629 44.1839C324.065 44.1839 325.229 43.0203 325.229 41.5848C325.229 40.1494 324.065 38.9858 322.629 38.9858Z" fill="url(#paint3_linear)"/>
<path d="M414.6 13.8616H366.085C364.171 13.8616 362.619 12.3101 362.619 10.3962V3.4654C362.619 1.55153 364.171 0 366.085 0H414.6C416.514 0 418.066 1.55153 418.066 3.4654V10.3962C418.066 12.3101 416.514 13.8616 414.6 13.8616ZM409.402 4.33175C407.967 4.33175 406.803 5.49537 406.803 6.9308C406.803 8.36624 407.967 9.52985 409.402 9.52985C410.837 9.52985 412.001 8.36624 412.001 6.9308C412.001 5.49537 410.837 4.33175 409.402 4.33175ZM402.471 4.33175C401.036 4.33175 399.872 5.49537 399.872 6.9308C399.872 8.36624 401.036 9.52985 402.471 9.52985C403.907 9.52985 405.07 8.36624 405.07 6.9308C405.07 5.49537 403.907 4.33175 402.471 4.33175ZM414.6 31.1886H366.085C364.171 31.1886 362.619 29.6371 362.619 27.7232V20.7924C362.619 18.8785 364.171 17.327 366.085 17.327H414.6C416.514 17.327 418.066 18.8785 418.066 20.7924V27.7232C418.066 29.6371 416.514 31.1886 414.6 31.1886ZM409.402 21.6588C407.967 21.6588 406.803 22.8224 406.803 24.2578C406.803 25.6932 407.967 26.8569 409.402 26.8569C410.837 26.8569 412.001 25.6932 412.001 24.2578C412.001 22.8224 410.837 21.6588 409.402 21.6588ZM402.471 21.6588C401.036 21.6588 399.872 22.8224 399.872 24.2578C399.872 25.6932 401.036 26.8569 402.471 26.8569C403.907 26.8569 405.07 25.6932 405.07 24.2578C405.07 22.8224 403.907 21.6588 402.471 21.6588ZM414.6 48.5156H366.085C364.171 48.5156 362.619 46.9641 362.619 45.0502V38.1194C362.619 36.2055 364.171 34.654 366.085 34.654H414.6C416.514 34.654 418.066 36.2055 418.066 38.1194V45.0502C418.066 46.9641 416.514 48.5156 414.6 48.5156ZM409.402 38.9858C407.967 38.9858 406.803 40.1494 406.803 41.5848C406.803 43.0203 407.967 44.1839 409.402 44.1839C410.837 44.1839 412.001 43.0203 412.001 41.5848C412.001 40.1494 410.837 38.9858 409.402 38.9858ZM402.471 38.9858C401.036 38.9858 399.872 40.1494 399.872 41.5848C399.872 43.0203 401.036 44.1839 402.471 44.1839C403.907 44.1839 405.07 43.0203 405.07 41.5848C405.07 40.1494 403.907 38.9858 402.471 38.9858Z" fill="url(#paint4_linear)"/>
<path d="M494.443 13.8616H445.927C444.013 13.8616 442.462 12.3101 442.462 10.3962V3.4654C442.462 1.55153 444.013 0 445.927 0H494.443C496.357 0 497.908 1.55153 497.908 3.4654V10.3962C497.908 12.3101 496.357 13.8616 494.443 13.8616ZM489.245 4.33175C487.809 4.33175 486.646 5.49537 486.646 6.9308C486.646 8.36624 487.809 9.52985 489.245 9.52985C490.68 9.52985 491.844 8.36624 491.844 6.9308C491.844 5.49537 490.68 4.33175 489.245 4.33175ZM482.314 4.33175C480.879 4.33175 479.715 5.49537 479.715 6.9308C479.715 8.36624 480.879 9.52985 482.314 9.52985C483.749 9.52985 484.913 8.36624 484.913 6.9308C484.913 5.49537 483.749 4.33175 482.314 4.33175ZM494.443 31.1886H445.927C444.013 31.1886 442.462 29.6371 442.462 27.7232V20.7924C442.462 18.8785 444.013 17.327 445.927 17.327H494.443C496.357 17.327 497.908 18.8785 497.908 20.7924V27.7232C497.908 29.6371 496.357 31.1886 494.443 31.1886ZM489.245 21.6588C487.809 21.6588 486.646 22.8224 486.646 24.2578C486.646 25.6932 487.809 26.8569 489.245 26.8569C490.68 26.8569 491.844 25.6932 491.844 24.2578C491.844 22.8224 490.68 21.6588 489.245 21.6588ZM482.314 21.6588C480.879 21.6588 479.715 22.8224 479.715 24.2578C479.715 25.6932 480.879 26.8569 482.314 26.8569C483.749 26.8569 484.913 25.6932 484.913 24.2578C484.913 22.8224 483.749 21.6588 482.314 21.6588ZM494.443 48.5156H445.927C444.013 48.5156 442.462 46.9641 442.462 45.0502V38.1194C442.462 36.2055 444.013 34.654 445.927 34.654H494.443C496.357 34.654 497.908 36.2055 497.908 38.1194V45.0502C497.908 46.9641 496.357 48.5156 494.443 48.5156ZM489.245 38.9858C487.809 38.9858 486.646 40.1494 486.646 41.5848C486.646 43.0203 487.809 44.1839 489.245 44.1839C490.68 44.1839 491.844 43.0203 491.844 41.5848C491.844 40.1494 490.68 38.9858 489.245 38.9858ZM482.314 38.9858C480.879 38.9858 479.715 40.1494 479.715 41.5848C479.715 43.0203 480.879 44.1839 482.314 44.1839C483.749 44.1839 484.913 43.0203 484.913 41.5848C484.913 40.1494 483.749 38.9858 482.314 38.9858Z" fill="url(#paint5_linear)"/>
<path d="M574.287 13.8616H525.771C523.857 13.8616 522.306 12.3101 522.306 10.3962V3.4654C522.306 1.55153 523.857 0 525.771 0H574.287C576.201 0 577.752 1.55153 577.752 3.4654V10.3962C577.752 12.3101 576.201 13.8616 574.287 13.8616ZM569.089 4.33175C567.653 4.33175 566.49 5.49537 566.49 6.9308C566.49 8.36624 567.653 9.52985 569.089 9.52985C570.524 9.52985 571.688 8.36624 571.688 6.9308C571.688 5.49537 570.524 4.33175 569.089 4.33175ZM562.158 4.33175C560.722 4.33175 559.559 5.49537 559.559 6.9308C559.559 8.36624 560.722 9.52985 562.158 9.52985C563.593 9.52985 564.757 8.36624 564.757 6.9308C564.757 5.49537 563.593 4.33175 562.158 4.33175ZM574.287 31.1886H525.771C523.857 31.1886 522.306 29.6371 522.306 27.7232V20.7924C522.306 18.8785 523.857 17.327 525.771 17.327H574.287C576.201 17.327 577.752 18.8785 577.752 20.7924V27.7232C577.752 29.6371 576.201 31.1886 574.287 31.1886ZM569.089 21.6588C567.653 21.6588 566.49 22.8224 566.49 24.2578C566.49 25.6932 567.653 26.8569 569.089 26.8569C570.524 26.8569 571.688 25.6932 571.688 24.2578C571.688 22.8224 570.524 21.6588 569.089 21.6588ZM562.158 21.6588C560.722 21.6588 559.559 22.8224 559.559 24.2578C559.559 25.6932 560.722 26.8569 562.158 26.8569C563.593 26.8569 564.757 25.6932 564.757 24.2578C564.757 22.8224 563.593 21.6588 562.158 21.6588ZM574.287 48.5156H525.771C523.857 48.5156 522.306 46.9641 522.306 45.0502V38.1194C522.306 36.2055 523.857 34.654 525.771 34.654H574.287C576.201 34.654 577.752 36.2055 577.752 38.1194V45.0502C577.752 46.9641 576.201 48.5156 574.287 48.5156ZM569.089 38.9858C567.653 38.9858 566.49 40.1494 566.49 41.5848C566.49 43.0203 567.653 44.1839 569.089 44.1839C570.524 44.1839 571.688 43.0203 571.688 41.5848C571.688 40.1494 570.524 38.9858 569.089 38.9858ZM562.158 38.9858C560.722 38.9858 559.559 40.1494 559.559 41.5848C559.559 43.0203 560.722 44.1839 562.158 44.1839C563.593 44.1839 564.757 43.0203 564.757 41.5848C564.757 40.1494 563.593 38.9858 562.158 38.9858Z" fill="url(#paint6_linear)"/>
<circle cx="22.1786" cy="78.5953" r="20.1786" fill="white" stroke="url(#paint7_linear)" stroke-width="4"/>
<circle cx="598.821" cy="78.5953" r="20.1786" fill="white" stroke="url(#paint8_linear)" stroke-width="4"/>
<circle cx="594.387" cy="78.5954" r="4.43571" stroke="url(#paint9_linear)" stroke-width="3"/>
<circle cx="603.258" cy="78.5954" r="4.43571" stroke="url(#paint10_linear)" stroke-width="3"/>
<circle cx="17.7424" cy="78.5954" r="4.43571" stroke="url(#paint11_linear)" stroke-width="3"/>
<circle cx="26.6144" cy="78.5954" r="4.43571" stroke="url(#paint12_linear)" stroke-width="3"/>
<line x1="72.3835" y1="187.187" x2="110.81" y2="221.344" stroke="#E0E0E0" stroke-width="2" stroke-linecap="round" stroke-linejoin="round" stroke-dasharray="5 5"/>
<line x1="152.226" y1="187.187" x2="190.653" y2="221.344" stroke="#E0E0E0" stroke-width="2" stroke-linecap="round" stroke-linejoin="round" stroke-dasharray="5 5"/>
<line x1="232.069" y1="187.187" x2="270.496" y2="221.344" stroke="#E0E0E0" stroke-width="2" stroke-linecap="round" stroke-linejoin="round" stroke-dasharray="5 5"/>
<line x1="311.912" y1="187.187" x2="350.338" y2="221.344" stroke="#E0E0E0" stroke-width="2" stroke-linecap="round" stroke-linejoin="round" stroke-dasharray="5 5"/>
<line x1="391.755" y1="187.187" x2="430.181" y2="221.344" stroke="#E0E0E0" stroke-width="2" stroke-linecap="round" stroke-linejoin="round" stroke-dasharray="5 5"/>
<line x1="471.598" y1="187.187" x2="510.025" y2="221.344" stroke="#E0E0E0" stroke-width="2" stroke-linecap="round" stroke-linejoin="round" stroke-dasharray="5 5"/>
<line x1="1" y1="-1" x2="52.4131" y2="-1" transform="matrix(-0.747409 0.664364 0.664364 0.747409 550.029 187.27)" stroke="#E0E0E0" stroke-width="2" stroke-linecap="round" stroke-linejoin="round" stroke-dasharray="5 5"/>
<line x1="1" y1="-1" x2="52.4131" y2="-1" transform="matrix(-0.747409 0.664364 0.664364 0.747409 470.187 187.27)" stroke="#E0E0E0" stroke-width="2" stroke-linecap="round" stroke-linejoin="round" stroke-dasharray="5 5"/>
<line x1="1" y1="-1" x2="52.4131" y2="-1" transform="matrix(-0.747409 0.664364 0.664364 0.747409 390.343 187.27)" stroke="#E0E0E0" stroke-width="2" stroke-linecap="round" stroke-linejoin="round" stroke-dasharray="5 5"/>
<line x1="1" y1="-1" x2="52.4131" y2="-1" transform="matrix(-0.747409 0.664364 0.664364 0.747409 310.5 187.27)" stroke="#E0E0E0" stroke-width="2" stroke-linecap="round" stroke-linejoin="round" stroke-dasharray="5 5"/>
<line x1="1" y1="-1" x2="52.4131" y2="-1" transform="matrix(-0.747409 0.664364 0.664364 0.747409 230.657 187.27)" stroke="#E0E0E0" stroke-width="2" stroke-linecap="round" stroke-linejoin="round" stroke-dasharray="5 5"/>
<line x1="1" y1="-1" x2="52.4131" y2="-1" transform="matrix(-0.747409 0.664364 0.664364 0.747409 150.814 187.27)" stroke="#E0E0E0" stroke-width="2" stroke-linecap="round" stroke-linejoin="round" stroke-dasharray="5 5"/>
<line x1="94.1504" y1="164.092" x2="127.636" y2="164.092" stroke="#E0E0E0" stroke-width="2" stroke-linecap="round" stroke-linejoin="round" stroke-dasharray="5 5"/>
<line x1="134.071" y1="242.826" x2="167.557" y2="242.826" stroke="#E0E0E0" stroke-width="2" stroke-linecap="round" stroke-linejoin="round" stroke-dasharray="5 5"/>
<line x1="213.914" y1="242.826" x2="247.4" y2="242.826" stroke="#E0E0E0" stroke-width="2" stroke-linecap="round" stroke-linejoin="round" stroke-dasharray="5 5"/>
<line x1="293.758" y1="242.826" x2="327.244" y2="242.826" stroke="#E0E0E0" stroke-width="2" stroke-linecap="round" stroke-linejoin="round" stroke-dasharray="5 5"/>
<line x1="373.601" y1="242.826" x2="407.086" y2="242.826" stroke="#E0E0E0" stroke-width="2" stroke-linecap="round" stroke-linejoin="round" stroke-dasharray="5 5"/>
<line x1="453.443" y1="242.826" x2="486.929" y2="242.826" stroke="#E0E0E0" stroke-width="2" stroke-linecap="round" stroke-linejoin="round" stroke-dasharray="5 5"/>
<line x1="173.993" y1="164.092" x2="207.479" y2="164.092" stroke="#E0E0E0" stroke-width="2" stroke-linecap="round" stroke-linejoin="round" stroke-dasharray="5 5"/>
<line x1="253.836" y1="164.092" x2="287.322" y2="164.092" stroke="#E0E0E0" stroke-width="2" stroke-linecap="round" stroke-linejoin="round" stroke-dasharray="5 5"/>
<line x1="333.679" y1="164.092" x2="367.164" y2="164.092" stroke="#E0E0E0" stroke-width="2" stroke-linecap="round" stroke-linejoin="round" stroke-dasharray="5 5"/>
<line x1="413.522" y1="164.092" x2="447.008" y2="164.092" stroke="#E0E0E0" stroke-width="2" stroke-linecap="round" stroke-linejoin="round" stroke-dasharray="5 5"/>
<line x1="493.364" y1="164.092" x2="526.85" y2="164.092" stroke="#E0E0E0" stroke-width="2" stroke-linecap="round" stroke-linejoin="round" stroke-dasharray="5 5"/>
<circle cx="70.9715" cy="165.092" r="20.1786" fill="white" stroke="url(#paint13_linear)" stroke-width="4"/>
<g clip-path="url(#clip0)">
<path d="M81.54 161.626H78.9466L78.2258 159.824C77.4851 157.972 75.7173 156.775 73.7216 156.775H68.2203C66.2251 156.775 64.4569 157.972 63.7157 159.824L62.9949 161.626H60.4019C60.0636 161.626 59.8154 161.944 59.8977 162.272L60.1576 163.312C60.2152 163.543 60.4231 163.705 60.6618 163.705H61.5312C60.9495 164.214 60.5748 164.952 60.5748 165.785V167.864C60.5748 168.562 60.8416 169.192 61.2678 169.68V172.022C61.2678 172.788 61.8886 173.409 62.654 173.409H64.0402C64.8056 173.409 65.4263 172.788 65.4263 172.022V170.636H76.5156V172.022C76.5156 172.788 77.1363 173.409 77.9018 173.409H79.2879C80.0533 173.409 80.6741 172.788 80.6741 172.022V169.68C81.1003 169.193 81.3672 168.563 81.3672 167.864V165.785C81.3672 164.952 80.9925 164.214 80.4111 163.705H81.2805C81.5192 163.705 81.7271 163.543 81.7847 163.312L82.0447 162.272C82.1265 161.944 81.8783 161.626 81.54 161.626ZM66.2896 160.854C66.6054 160.065 67.37 159.547 68.2203 159.547H73.7216C74.5719 159.547 75.3365 160.065 75.6523 160.854L76.5156 163.012H65.4263L66.2896 160.854ZM64.0402 167.855C63.2085 167.855 62.654 167.303 62.654 166.473C62.654 165.644 63.2085 165.092 64.0402 165.092C64.8719 165.092 66.1194 166.335 66.1194 167.164C66.1194 167.993 64.8719 167.855 64.0402 167.855ZM77.9018 167.855C77.0701 167.855 75.8225 167.993 75.8225 167.164C75.8225 166.335 77.0701 165.092 77.9018 165.092C78.7335 165.092 79.2879 165.644 79.2879 166.473C79.2879 167.303 78.7335 167.855 77.9018 167.855Z" fill="#4F4F4F"/>
</g>
<circle cx="150.814" cy="165.092" r="20.1786" fill="white" stroke="url(#paint14_linear)" stroke-width="4"/>
<g clip-path="url(#clip1)">
<path d="M159.131 160.933H159.824C160.008 160.933 160.184 161.006 160.314 161.136C160.444 161.266 160.517 161.442 160.517 161.626V164.399C160.517 164.582 160.444 164.759 160.314 164.889C160.184 165.019 160.008 165.092 159.824 165.092H159.131V160.933Z" fill="#4F4F4F"/>
<path fill-rule="evenodd" clip-rule="evenodd" d="M151.507 160.24C151.691 160.24 151.867 160.313 151.997 160.443C152.127 160.573 152.2 160.749 152.2 160.933V165.785C152.2 165.968 152.127 166.145 151.997 166.275C151.867 166.405 151.691 166.478 151.507 166.478H148.042C147.858 166.478 147.682 166.405 147.552 166.275C147.422 166.145 147.349 165.968 147.349 165.785C147.349 165.601 147.422 165.425 147.552 165.295C147.682 165.165 147.858 165.092 148.042 165.092H150.814V160.933C150.814 160.749 150.887 160.573 151.017 160.443C151.147 160.313 151.323 160.24 151.507 160.24Z" fill="#4F4F4F"/>
<path fill-rule="evenodd" clip-rule="evenodd" d="M145.962 156.775H155.666C156.585 156.775 157.466 157.14 158.116 157.79C158.766 158.44 159.131 159.321 159.131 160.24V169.943C159.131 170.862 158.766 171.744 158.116 172.394C157.466 173.043 156.585 173.409 155.666 173.409H145.962C145.043 173.409 144.162 173.043 143.512 172.394C142.862 171.744 142.497 170.862 142.497 169.943V160.24C142.497 159.321 142.862 158.44 143.512 157.79C144.162 157.14 145.043 156.775 145.962 156.775ZM145.962 158.161C145.411 158.161 144.882 158.38 144.492 158.77C144.102 159.16 143.883 159.689 143.883 160.24V169.943C143.883 170.495 144.102 171.023 144.492 171.413C144.882 171.803 145.411 172.022 145.962 172.022H155.666C156.217 172.022 156.746 171.803 157.136 171.413C157.526 171.023 157.745 170.495 157.745 169.943V160.24C157.745 159.689 157.526 159.16 157.136 158.77C156.746 158.38 156.217 158.161 155.666 158.161H145.962Z" fill="#4F4F4F"/>
<path d="M145.27 156.844V156.313C145.27 155.038 146.304 154.002 147.58 154.002H154.048C155.323 154.002 156.359 155.036 156.359 156.313V156.844C156.131 156.798 155.899 156.775 155.666 156.775H145.963C145.726 156.775 145.494 156.798 145.27 156.844ZM145.27 173.339C145.494 173.385 145.726 173.409 145.963 173.409H155.666C155.903 173.409 156.134 173.385 156.359 173.339V173.87C156.359 175.145 155.325 176.181 154.048 176.181H147.58C146.305 176.181 145.27 175.147 145.27 173.87V173.339Z" fill="#4F4F4F"/>
</g>
<circle cx="230.657" cy="165.092" r="20.1786" fill="white" stroke="url(#paint15_linear)" stroke-width="4"/>
<g clip-path="url(#clip2)">
<path d="M234.862 154.232C235.663 154.232 236.356 154.525 236.941 155.11C237.527 155.696 237.819 156.389 237.819 157.19V172.992C237.819 173.793 237.527 174.486 236.941 175.071C236.356 175.656 235.663 175.949 234.862 175.949H226.961C226.129 175.949 225.429 175.656 224.859 175.071C224.289 174.486 224.004 173.793 224.004 172.992V157.19C224.004 156.389 224.289 155.696 224.859 155.11C225.429 154.525 226.129 154.232 226.961 154.232H234.862ZM232.875 173.962V172.992H228.948V173.962H232.875ZM236.064 171.005V157.19H225.714V171.005H236.064Z" fill="#4F4F4F"/>
</g>
<circle cx="310.5" cy="165.092" r="20.1786" fill="white" stroke="url(#paint16_linear)" stroke-width="4"/>
<g clip-path="url(#clip3)">
<path d="M313.966 165.785C313.966 166.704 313.601 167.585 312.951 168.235C312.301 168.885 311.42 169.25 310.501 169.25C309.581 169.25 308.7 168.885 308.05 168.235C307.4 167.585 307.035 166.704 307.035 165.785C307.035 164.866 307.4 163.984 308.05 163.334C308.7 162.684 309.581 162.319 310.501 162.319C311.42 162.319 312.301 162.684 312.951 163.334C313.601 163.984 313.966 164.866 313.966 165.785Z" fill="#4F4F4F"/>
<path fill-rule="evenodd" clip-rule="evenodd" d="M302.183 159.547C301.448 159.547 300.743 159.839 300.223 160.359C299.703 160.879 299.411 161.584 299.411 162.319V170.636C299.411 171.372 299.703 172.077 300.223 172.597C300.743 173.117 301.448 173.409 302.183 173.409H318.817C319.553 173.409 320.258 173.117 320.778 172.597C321.298 172.077 321.59 171.372 321.59 170.636V162.319C321.59 161.584 321.298 160.879 320.778 160.359C320.258 159.839 319.553 159.547 318.817 159.547H317.193C316.458 159.547 315.753 159.255 315.233 158.735L314.085 157.587C313.565 157.067 312.86 156.775 312.125 156.775H308.876C308.141 156.775 307.436 157.067 306.916 157.587L305.768 158.735C305.248 159.255 304.543 159.547 303.808 159.547H302.183ZM302.877 162.319C303.06 162.319 303.237 162.246 303.367 162.116C303.497 161.986 303.57 161.81 303.57 161.626C303.57 161.442 303.497 161.266 303.367 161.136C303.237 161.006 303.06 160.933 302.877 160.933C302.693 160.933 302.516 161.006 302.386 161.136C302.256 161.266 302.183 161.442 302.183 161.626C302.183 161.81 302.256 161.986 302.386 162.116C302.516 162.246 302.693 162.319 302.877 162.319ZM315.352 165.785C315.352 167.071 314.841 168.305 313.931 169.215C313.021 170.125 311.787 170.636 310.5 170.636C309.214 170.636 307.98 170.125 307.07 169.215C306.16 168.305 305.649 167.071 305.649 165.785C305.649 164.498 306.16 163.264 307.07 162.354C307.98 161.444 309.214 160.933 310.5 160.933C311.787 160.933 313.021 161.444 313.931 162.354C314.841 163.264 315.352 164.498 315.352 165.785Z" fill="#4F4F4F"/>
</g>
<circle cx="390.343" cy="165.092" r="20.1786" fill="white" stroke="url(#paint17_linear)" stroke-width="4"/>
<path d="M396.459 160.898L385.171 155.929C384.946 155.83 384.69 155.825 384.46 155.914C384.346 155.959 384.243 156.026 384.155 156.111C384.068 156.197 383.998 156.298 383.95 156.41L381.177 162.879C381.081 163.104 381.078 163.359 381.169 163.586C381.26 163.814 381.437 163.996 381.663 164.093L388.092 166.847L386.946 169.712H382.951V166.94H381.103V174.333H382.951V171.56H386.946C387.706 171.56 388.38 171.104 388.661 170.398L389.79 167.576L392.95 168.929C393.174 169.026 393.427 169.029 393.654 168.94C393.881 168.85 394.063 168.674 394.161 168.451L396.933 162.114C397.032 161.89 397.037 161.636 396.948 161.408C396.859 161.18 396.683 160.997 396.459 160.898Z" fill="#4F4F4F"/>
<path d="M397.671 169.132L395.954 168.446L397.8 163.826L399.517 164.51L397.671 169.132Z" fill="#4F4F4F"/>
<circle cx="470.185" cy="165.092" r="20.1786" fill="white" stroke="url(#paint18_linear)" stroke-width="4"/>
<path d="M461.407 158.161H478.965C479.741 158.161 480.351 158.761 480.351 159.547V170.174C480.351 170.96 479.741 171.56 478.965 171.56H461.407C460.621 171.56 460.021 170.96 460.021 170.174V159.547C460.021 158.761 460.621 158.161 461.407 158.161ZM468.069 161.857V167.864L473.346 164.814L468.069 161.857ZM475.037 173.409H465.242C464.964 173.409 464.78 173.224 464.78 172.946C464.78 172.669 464.964 172.484 465.242 172.484H475.13C475.407 172.484 475.592 172.669 475.592 172.946C475.592 173.224 475.314 173.409 475.037 173.409Z" fill="#4F4F4F"/>
<circle cx="550.029" cy="165.092" r="20.1786" fill="white" stroke="url(#paint19_linear)" stroke-width="4"/>
<g clip-path="url(#clip4)">
<path d="M540.768 154.13H559.259C560.279 154.13 561.114 154.966 561.114 156.026V168.305C561.114 169.366 560.279 170.266 559.259 170.266H552.054V173.448H557.311C558.084 173.448 558.146 176.084 558.238 176.18H541.819C541.819 176.18 541.819 173.448 542.747 173.448H548.003V170.266H540.768C539.747 170.266 538.943 169.366 538.943 168.305V156.026C538.943 154.966 539.747 154.13 540.768 154.13ZM540.768 168.305H559.259V156.026H540.768V168.305Z" fill="#4F4F4F"/>
</g>
<circle cx="110.892" cy="244.934" r="20.1786" fill="white" stroke="url(#paint20_linear)" stroke-width="4"/>
<g clip-path="url(#clip5)">
<path d="M117.362 251.403H103.501V236.618H117.362V251.403ZM110.431 255.1C110.064 255.1 109.711 254.954 109.451 254.694C109.191 254.434 109.045 254.081 109.045 253.714C109.045 253.346 109.191 252.993 109.451 252.733C109.711 252.473 110.064 252.327 110.431 252.327C110.799 252.327 111.152 252.473 111.412 252.733C111.671 252.993 111.818 253.346 111.818 253.714C111.818 254.081 111.671 254.434 111.412 254.694C111.152 254.954 110.799 255.1 110.431 255.1ZM116.9 233.845H103.963C103.35 233.845 102.762 234.089 102.329 234.522C101.896 234.955 101.652 235.543 101.652 236.155V253.714C101.652 254.017 101.712 254.317 101.828 254.598C101.944 254.878 102.114 255.133 102.329 255.347C102.544 255.562 102.798 255.732 103.079 255.848C103.359 255.964 103.659 256.024 103.963 256.024H116.9C117.203 256.024 117.504 255.964 117.784 255.848C118.065 255.732 118.319 255.562 118.534 255.347C118.748 255.133 118.918 254.878 119.035 254.598C119.151 254.317 119.21 254.017 119.21 253.714V236.155C119.21 235.543 118.967 234.955 118.534 234.522C118.1 234.089 117.513 233.845 116.9 233.845V233.845Z" fill="#4F4F4F"/>
</g>
<circle cx="190.735" cy="244.934" r="20.1786" fill="white" stroke="url(#paint21_linear)" stroke-width="4"/>
<path d="M186.115 235.693C185.625 235.693 185.155 235.888 184.808 236.235C184.461 236.581 184.267 237.052 184.267 237.542V252.327C184.267 252.818 184.461 253.288 184.808 253.634C185.155 253.981 185.625 254.176 186.115 254.176H195.356C195.846 254.176 196.316 253.981 196.663 253.634C197.009 253.288 197.204 252.818 197.204 252.327V237.542C197.204 237.052 197.009 236.581 196.663 236.235C196.316 235.888 195.846 235.693 195.356 235.693H186.115ZM186.115 237.542H195.356V243.086H186.115V237.542ZM190.735 244.935C191.716 244.935 192.656 245.324 193.349 246.017C194.042 246.71 194.432 247.651 194.432 248.631C194.432 249.611 194.042 250.552 193.349 251.245C192.656 251.938 191.716 252.327 190.735 252.327C189.755 252.327 188.815 251.938 188.122 251.245C187.428 250.552 187.039 249.611 187.039 248.631C187.039 247.651 187.428 246.71 188.122 246.017C188.815 245.324 189.755 244.935 190.735 244.935ZM190.735 246.783C190.245 246.783 189.775 246.977 189.428 247.324C189.082 247.671 188.887 248.141 188.887 248.631C188.887 249.121 189.082 249.591 189.428 249.938C189.775 250.284 190.245 250.479 190.735 250.479C191.226 250.479 191.696 250.284 192.042 249.938C192.389 249.591 192.584 249.121 192.584 248.631C192.584 248.141 192.389 247.671 192.042 247.324C191.696 246.977 191.226 246.783 190.735 246.783Z" fill="#4F4F4F"/>
<circle cx="270.578" cy="244.934" r="20.1786" fill="white" stroke="url(#paint22_linear)" stroke-width="4"/>
<path d="M279.989 244.783L271.068 235.868C271.004 235.804 270.928 235.753 270.844 235.718C270.76 235.683 270.67 235.665 270.579 235.665C270.488 235.665 270.398 235.683 270.314 235.718C270.23 235.753 270.153 235.804 270.089 235.868L261.168 244.783C260.908 245.043 260.761 245.396 260.761 245.764C260.761 246.529 261.382 247.15 262.147 247.15H263.087V253.511C263.087 253.895 263.397 254.205 263.78 254.205H269.192V249.353H271.618V254.205H277.377C277.761 254.205 278.07 253.895 278.07 253.511V247.15H279.01C279.379 247.15 279.732 247.005 279.992 246.743C280.531 246.202 280.531 245.324 279.989 244.783Z" fill="#4F4F4F"/>
<circle cx="350.422" cy="244.934" r="20.1786" fill="white" stroke="url(#paint23_linear)" stroke-width="4"/>
<path fill-rule="evenodd" clip-rule="evenodd" d="M343.768 238.281C343.768 237.693 344.002 237.129 344.418 236.713C344.834 236.297 345.398 236.063 345.986 236.063H354.857C355.446 236.063 356.01 236.297 356.426 236.713C356.842 237.129 357.075 237.693 357.075 238.281V251.588C357.369 251.588 357.651 251.705 357.859 251.913C358.067 252.121 358.184 252.403 358.184 252.697C358.184 252.991 358.067 253.273 357.859 253.481C357.651 253.689 357.369 253.806 357.075 253.806H353.748C353.454 253.806 353.172 253.689 352.964 253.481C352.756 253.273 352.64 252.991 352.64 252.697V250.479C352.64 250.185 352.523 249.903 352.315 249.695C352.107 249.487 351.825 249.37 351.531 249.37H349.313C349.019 249.37 348.737 249.487 348.529 249.695C348.321 249.903 348.204 250.185 348.204 250.479V252.697C348.204 252.991 348.087 253.273 347.879 253.481C347.671 253.689 347.389 253.806 347.095 253.806H343.768C343.474 253.806 343.192 253.689 342.984 253.481C342.776 253.273 342.659 252.991 342.659 252.697C342.659 252.403 342.776 252.121 342.984 251.913C343.192 251.705 343.474 251.588 343.768 251.588V238.281ZM347.095 239.39H349.313V241.608H347.095V239.39ZM349.313 243.826H347.095V246.043H349.313V243.826ZM351.531 239.39H353.748V241.608H351.531V239.39ZM353.748 243.826H351.531V246.043H353.748V243.826Z" fill="#4F4F4F"/>
<circle cx="430.264" cy="244.934" r="20.1786" fill="white" stroke="url(#paint24_linear)" stroke-width="4"/>
<path d="M430.265 246.321C424.649 246.321 420.1 246.941 420.1 247.71C420.1 248.473 424.649 249.093 430.265 249.093C435.882 249.093 440.43 248.473 440.43 247.71C440.43 246.941 435.882 246.321 430.265 246.321ZM430.265 248.156C428.942 248.156 427.866 247.928 427.866 247.646C427.866 247.364 428.942 247.136 430.265 247.136C431.587 247.136 432.664 247.364 432.664 247.646C432.664 247.928 431.587 248.156 430.265 248.156Z" fill="#4F4F4F"/>
<path d="M429.012 240.776L430.107 243.747L432.69 240.776H437.073C439.22 240.776 440.726 241.768 440.38 243.042C440.036 244.315 437.988 245.308 435.851 245.308H432.942C432.942 245.308 433.007 245.288 433.021 245.25C433.135 244.813 433.81 242.355 433.818 242.317C433.828 242.27 433.77 242.255 433.77 242.255H435.882C435.882 242.255 435.842 242.253 435.825 242.317C435.646 242.96 435.47 243.603 435.296 244.246C435.285 244.29 435.221 244.311 435.221 244.311H435.726C436.925 244.311 438.058 243.928 438.297 243.041C438.515 242.231 437.722 241.772 436.43 241.772H435.962L433.94 241.774L429.3 246.363L427.523 241.856C427.523 241.856 427.507 241.826 427.493 241.788C427.487 241.776 427.443 241.739 427.398 241.759C427.368 241.776 427.364 241.813 427.368 241.827C427.384 241.857 427.387 241.864 427.39 241.878C427.653 242.308 427.606 242.806 427.542 243.042C427.185 244.313 425.146 245.308 423.009 245.308H420.1C420.1 245.308 420.168 245.288 420.179 245.25C420.296 244.813 420.972 242.342 420.977 242.317C420.985 242.276 420.931 242.256 420.931 242.256H423.058C423.058 242.256 422.997 242.273 422.985 242.316C422.974 242.353 422.544 243.902 422.453 244.247C422.443 244.29 422.371 244.311 422.371 244.311H422.888C424.088 244.311 425.213 243.929 425.451 243.041C425.669 242.232 424.882 241.773 423.593 241.773H421.064C421.064 241.773 421.122 241.745 421.132 241.708C421.189 241.504 421.361 240.861 421.37 240.831C421.379 240.798 421.321 240.776 421.321 240.776H429.012Z" fill="#4F4F4F"/>
<circle cx="510.107" cy="244.934" r="20.1786" fill="white" stroke="url(#paint25_linear)" stroke-width="4"/>
<g clip-path="url(#clip6)">
<path d="M520.503 244.934H517.038V250.479H518.424C518.799 250.479 519.124 250.616 519.398 250.891C519.673 251.165 519.81 251.49 519.81 251.865V254.638C519.81 255.027 519.673 255.356 519.398 255.623C519.124 255.89 518.799 256.024 518.424 256.024H514.265C513.875 256.024 513.547 255.89 513.28 255.623C513.013 255.356 512.879 255.027 512.879 254.638V251.865C512.879 251.49 513.013 251.165 513.28 250.891C513.547 250.616 513.875 250.479 514.265 250.479H515.652V244.934H505.948V250.479H507.335C507.71 250.479 508.035 250.616 508.309 250.891C508.584 251.165 508.721 251.49 508.721 251.865V254.638C508.721 255.027 508.584 255.356 508.309 255.623C508.035 255.89 507.71 256.024 507.335 256.024H503.176C502.786 256.024 502.458 255.89 502.191 255.623C501.923 255.356 501.79 255.027 501.79 254.638V251.865C501.79 251.49 501.923 251.165 502.191 250.891C502.458 250.616 502.786 250.479 503.176 250.479H504.562V244.934H499.711C499.523 244.934 499.361 244.866 499.223 244.729C499.086 244.592 499.018 244.429 499.018 244.241C499.018 244.054 499.086 243.891 499.223 243.754C499.361 243.617 499.523 243.548 499.711 243.548H510.107V239.39H508.721C508.331 239.39 508.002 239.256 507.735 238.989C507.468 238.722 507.335 238.394 507.335 238.004V235.231C507.335 234.856 507.468 234.531 507.735 234.257C508.002 233.982 508.331 233.845 508.721 233.845H512.879C513.255 233.845 513.579 233.982 513.854 234.257C514.128 234.531 514.265 234.856 514.265 235.231V238.004C514.265 238.394 514.128 238.722 513.854 238.989C513.579 239.256 513.255 239.39 512.879 239.39H511.493V243.548H520.503C520.691 243.548 520.853 243.617 520.99 243.754C521.128 243.891 521.196 244.054 521.196 244.241C521.196 244.429 521.128 244.592 520.99 244.729C520.853 244.866 520.691 244.934 520.503 244.934Z" fill="#4F4F4F"/>
</g>
<defs>
<linearGradient id="paint0_linear" x1="150.696" y1="-9.28361" x2="150.696" y2="63.5912" gradientUnits="userSpaceOnUse">
<stop stop-color="#00B9FF"/>
<stop offset="1" stop-color="#0068B5"/>
</linearGradient>
<linearGradient id="paint1_linear" x1="70.8533" y1="-9.28361" x2="70.8533" y2="63.5912" gradientUnits="userSpaceOnUse">
<stop stop-color="#00B9FF"/>
<stop offset="1" stop-color="#0068B5"/>
</linearGradient>
<linearGradient id="paint2_linear" x1="230.539" y1="-9.28361" x2="230.539" y2="63.5912" gradientUnits="userSpaceOnUse">
<stop stop-color="#00B9FF"/>
<stop offset="1" stop-color="#0068B5"/>
</linearGradient>
<linearGradient id="paint3_linear" x1="310.383" y1="-9.28361" x2="310.383" y2="63.5912" gradientUnits="userSpaceOnUse">
<stop stop-color="#00B9FF"/>
<stop offset="1" stop-color="#0068B5"/>
</linearGradient>
<linearGradient id="paint4_linear" x1="390.224" y1="-9.28361" x2="390.224" y2="63.5912" gradientUnits="userSpaceOnUse">
<stop stop-color="#00B9FF"/>
<stop offset="1" stop-color="#0068B5"/>
</linearGradient>
<linearGradient id="paint5_linear" x1="470.067" y1="-9.28361" x2="470.067" y2="63.5912" gradientUnits="userSpaceOnUse">
<stop stop-color="#00B9FF"/>
<stop offset="1" stop-color="#0068B5"/>
</linearGradient>
<linearGradient id="paint6_linear" x1="549.911" y1="-9.28361" x2="549.911" y2="63.5912" gradientUnits="userSpaceOnUse">
<stop stop-color="#00B9FF"/>
<stop offset="1" stop-color="#0068B5"/>
</linearGradient>
<linearGradient id="paint7_linear" x1="22.0842" y1="47.9289" x2="22.0842" y2="114.557" gradientUnits="userSpaceOnUse">
<stop stop-color="#00B9FF"/>
<stop offset="1" stop-color="#0068B5"/>
</linearGradient>
<linearGradient id="paint8_linear" x1="598.727" y1="47.9289" x2="598.727" y2="114.557" gradientUnits="userSpaceOnUse">
<stop stop-color="#00B9FF"/>
<stop offset="1" stop-color="#0068B5"/>
</linearGradient>
<linearGradient id="paint9_linear" x1="589.951" y1="79.2164" x2="598.826" y2="79.1626" gradientUnits="userSpaceOnUse">
<stop stop-color="#FF6753"/>
<stop offset="1" stop-color="#FF8F50"/>
</linearGradient>
<linearGradient id="paint10_linear" x1="598.822" y1="79.2164" x2="607.697" y2="79.1626" gradientUnits="userSpaceOnUse">
<stop stop-color="#FF6753"/>
<stop offset="1" stop-color="#FF8F50"/>
</linearGradient>
<linearGradient id="paint11_linear" x1="13.3066" y1="79.2164" x2="22.1815" y2="79.1626" gradientUnits="userSpaceOnUse">
<stop stop-color="#FF6753"/>
<stop offset="1" stop-color="#FF8F50"/>
</linearGradient>
<linearGradient id="paint12_linear" x1="22.1787" y1="79.2164" x2="31.0536" y2="79.1626" gradientUnits="userSpaceOnUse">
<stop stop-color="#FF6753"/>
<stop offset="1" stop-color="#FF8F50"/>
</linearGradient>
<linearGradient id="paint13_linear" x1="70.8772" y1="134.425" x2="70.8772" y2="201.054" gradientUnits="userSpaceOnUse">
<stop stop-color="#00B9FF"/>
<stop offset="1" stop-color="#0068B5"/>
</linearGradient>
<linearGradient id="paint14_linear" x1="150.72" y1="134.425" x2="150.72" y2="201.054" gradientUnits="userSpaceOnUse">
<stop stop-color="#00B9FF"/>
<stop offset="1" stop-color="#0068B5"/>
</linearGradient>
<linearGradient id="paint15_linear" x1="230.563" y1="134.425" x2="230.563" y2="201.054" gradientUnits="userSpaceOnUse">
<stop stop-color="#00B9FF"/>
<stop offset="1" stop-color="#0068B5"/>
</linearGradient>
<linearGradient id="paint16_linear" x1="310.405" y1="134.425" x2="310.405" y2="201.054" gradientUnits="userSpaceOnUse">
<stop stop-color="#00B9FF"/>
<stop offset="1" stop-color="#0068B5"/>
</linearGradient>
<linearGradient id="paint17_linear" x1="390.248" y1="134.425" x2="390.248" y2="201.054" gradientUnits="userSpaceOnUse">
<stop stop-color="#00B9FF"/>
<stop offset="1" stop-color="#0068B5"/>
</linearGradient>
<linearGradient id="paint18_linear" x1="470.091" y1="134.425" x2="470.091" y2="201.054" gradientUnits="userSpaceOnUse">
<stop stop-color="#00B9FF"/>
<stop offset="1" stop-color="#0068B5"/>
</linearGradient>
<linearGradient id="paint19_linear" x1="549.935" y1="134.425" x2="549.935" y2="201.054" gradientUnits="userSpaceOnUse">
<stop stop-color="#00B9FF"/>
<stop offset="1" stop-color="#0068B5"/>
</linearGradient>
<linearGradient id="paint20_linear" x1="110.798" y1="214.268" x2="110.798" y2="280.896" gradientUnits="userSpaceOnUse">
<stop stop-color="#00B9FF"/>
<stop offset="1" stop-color="#0068B5"/>
</linearGradient>
<linearGradient id="paint21_linear" x1="190.641" y1="214.268" x2="190.641" y2="280.896" gradientUnits="userSpaceOnUse">
<stop stop-color="#00B9FF"/>
<stop offset="1" stop-color="#0068B5"/>
</linearGradient>
<linearGradient id="paint22_linear" x1="270.484" y1="214.268" x2="270.484" y2="280.896" gradientUnits="userSpaceOnUse">
<stop stop-color="#00B9FF"/>
<stop offset="1" stop-color="#0068B5"/>
</linearGradient>
<linearGradient id="paint23_linear" x1="350.327" y1="214.268" x2="350.327" y2="280.896" gradientUnits="userSpaceOnUse">
<stop stop-color="#00B9FF"/>
<stop offset="1" stop-color="#0068B5"/>
</linearGradient>
<linearGradient id="paint24_linear" x1="430.17" y1="214.268" x2="430.17" y2="280.896" gradientUnits="userSpaceOnUse">
<stop stop-color="#00B9FF"/>
<stop offset="1" stop-color="#0068B5"/>
</linearGradient>
<linearGradient id="paint25_linear" x1="510.013" y1="214.268" x2="510.013" y2="280.896" gradientUnits="userSpaceOnUse">
<stop stop-color="#00B9FF"/>
<stop offset="1" stop-color="#0068B5"/>
</linearGradient>
<clipPath id="clip0">
<rect width="22.1786" height="22.1786" fill="white" transform="translate(59.8818 154.002)"/>
</clipPath>
<clipPath id="clip1">
<rect width="22.1786" height="22.1786" fill="white" transform="translate(139.725 154.002)"/>
</clipPath>
<clipPath id="clip2">
<rect width="14.0464" height="22.1786" fill="white" transform="translate(224.004 154.002)"/>
</clipPath>
<clipPath id="clip3">
<rect width="22.1786" height="22.1786" fill="white" transform="translate(299.411 154.002)"/>
</clipPath>
<clipPath id="clip4">
<rect width="22.1786" height="22.1786" fill="white" transform="translate(538.939 154.002)"/>
</clipPath>
<clipPath id="clip5">
<rect width="22.1786" height="22.1786" fill="white" transform="translate(99.8037 233.845)"/>
</clipPath>
<clipPath id="clip6">
<rect width="22.1786" height="22.1786" fill="white" transform="translate(499.018 233.845)"/>
</clipPath>
</defs>
</svg>
